<?xml version="1.0" encoding="utf-8" ?>
<svg baseProfile="full" height="300mm" version="1.1" viewBox="0,0,200,300" width="200mm" xmlns="http://www.w3.org/2000/svg" xmlns:ev="http://www.w3.org/2001/xml-events" xmlns:xlink="http://www.w3.org/1999/xlink"><defs /><rect fill="#222222" height="300" width="200" x="0" y="0" /><text fill="#FFFFFF" style="font-size:12px; font-family:Arial; font-weight:bold;" x="10" y="20">Over 5km Runs</text><text fill="#FFFFFF" style="font-size:4px; font-family:Arial" x="10" y="280">ATHLETE</text><text fill="#FFFFFF" style="font-size:9px; font-family:Arial" x="10" y="290">zhzj</text><text fill="#FFFFFF" style="font-size:4px; font-family:Arial" x="120" y="280">STATISTICS</text><text fill="#FFFFFF" style="font-size:3px; font-family:Arial" x="120" y="285">Number: 3</text><text fill="#FFFFFF" style="font-size:3px; font-family:Arial" x="120" y="290">Weekly: 1.0</text><text fill="#FFFFFF" style="font-size:3px; font-family:Arial" x="141" y="285">Total: 22.1 km</text><text fill="#FFFFFF" style="font-size:3px; font-family:Arial" x="141" y="290">Avg: 7.4 km</text><text fill="#FFFFFF" style="font-size:3px; font-family:Arial" x="167" y="285">Min: 5.3 km</text><text fill="#FFFFFF" style="font-size:3px; font-family:Arial" x="167" y="290">Max: 9.2 km</text><polyline fill="none" points="28.23444900539471,100.86016682602349 22.24960530467797,100.27624139080581 16.392642879742198,100.49521362350788 16.290337859187275,100.09376435184095 15.727660246309824,93.45148979895748 16.06015156302601,90.20326635459787 15.344016419374384,87.21047569536313 15.190558888542,79.83780537244456 14.5,76.29736963419418 15.292863909038715,75.64037484614528 16.699557941232342,75.60387507412815 16.8274392169551,74.83737836267392 15.82996526680654,70.05583430061233 16.290337859187275,68.52279660882778 15.650931480864529,58.92280041468621 16.06015156302601,49.86992144669057 19.23160719923908,49.43186879449058 21.865961477800738,50.271468890292454 32.19876855064649,51.1110655538796 42.65945689927321,51.29358611347561 53.29917903372552,50.5635029017576 61.73934322706191,53.19179031807289 87.59693716454785,50.052443109219894 94.8861698769033,50.19846032255737 95.5,50.92854483195697 95.39769497950329,50.344477432066924 52.71092516579665,50.60000712402689 47.21203031257028,51.1110655538796 38.18361225136323,50.7095197517192 33.298547521291766,51.03805728450243 27.21139880013652,50.19846032255737 23.221502999716904,50.30797316448297 19.589674771064892,49.13983317397651 15.702083991200197,49.796912736142986 16.08572781807743,70.96835130373074 16.239185348909814,73.77887820148317 16.929744237451814,74.9833779567416 16.26476160401944,75.89587306893372 14.5,76.55286703976162 15.599778970703483,85.60457004852651 15.471897694980726,92.90404000825947 16.08572781807743,95.78725918021519 16.06015156302601,100.71418562288454 30.280549415852875,100.49521362350788" stroke="#4dd2ff" stroke-linecap="round" stroke-linejoin="round" stroke-width="0.5"><title>2021-10-10 7.6km</title></polyline><polyline fill="none" points="136.23280095984228,114.95608222219744 130.62941722548567,115.5 116.71625353116542,114.68412297093892 116.868726558052,105.98129937291378 115.64894234377425,103.42479793200619 115.83953362714965,92.05626702521113 114.31480335921515,79.10977033854579 117.17367261159234,78.18499962420901 117.66920994862448,76.71624039465678 116.52566224779002,73.72430164719117 115.64894234377425,39.77734846700332 121.17608956468757,39.178890843875706 140.19709965633228,41.40949967436609 154.03402683709282,41.790333703771466 171.33971537742764,40.70223521970911 175.68519664090127,41.790333703771466 175.11342279030941,40.48461505872547 173.05503692873754,39.39651193306781 167.6041262212675,38.09078307656455 165.69821338634938,34.5 158.79880892427173,35.86015006090747 155.1775745380437,34.60881222729222 144.77129045990296,35.09846677139285 144.0851618394954,35.91455593757564 144.23763486614916,37.49232215571101 142.33172203134745,38.145188556751236 141.4931203839369,39.940563979471335 138.2149503082037,39.39651193306781 138.90107892861124,38.74364820108167 138.36742333497386,38.52602664753795 136.49962875677738,39.61413286768948 126.47452724562027,38.52602664753795 125.33097954466939,39.45091718129697 121.82409992848989,38.6348374436493 116.79249004460871,39.178890843875706 116.83060830133036,71.3851291674946" stroke="#4dd2ff" stroke-linecap="round" stroke-linejoin="round" stroke-width="0.5"><title>2021-04-25 5.3km</title></polyline><polyline fill="none" points="77.32985683286097,216.12881251474028 77.92531968164258,223.91741993578034 77.42910064093303,240.39075263585255 75.97352478816174,243.3643399855937 74.22021751094144,244.0723320690886 71.90452865418047,243.93073380332498 71.17674072773661,242.27874846040504 73.95556735573336,240.53235278809734 76.7674752533203,240.6267528476019 76.23817494313698,242.98674343636958 74.12097370275296,244.2139302594005 71.83836611534934,244.11953147419263 71.07749691954814,243.03394303427194 71.3421470746398,242.18434898772102 74.28638004965615,240.4851527458086 76.53590636770241,240.53235278809734 76.96596286969725,240.90995282486256 76.40358129004017,242.84514459197817 74.81568035972305,244.02513265557354 71.90452865418047,244.26112963950436 70.94517184200231,242.7979449605191 71.50755342154298,241.94835015945137 74.51794893527403,240.4851527458086 76.833637792035,240.57955282196053 77.03212540829554,241.8539505693916 75.34498066990636,243.69473652599845 72.00377246236894,244.30832901118265 70.94517184200231,245.8659035720484 67.1408258631127,248.55623812838166 65.88373762671836,251.01055466779508 65.1559497002745,257.5710202946648 63.005667190416716,258.3261714115797 58.771264709415846,257.85420221493405 58.142720591276884,261.58273602221743 56.687144738505594,264.8864564436226 47.887527082813904,263.7537569259439 45.04253791610245,264.22571564497775 44.050099834566936,263.8953446295054 44.11626237328164,261.9603061490343 41.23819193709642,261.4411470863124 39.51796592923347,259.27010728997993 36.242920260410756,258.7037461653381 35.91210756660439,260.4972189193504 32.703224436496384,261.48834340670146 32.0085177795263,265.26402187661733 30.91683588991873,265.5 32.901712052873336,260.5444154073921 35.283563448349014,260.7332012753759 36.2098389910534,259.74207397180726 34.29112536692992,257.051852657125 34.12571901991032,255.21115922406898 34.88658821571153,252.37929827690823 35.87902629724704,251.48253601907345 35.34972598706372,249.68900242484233 36.242920260410756,242.65634601554484 36.11059518286493,236.66192147387483 37.2022770724725,235.38749882591947 36.63989549304824,234.6794836025656 36.37524533784017,230.90337055080454 37.33460215001833,228.40166610201413 36.77222057047766,216.6480601123476 38.09547134581953,215.6095639024279 36.70605803176295,214.6182682794606 36.73913930123672,204.7523150320776 37.83082119084429,203.43053270199744 36.87146437866613,202.20315750800364 36.904545648023486,196.91593800611736 35.91210756660439,193.37533041270217 36.37524533784017,192.10070012854703 35.680538680870086,187.33258447212575 38.88942181097809,186.76606999352225 39.08790942723863,185.91629601102613 40.51040401076898,185.63303741277196 50.56710990273859,184.5 55.29773142444901,184.5944199688529 56.124763158964925,185.16093907805043 51.75803560053464,186.38839300352265 51.294897829182446,187.0965369193582 52.320417179958895,217.68655226331612 53.345936530968174,226.9855965408642 52.91588002897333,232.1778147049772 53.64366795530077,235.34029786962492 58.93667105643544,235.38749882591947 59.26748375024181,239.06914757733466 68.69564552407246,239.54115013861156 69.68808360560797,241.6179514475807 72.20226007862948,241.52355174030527 74.22021751094144,240.24915240831615 76.6020689063007,240.53235278809734 76.7674752533203,241.8539505693916 75.37806193926372,243.74193599815771 72.0368537317263,244.11953147419263 71.27598453592509,243.1283422051347 71.80528484599199,241.90115036854695 73.7901610089466,240.4851527458086 76.0066060575191,240.39075263585255 76.96596286969725,241.1931525003747 75.90736224933062,243.41153951645538 72.73156038869638,244.02513265557354 71.3421470746398,243.50593855314946 71.14365945837926,242.56194667716045 71.90452865418047,241.4763518740947 74.45178639655933,240.20195231572143 76.7674752533203,240.4379526949051 76.93288160022348,241.665151288762 75.51038701669313,243.45873903893516 74.08789243339561,243.9779332336766 72.23534134798683,243.9779332336766 71.17674072773661,243.1283422051347 72.33458515617531,241.24035241699312 74.51794893527403,240.3435525684472 76.86671906150877,240.6267528476019 77.46218191029038,239.9187515838421 77.26369429402985,238.17234040125913 79.08316411008127,234.0186676923331 78.62002633861266,231.84740384455654 79.0500828406075,230.10093961413077 78.22305110609159,229.1569001156313 78.22305110609159,227.26881105673965" stroke="#4dd2ff" stroke-linecap="round" stroke-linejoin="round" stroke-width="0.5"><title>2021-04-11 9.2km</title></polyline></svg>