<?xml version="1.0" encoding="utf-8" ?>
<svg baseProfile="full" height="300mm" version="1.1" viewBox="0,0,200,300" width="200mm" xmlns="http://www.w3.org/2000/svg" xmlns:ev="http://www.w3.org/2001/xml-events" xmlns:xlink="http://www.w3.org/1999/xlink"><defs /><rect fill="#222222" height="300" width="200" x="0" y="0" /><text fill="#FFFFFF" style="font-size:12px; font-family:Arial; font-weight:bold;" x="10" y="20">Over 5km Runs</text><text fill="#FFFFFF" style="font-size:4px; font-family:Arial" x="10" y="280">ATHLETE</text><text fill="#FFFFFF" style="font-size:9px; font-family:Arial" x="10" y="290">zhzj</text><text fill="#FFFFFF" style="font-size:4px; font-family:Arial" x="120" y="280">STATISTICS</text><text fill="#FFFFFF" style="font-size:3px; font-family:Arial" x="120" y="285">Number: 10</text><text fill="#FFFFFF" style="font-size:3px; font-family:Arial" x="120" y="290">Weekly: 1.1</text><text fill="#FFFFFF" style="font-size:3px; font-family:Arial" x="141" y="285">Total: 70.5 km</text><text fill="#FFFFFF" style="font-size:3px; font-family:Arial" x="141" y="290">Avg: 7.0 km</text><text fill="#FFFFFF" style="font-size:3px; font-family:Arial" x="167" y="285">Min: 5.0 km</text><text fill="#FFFFFF" style="font-size:3px; font-family:Arial" x="167" y="290">Max: 14.7 km</text><polyline fill="none" points="54.671968511654995,70.52601739905367 54.7174277480226,70.7530311964947 54.74015736608999,71.04490566397726 54.467401948350016,71.53136207308853 54.44467233022442,71.92052626720397 54.37648347578943,72.11510805314174 54.171916912542656,72.50427100303932 53.46729875006713,73.41231466019235 52.989976769080386,73.70418487663846 52.64903249696363,73.80147484513873 51.28525540832197,73.8339048230846 50.85339266358642,73.8987647616741 50.785203809151426,73.96362467730069 50.51244839146966,74.35278368717991 50.39880030066706,74.83923128298193 50.21696335560409,75.16352896027092 49.78510061081033,75.13109921851719 49.21686015720479,75.45539637729235 48.92137512139743,75.8769818226574 48.48951237666188,76.33099582903378 48.23948657710571,76.42828439782897 47.76216459600255,76.75257925264305 47.3530314694508,77.27144982237951 47.14846490614582,77.82274818696897 46.98935757915024,78.50376151567616 46.89843910658965,79.11991424344887 46.921168724715244,79.83335164640448 46.85297987028025,80.22249814585666 46.71660216146847,80.67650134686846 46.28473941673292,81.06564604923187 45.55739163607359,81.29264674273145 44.37545149266953,81.13050341901544 43.966318366117775,81.00078865644173 42.670730131911114,80.8710738017835 42.44343395048054,81.35750403176644 42.30705624161055,82.557359725266 42.23886738717556,82.88164369444712 42.07976006017998,82.94650041915884 41.852463878749404,83.20592708760523 41.89792311494239,83.65992287055997 41.738815787946805,84.37334253445442 41.69335655175382,85.02190344640985 41.55697884282563,85.86502918801853 41.30695304326946,86.4487293438142 41.10238647996448,86.80543407608639 41.05692724365508,87.0 40.78417182597332,87.0 40.39776831754716,86.74057872212143 39.920446336444,86.57844023617508 38.12480650318321,86.31901835936878 36.44281476055039,85.99474049494893 35.169956144469324,85.63803417903546 34.05620485544205,85.47589471407991 33.30612745677354,85.08675941085676 32.87426471197978,85.02190344640985 32.44240196724422,85.05433143150003 32.32875387655804,85.76774564723019 31.87416151369689,85.92988485295791 31.46502838708693,85.63803417903546 30.487654806987848,84.56791104994772 30.146710534754675,84.40577063472301 29.26025542721618,84.14634567104804 28.260152228816878,83.9842048814753 27.941937574825715,83.91934852543636 27.828289484139532,83.9842048814753 27.76010062970454,84.0814893724164 26.805456667614635,83.85449214617256 26.350864304753486,83.82206394801324 25.578057287901174,83.46535338759713 25.25984263391001,83.14107045500714 25.009816834353842,82.62221656528709 24.964357598044444,82.26550366073207 25.032546452479437,81.13050341901544 25.237113015784416,80.0927827382111 25.3507611064706,79.80092273408081 25.71443499677116,79.34691735584056 26.191756977757905,79.05505615947186 26.16902735963231,78.79562359330885 26.05537926888792,78.40647405276832 26.009920032636728,78.01732368289959 25.896271941892337,77.92003596085124 25.828083087457344,77.4660259058146 25.91900156007614,76.91472646404873 25.96446079632733,76.36342535766016 25.987190414511133,75.2932478698931 26.146297741564922,73.8339048230846 26.16902735963231,73.28259441422415 26.487242013623472,72.89343312325946 26.532701249991078,72.56913141394034 26.509971631749067,71.7259442738432 26.214486595999915,71.07733613160963 26.259945832192898,70.59087851282675 26.32813468662789,68.93691291401046 26.487242013623472,68.48288052075077 26.873645522107836,68.19100195742794 27.078212085412815,68.1261399910727 27.123671321605798,67.93155395386566 26.987293612852227,67.67210558148508 26.737267813179642,67.41265684054815 26.669078958861064,67.18563888978679 26.714538195112254,65.59650533040985 26.555430868058465,64.98030696339265 26.57816048618406,64.33167485658487 26.873645522107836,63.84519926413486 27.05548246728722,63.715472220646916 27.123671321605798,63.48844967262994 27.10094170353841,62.061444335078704 27.191860176099,61.08847975557728 27.169130557973403,60.47226617317938 27.05548246728722,59.9533478590165 27.010023230977822,58.91550680606451 27.05548246728722,57.87765985308215 27.010023230977822,57.520898600356304 27.10094170353841,56.353311444370775 27.14640093984781,56.15871285904723 27.123671321605798,55.41274969378719 26.85091590398224,55.02355031062325 26.805456667614635,54.893816998490365 27.282778648717795,54.601916709158104 27.532804448273964,54.634350097738206 27.623722920834552,54.21271559741581 26.89637514029164,53.985681232356 26.828186285856646,53.95324772855383 26.737267813179642,53.401877282958594 26.85091590398224,53.142408261672244 26.805456667614635,52.26669759242213 26.919104758417234,46.752867258459446 27.05548246728722,46.13660528618493 27.237319412408397,46.03930057413527 27.55553406639956,45.974430737274815 27.71464139339514,45.81225604418432 27.646452538960148,45.617646222322946 27.237319412408397,45.585211231853464 27.032752849103417,45.195990896681906 27.10094170353841,44.482418126790435 27.032752849103417,43.73640724871075 26.94183437654283,43.31474757770775 26.987293612852227,42.86065145826433 26.964563994610216,41.85514888826583 26.919104758417234,41.336177652934566 26.737267813179642,40.36310261000472 26.623619722551666,39.487330636547995 26.41905315918848,38.903480320062954 26.532701249991078,38.06013767737022 26.32813468662789,37.573592072716565 26.191756977757905,36.989735635361285 26.16902735963231,36.60049697307113 26.237216214067303,36.01663742327946 26.16902735963231,35.5949599204032 26.16902735963231,35.205718284036266 26.146297741564922,34.4596694943757 26.282675450318493,34.39479554240825 27.30550826684339,34.55698037899856 27.80555986595573,34.55698037899856 28.78293344611302,34.102862473460846 29.123877718346193,33.81092893789173 30.237629007315263,33.90824016831175 31.578676477831323,33.68118054982915 32.32875387655804,33.64874343844713 32.87426471197978,33.45412064899574 34.01074561919086,33.48655779499677 34.306230655056424,33.421683497261256 34.76082301791757,33.45412064899574 35.419981944025494,33.35680917654827 35.442711562267505,33.227060465695104 36.03368163394043,33.194623273651814 36.60192208754597,33.25949765201949 36.98832559597213,33.09731166274287 37.26108101377031,33.09731166274287 38.60212848416995,33.09731166274287 39.32947626482928,33.0 39.852257482125424,33.09731166274287 40.19320175424218,33.29193483259587 40.17047213611659,33.48655779499677 40.079553663556,33.616306321302545 40.35230908123776,33.81092893789173 40.55687564454274,33.746054755334626 40.9432791529689,33.778491849501734 41.03419762552949,34.39479554240825 41.079656861838885,35.53008637204766 41.26149380696006,36.27613078705326 41.39787151583005,38.189882952850894 41.53424922475824,39.000788835881394 41.55697884282563,40.492846248758724 41.62516769731883,40.91451243785559 41.579708460951224,41.46592060003604 41.69335655175382,42.276811930627446 41.62516769731883,43.63910125718394 41.69335655175382,43.73640724871075 41.78427502431441,44.3202421082824 41.761545406188816,44.709464310639305 41.82973426062381,45.585211231853464 41.67062693351181,46.460953951987904 41.852463878749404,47.109649554724456 41.94338235130999,48.08268863672856 41.78427502431441,48.698944039599155 41.761545406188816,48.89355057674402 41.89792311494239,50.547697766523925 41.89792311494239,51.03420879342593 41.96611196937738,51.84505762392655 41.94338235130999,52.46130032642395 42.07976006017998,54.11541518976446 42.17067853274057,54.21271559741581 42.466163568606135,54.73165022871399 42.94348554959288,54.991116991252056 43.37534829432843,55.5424826372182 43.7390221846872,55.7695150662621 43.966318366117775,55.80194824723003 44.07996645680396,56.02898035357066 44.420910728978924,56.38574452181638 44.94369194621686,56.774941001000116 45.21644736395683,57.099270766513655 45.330095454643015,57.42359995591687 45.443743545387406,57.65063004566764 45.67103972681798,57.84522704077244 45.85287667193916,57.94252546048665 45.87560629018117,57.87765985308215 46.671142925159074,57.84522704077244 47.37576108757639,57.71549573376251 47.87581268674694,57.812794222612865 48.012190395675134,58.169554904903634 47.98946077743312,58.558747581453645 47.898542304872535,58.72091095174255 47.62578688719077,58.68847828917205 48.05764963186812,58.234420408596634 48.08037925011013,58.169554904903634 48.262216195231304,58.03982382842514 48.512241994729266,57.71549573376251 49.148671302828006,57.87765985308215 49.51234519307036,58.20198765958776 50.39880030066706,59.53172564280976 50.51244839146966,59.596590662549715 50.876122281712014,60.08307757592411 51.30798502644757,60.43983382181614 51.62619968043873,60.5371308587637 51.8762254799949,60.69929247183609 52.103521661425475,61.2506408788322 52.308088224730454,61.44523403675703 54.85380545677617,61.44523403675703 54.944723929453176,61.57496269348485 54.80834622058319,61.96414811057912 54.80834622058319,62.45062871513073 54.671968511654995,62.58035665746138 54.512861184659414,63.03440372967452 54.87653507501818,63.52088148245821 55.035642402013764,64.0722213685658 54.762886984215584,65.69379961934465 54.762886984215584,66.18027028608776 54.83107583865058,66.69917090190575 54.85380545677617,67.63967450907512" stroke="#4dd2ff" stroke-linecap="round" stroke-linejoin="round" stroke-width="0.5"><title>2022-10-23 6.7km</title></polyline><polyline fill="none" points="114.70606293884339,63.58574508489983 114.88789988408098,64.55869635616546 114.751522175211,65.9532508028642 114.79698141140398,67.250501190254 114.7287925570854,68.22343293199083 114.77425179327838,68.54774236025696 114.70606293884339,68.87205121277657 114.56968523008982,69.13149787983275 114.52422599372221,69.48823644511867 114.5469556118478,70.20171148463851 114.6833333207178,70.8178922295192 114.59241484821541,71.10976659342123 114.43330752116162,71.43407089498942 114.43330752116162,71.82323529641144 114.18328172154725,72.37455011179554 113.59231164987432,73.21773425665742 113.11498966882937,73.57446483812237 112.77404539671261,73.7690448614012 112.09215685236268,73.8339048230846 111.0238647996448,73.8663347952679 110.72837976377923,73.96362467730069 110.50108358229045,74.25549401251192 110.34197625529487,74.83923128298193 110.22832816466689,75.13109921851719 109.93284312874312,75.0986694709718 109.63735809287755,75.16352896027092 109.34187305701198,75.2932478698931 109.06911763927201,75.5202557399316 108.75090298528085,76.07155939213408 108.52360680385027,76.26613675436238 107.97809596837033,76.55800240882672 107.47804436919978,77.01201472175308 107.15982971520862,77.530884554144 107.00072238821303,78.24432816618355 106.86434467934305,78.9253399224981 106.84161506121745,79.28205935249571 106.86434467934305,79.99549612194824 106.54613002535189,80.9035025240737 105.90970071736956,81.1629320953216 105.59148606332019,81.26021808938822 104.52319401060231,81.19536076577788 103.88676470250357,81.00078865644173 103.22760577639565,80.9035025240737 102.84120226796949,80.8710738017835 102.54571723210393,80.93593124060135 102.43206914135953,81.2277894304716 102.34115066879895,81.61693295795703 102.27296181436395,82.62221656528709 102.09112486924278,82.88164369444712 101.84109906957019,83.07621379950433 101.84109906957019,83.69235109753208 101.72745097894222,84.04906121455133 101.63653250638163,85.05433143150003 101.56834365194663,85.34618303847674 101.50015479745343,85.96231267678377 101.02283281646669,86.87028940710297 100.75007739872672,87.0 100.13637770886999,86.64329564780928 99.77270381851122,86.57844023617508 98.43165634811157,86.41630160635395 96.65874613285996,86.05959611391881 95.31769866246032,85.70288992463611 94.29486584593542,85.5407505173207 94.02211042825365,85.47589471407991 93.70389577426249,85.2813271661289 93.36295150208753,85.11918738448003 92.74925181217259,85.02190344640985 92.40830754005583,85.08675941085676 92.38557792187203,85.44346680383023 92.29465944931144,85.76774564723019 91.99917441344587,85.96231267678377 91.68095975945471,85.83260134681768 91.40820434171474,85.57317841026816 90.68085656111361,84.79490738926688 90.45356037968304,84.56791104994772 90.15807534381747,84.4381987292436 89.20343138184398,84.14634567104804 88.20332818344468,83.9842048814753 87.88511352945352,83.95177670633711 87.58962849358795,84.04906121455133 86.99865842191502,83.91934852543636 86.08947369619273,83.78963574398949 85.52123324252898,83.46535338759713 85.2939370610984,83.23835539526772 85.11210011597723,83.01135712084942 84.97572240710724,82.71950178190309 84.93026317079784,82.36278906739608 84.90753355267225,82.07093269178586 84.97572240710724,81.06564604923187 85.11210011597723,80.38464227573422 85.2939370610984,79.76849381596548 85.45304438809399,79.50906226331426 86.02128484169953,79.15234327681537 86.08947369619273,78.79562359330885 85.99855522351572,78.47133236713125 85.99855522351572,78.14704056503251 85.83944789652014,77.92003596085124 85.77125904208515,77.56331386967213 85.90763675095513,76.29856629451388 85.93036636913894,75.35810729017248 86.04401445982512,74.4176434414403 86.11220331426011,73.44474470723071 86.1803921686951,73.15287407605501 86.40768835018389,72.95829339612101 86.45314758637687,72.66642198723275 86.43041796825128,71.62865319939738 86.1803921686951,71.07733613160963 86.2713106412557,68.87205121277657 86.3849587320583,68.54774236025696 86.61225491348887,68.3207258208713 86.88501033117063,68.19100195742794 87.04411765816621,67.89912292746885 86.83955109491944,67.63967450907512 86.63498453161446,67.31536346768553 86.63498453161446,66.60187714872882 86.65771414974006,65.62893676584645 86.56679567717947,65.30462215263105 86.52133644081187,64.98030696339265 86.54406605905388,64.23437984174234 86.68044376780745,63.97492621556739 86.93046956748003,63.74790399016638 87.0668472762336,63.42358603554021 87.0668472762336,62.5154926978139 87.04411765816621,62.19117255405581 87.1577657489106,60.829021658501006 86.99865842191502,59.8560505110072 86.95319918560563,59.207400198545656 86.99865842191502,58.20198765958776 86.95319918560563,57.58576433455164 87.08957689447561,56.02898035357066 87.04411765816621,55.315449925808934 86.83955109491944,55.088416932107066 86.79409185861005,54.796516953909304 87.02138804004062,54.601916709158104 87.36233231215738,54.634350097738206 87.63508772989735,54.40731625696935 87.38506193034118,54.18028213392245 87.0668472762336,54.14784866476839 86.77136224048445,53.95324772855383 86.65771414974006,53.5964788068959 86.81682147673564,53.01267361274222 86.72590300417505,52.363998985281796 86.79409185861005,51.55315245977545 86.86228071304504,47.401561823891825 86.83955109491944,47.077214829361765 86.86228071304504,46.752867258459446 86.90773994923802,46.428519111388596 87.02138804004062,46.10417038794549 87.38506193034118,46.0068656585936 87.63508772989735,45.81225604418432 87.38506193034118,45.617646222322946 87.08957689447561,45.487906225796905 86.99865842191502,45.195990896681906 87.02138804004062,44.54728849393723 86.95319918560563,44.255371660532546 86.88501033117063,43.28231217812572 86.90773994923802,42.99039332187385 86.88501033117063,41.30374190177827 86.72590300417505,40.55771803356765 86.65771414974006,39.941435147236916 86.49860682268627,39.26027795756818 86.36222911381628,38.93591649776499 86.29404025938129,38.61155446153134 86.43041796825128,38.35206441768969 86.45314758637687,38.027701344006346 86.29404025938129,37.670901297358796 86.15766255062772,36.989735635361285 86.13493293238571,36.69780671641638 86.2031217868207,36.34100407038932 86.1803921686951,36.01663742327946 86.11220331426011,35.69227019988466 86.13493293238571,35.01109715462371 86.02128484169953,34.65429121170018 86.2713106412557,34.4596694943757 87.1577657489106,34.58941732895619 87.81692467501853,34.55698037899856 88.74883901898284,34.102862473460846 88.93067596410401,33.90824016831175 90.24899381637806,33.87580309722398 91.29455625102855,33.68118054982915 91.95371517719468,33.616306321302545 92.27192983118584,33.64874343844713 92.590144485177,33.518994935191586 92.86289990297519,33.48655779499677 93.88573271938367,33.48655779499677 94.22667699150043,33.421683497261256 94.522162027366,33.45412064899574 95.79502064344706,33.227060465695104 96.13596491562203,33.194623273651814 96.45417956961319,33.227060465695104 96.72693498729495,33.129748872161144 97.38609391351929,33.06487444759114 98.36346749367658,33.09731166274287 99.36357069195947,33.0 99.70451496407622,33.06487444759114 100.0227296181838,33.227060465695104 100.0454592363094,33.551432069711154 100.0227296181838,33.87580309722398 100.65915892616613,33.746054755334626 100.9091847257223,34.0055513469415 101.00010319828289,34.58941732895619 101.02283281646669,35.33546558841772 101.20466976158787,36.21125748071063 101.29558823414845,37.50871922743681 101.38650670670904,37.83308322326047 101.36377708858345,38.189882952850894 101.50015479745343,39.26027795756818 101.43196594301844,39.61707489773107 101.47742517938605,39.90899914824695 101.45469556114404,40.23335887910798 101.54561403382104,40.55771803356765 101.56834365194663,40.88207661175693 101.54561403382104,41.2713061448012 101.68199174257461,42.56873192785133 101.59107327001402,43.47692448955786 101.68199174257461,43.76884256763151 101.68199174257461,44.125630695867585 101.7501805970096,44.38511253296747 101.72745097894222,45.001380417947075 101.79563983337721,45.585211231853464 101.65926212444901,46.23390994645888 101.68199174257461,46.558258439341444 101.77291021525161,46.882606355968164 101.84109906957019,47.56373510506819 101.90928792400518,47.85564664816775 101.72745097894222,48.861116168263834 101.84109906957019,49.86658015057037 101.90928792400518,51.5207185238105 101.9320175422472,51.87749150219315 101.8865583059378,52.23426378321892 101.97747677849839,53.20727555155463 101.95474716037279,53.855947182688396 102.45479875954334,54.764083594156546 103.02303921309067,55.120850234277896 103.45490195788443,55.63978228421183 103.72765737550799,55.7695150662621 104.04587202949915,55.7695150662621 104.04587202949915,56.09384661790682 104.27316821092973,56.28844527232286 104.5913828650373,56.45061065923073 104.81867904646788,56.64520893343433 105.20508255489403,57.1317037113331 105.27327140927082,57.45603284313984 105.54602682701079,57.812794222612865 105.84151186287636,57.87765985308215 107.04618162452243,57.84522704077244 107.2962074240786,57.71549573376251 107.63715169625357,57.78036139870528 107.93263673206093,57.87765985308215 108.00082558649592,58.169554904903634 107.97809596837033,58.49388219298271 108.02355520473793,58.331718620989705 108.2281217679265,58.13712214436964 108.2735810042941,57.812794222612865 108.56906604015967,57.74792856909335 108.91001031227643,57.78036139870528 109.1600361118326,57.94252546048665 109.45552114769816,58.20198765958776 109.79646541987313,58.72091095174255 110.20559854642488,59.30469789223571 110.63746129121864,59.82361805009714 110.79656861821422,60.08307757592411 111.09205365407979,60.342536732918234 111.68302372581093,60.56956319286837 111.8875902890577,60.829021658501006 112.02396799792768,61.18577644677134 112.27399379748385,61.38036967391963 112.59220845159143,61.38036967391963 112.9104231055826,61.47766620955372 114.6151444662828,61.412801858226885 114.91062950220658,61.51009837666061 114.79698141140398,61.76955550572893 114.751522175211,62.093876398474094 114.79698141140398,62.45062871513073 114.5469556118478,62.71008450751833 114.52422599372221,63.03440372967452 115.00154797476716,63.42358603554021 115.09246644726954,63.97492621556739 115.04700721107656,64.26681151916273 114.81971102964599,64.81814915275027 114.751522175211,65.14246463001473 114.70606293884339,66.14783894861466 114.77425179327838,66.472152063885 114.79698141140398,68.83962035340664 114.59241484821541,69.0990670665633 114.52422599372221,69.74768223667343 114.6378740844084,70.4287256852258 114.7287925570854,70.720600671164 114.6833333207178,71.0124751906551 114.50149637565482,71.33677966495452 114.41057790297782,71.66108356327459 114.43330752116162,71.98538688549888 114.38784828485223,72.30968963177293 113.7741485949955,73.12044397718273 113.34228585025994,73.57446483812237 113.02407119626878,73.70418487663846 112.41037150635384,73.8663347952679 111.41026830807095,73.8987647616741 110.72837976377923,73.8339048230846 110.45562434609747,73.67175487558416 110.36470587342046,73.34745454872609 110.34197625529487,72.99072352380608 110.43289472785546,72.63399180190754 110.66019090934424,72.37455011179554 110.9784055633354,72.24482912852545 112.09215685236268,71.49893168616109 112.38764188822825,71.36921008066565 113.02407119626878,71.33677966495452 113.97871515830047,71.4016404907743 114.29692981229164,71.46650129339832 114.47876675741281,71.69351392141834 114.43330752116162,72.0178171860025 114.11509286717046,72.63399180190754 113.7286893586861,73.21773425665742 113.52412279543933,73.47717474860838 113.27409699588316,73.67175487558416 112.95588234177558,73.8339048230846 112.29672341572586,73.8987647616741 110.9556759452098,73.8339048230846 110.63746129121864,73.67175487558416 110.45562434609747,73.37988460737688 110.36470587342046,73.05558376200497 110.43289472785546,72.73128234068281 110.63746129121864,72.53670121138566 111.52391639881535,72.11510805314174 111.70575334393652,71.82323529641144 111.9785087616765,71.62865319939738 112.25126417935826,71.49893168616109 112.819504633022,71.33677966495452 113.11498966882937,71.30434924348083 114.11509286717046,71.4016404907743 114.38784828485223,71.49893168616109 114.45603713928722,71.82323529641144 114.36511866672663,72.11510805314174 113.88779668573989,72.95829339612101 113.7059597405605,73.1853041692957 113.27409699588316,73.63932486884005 112.66039730591001,73.8987647616741 112.31945303379325,73.9311947223905 111.27389059920097,73.9311947223905 110.93294632708421,73.8987647616741 110.61473167309305,73.7690448614012 110.38743549166247,73.57446483812237 110.34197625529487,73.21773425665742 110.45562434609747,72.86100297830126 110.61473167309305,72.60156161079067 110.88748709077481,72.34211987465096 111.20570174476597,72.24482912852545 111.95577914349269,71.62865319939738 112.25126417935826,71.43407089498942 113.27409699588316,71.23948838317301 113.88779668573989,71.33677966495452 114.22874095785664,71.43407089498942 114.36511866672663,71.7908049612306 114.43330752116162,72.11510805314174 114.34238904865924,72.40698034327943 113.8196078313049,73.3150244843273 113.56958203169052,73.50960478413617 113.25136737769935,73.70418487663846 112.20580494304886,73.96362467730069 111.22843136294978,74.02848456996435 110.88748709077481,73.99605462652107 110.56927243678365,73.8987647616741 110.31924663722748,73.63932486884005 110.22832816466689,72.95829339612101 110.36470587342046,72.63399180190754 110.77383900008863,72.11510805314174 111.43299792619655,71.7908049612306 111.77394219837151,71.53136207308853 112.09215685236268,71.36921008066565 112.8422342511476,71.33677966495452 113.43320432287874,71.27191881627368 114.43330752116162,71.46650129339832 114.6378740844084,71.23948838317301 114.70606293884339,70.91518373598228 114.6833333207178,70.52601739905367 114.52422599372221,69.52066718926653" stroke="#4dd2ff" stroke-linecap="round" stroke-linejoin="round" stroke-width="0.5"><title>2022-10-23 7.8km</title></polyline><polyline fill="none" points="159.93585446313955,33.0 159.74341785279103,36.020488410722464 159.87170892651193,37.118843442673096 159.87170892651193,38.94942995902966 159.99999999976717,40.230836650473066 159.93585446313955,41.14612519310322 159.80756338941865,41.420711439073784 159.6792723161634,42.244469298253534 159.99999999976717,46.63782230397919 159.99999999976717,48.01073743554298 160.1924366101157,48.83448475878686 160.2565821467433,49.749758017394925 160.06414553686045,51.58029965707101 160.12829107348807,52.7701482354023 159.99999999976717,53.13625493753352 160.2565821467433,54.417626345995814 160.1924366101157,56.52272959900438 161.4753473456949,58.078669954004 160.96218305150978,60.64138500139234 160.89803751464933,61.83121265502996 160.96218305150978,62.5634129223472 159.99999999976717,66.865068479412 160.06414553686045,68.51250152225839 158.90952587476932,73.18019987310981 158.97367141162977,73.91238401280134 158.65294372756034,78.39698916708585 158.33221604395658,79.12916589397355 157.94734282325953,80.5935162261303 156.4719954773318,82.79003392189043 155.89468564628623,83.52220440647216 154.41933830059133,84.5289371238905 153.5854463223368,84.80350025079679 149.73671411629766,85.07806323139812 148.389657843858,84.89502126048319 147.1067471082788,83.79676806979114 147.74820247618482,81.14264652796555 151.40449807210825,78.58003344628378 154.4834838374518,77.664811399678 155.95883118291385,77.664811399678 157.5624696025625,78.03090041340329 158.46050711721182,79.95286346782814 157.113450845005,82.42394828947727 155.57395796268247,84.07133158715442 154.03446508012712,84.80350025079679 151.46864360920154,85.16958419262664 149.67256857920438,85.26110513749882 148.77453106455505,85.07806323139812 147.49162032897584,84.5289371238905 147.04260157165118,81.87481935342657 147.94063908653334,80.86808145034593 150.89133377815597,79.12916589397355 151.46864360920154,78.48851131487754 152.5591177341994,77.847855939297 154.2269016902428,77.7563336773892 157.43417852884158,78.21394482278265 158.52465265407227,79.861341580312 158.07563389651477,80.50199445238104 156.72857762430795,82.79003392189043 154.9966481316369,84.4374160488951 153.0722820283845,84.89502126048319 150.76304270443507,85.16958419262664 149.67256857920438,85.16958419262664 147.94063908653334,84.5289371238905 147.04260157165118,83.33916188287549 147.49162032897584,81.60025466588559 147.94063908653334,81.05112485183054 150.76304270443507,79.22068791161291 153.52130078570917,77.847855939297 154.74006598442793,77.7563336773892 157.17759638186544,78.03090041340329 158.3963615805842,79.49525386706227 157.3058874553535,81.69177624466829 156.4719954773318,82.97307664059917 154.5476293740794,84.3458949578926 153.77788293268532,84.62045818252955 151.7893712928053,84.98654225413338 149.4801319690887,84.98654225413338 148.0689301600214,84.80350025079679 146.97845603502356,82.69851253836532 148.77453106455505,80.41047266242094 149.35184089560062,80.13590719440253 151.34035253548063,78.67155556153739 153.5854463223368,77.847855939297 154.9966481316369,77.847855939297 157.04930530837737,78.03090041340329 158.2680705068633,78.39698916708585 158.7170892644208,79.22068791161291 158.2680705068633,80.04438533913344 156.98515977151692,82.24090537600568 156.15126779326238,83.43068315289565 155.5098124255892,84.07133158715442 154.29104722710326,84.71197922478314 150.44231502059847,85.35262606589822 149.09525874862447,84.98654225413338 147.74820247618482,84.4374160488951 146.97845603502356,83.61372564375051 146.85016496130265,82.42394828947727 147.29918371862732,81.50873307077563 148.90282213827595,79.58677581962547 149.35184089560062,79.49525386706227 151.40449807210825,78.48851131487754 153.32886417536065,77.7563336773892 157.3058874553535,77.93937818452832 158.3963615805842,79.31220991315786 157.5624696025625,81.41721145936754 157.43417852884158,82.332426840876 159.35854463209398,82.24090537600568 161.28291073534638,82.332426840876 163.20727683836594,82.24090537600568 168.7879385377746,80.77655972517096 170.77645017765462,80.68503798393067 172.1876519867219,80.68503798393067 173.21398057509214,81.78329780703643 172.82910735462792,82.51546972212964 171.8669243028853,83.52220440647216 170.712304641027,84.07133158715442 169.49353944207542,84.25437385038822 168.40306531707756,84.16285272687674 165.51651616231538,84.5289371238905 162.75825808104128,85.07806323139812 155.57395796268247,85.90175129589625 152.17424451350234,86.54239665772184 149.28769535874017,86.72543804318411 147.81234801304527,87.0 147.2350381819997,86.17631369130686 147.74820247618482,85.62718875388964 147.8764935496729,84.62045818252955 147.1067471082788,83.79676806979114 146.85016496130265,82.88155528955394 146.91431049793027,82.42394828947727 147.8764935496729,80.41047266242094 149.41598643222824,79.67829775618156 149.73671411629766,79.40373189823003 153.0722820283845,77.7563336773892 155.25323027861305,77.57328910575598 157.49832406570204,77.847855939297 158.13977943360806,78.21394482278265 158.2680705068633,78.58003344628378 158.2680705068633,79.49525386706227 156.72857762430795,82.97307664059917 155.766394573031,83.97981043116306 155.06079366826452,84.4374160488951 154.03446508012712,84.80350025079679 152.43082666071132,85.07806323139812 149.92915072641335,85.16958419262664 147.1067471082788,84.16285272687674 146.78601942467503,82.42394828947727 147.17089264537208,81.14264652796555 152.04595344001427,78.3054670028796 154.03446508012712,77.93937818452832 157.04930530837737,78.03090041340329 158.3963615805842,79.58677581962547 157.04930530837737,82.05786239696317 155.38152135233395,83.79676806979114 154.61177491093986,84.16285272687674 152.36668112385087,84.98654225413338 150.9554793147836,85.07806323139812 148.32551230723038,84.71197922478314 147.2350381819997,84.07133158715442 146.78601942467503,82.79003392189043 147.29918371862732,81.05112485183054 148.32551230723038,80.3189508561045 151.9176623665262,78.21394482278265 153.0722820283845,78.03090041340329 154.80421152128838,77.7563336773892 157.5624696025625,78.03090041340329 158.52465265407227,79.22068791161291 156.85686869802885,82.42394828947727 156.3437044036109,83.06459797543357 155.44566688896157,83.97981043116306 154.35519276373088,84.5289371238905 153.0081364917569,84.98654225413338 151.53278914582916,85.07806323139812 149.28769535874017,85.16958419262664 148.5179489175789,85.07806323139812 146.97845603502356,83.97981043116306 146.91431049793027,82.42394828947727 147.04260157165118,81.69177624466829 147.81234801304527,80.77655972517096 148.32551230723038,80.3189508561045 152.11009897687472,78.21394482278265 154.74006598442793,77.664811399678 157.69076067605056,77.93937818452832 158.33221604395658,79.76981967652682 157.24174191849306,81.78329780703643 156.60028655081987,82.69851253836532 155.7022490359377,83.52220440647216 154.61177491093986,84.3458949578926 153.32886417536065,84.89502126048319 151.85351682966575,85.07806323139812 150.44231502059847,85.07806323139812 147.04260157165118,83.97981043116306 146.85016496130265,82.332426840876 147.2350381819997,81.23416818800615 148.0689301600214,80.3189508561045 150.69889716780744,79.22068791161291 151.85351682966575,78.39698916708585 152.81569988140836,78.03090041340329 154.35519276373088,77.664811399678 155.6381034993101,77.57328910575598 156.98515977151692,77.847855939297 159.2302535586059,77.57328910575598 159.5509812424425,76.20045274394215 159.35854463209398,75.37674917126424 159.93585446313955,71.4412583708181 160.38487322046421,69.4277398257691 160.2565821467433,65.49220358615275 160.64145536744036,64.11933503567707 160.57730983081274,62.38036295311758 160.64145536744036,61.46511213114718 160.83389197778888,60.54985968355322 160.83389197778888,59.2685035255563 160.64145536744036,58.71934991082526 160.57730983081274,57.987144180893665 160.70560090453364,57.52951507107355 160.76974644116126,55.60746837200713 160.51316429418512,54.05152055437793 160.76974644116126,52.03793405077886 160.76974644116126,51.305718825838994 160.44901875709184,50.024339678057004 160.38487322046421,49.109066907083616 160.44901875709184,47.64462709170766" stroke="#4dd2ff" stroke-linecap="round" stroke-linejoin="round" stroke-width="0.5"><title>2021-06-24 5.0km</title></polyline><polyline fill="none" points="13.972067039227113,144.15824439258722 14.00558659224771,143.53640408237698 13.972067039227113,143.0580644048896 13.871508379932493,142.57972387727932 13.871508379932493,141.5752060029481 13.603351955418475,140.5706843801745 13.770949720754288,139.66182825360738 13.737430167733692,139.2313163857616 13.536312849260867,138.32245573720138 13.268156424746849,137.8919417274592 13.167597765452228,136.5047252348595 13.033519553020597,136.07420831795025 13.0,135.1175015934714 13.167597765452228,134.68698245809355 13.603351955418475,134.5434759268246 15.0446927373996,134.44780486324453 15.54748603363987,134.30429820434074 15.815642458153889,133.87377776851645 15.94972067035269,132.96489903178008 15.74860335199628,132.5343764537247 15.44692737434525,132.19952508376446 15.480446927365847,131.6733292323479 15.346368715167046,131.2906406942202 15.078212290536612,130.86011543862696 14.944134078221396,130.38175323605537 15.078212290536612,129.2815169437672 14.977653631358407,128.2291128042707 15.011173184379004,127.27237819808943 14.977653631358407,126.74617271509487 14.877094972180203,126.31564019146026 14.977653631358407,124.78485230784281 15.0446927373996,124.35431664714997 14.810055865906179,123.39756826915254 14.810055865906179,122.39297881245147 14.675977653707378,121.9146015628794 14.508379888371564,120.95784451358486 14.642458100686781,120.47946471360046 14.709497206727974,119.9054078313784 14.541899441392161,118.9486436406005 14.541899441392161,118.03971450969402 14.675977653707378,116.98726641814574 14.60893854754977,116.41320208852994 14.642458100686781,113.92557584587485 14.541899441392161,113.49502281605965 14.642458100686781,111.82064337622433 14.743016759864986,111.34224733751034 14.743016759864986,110.28977305945591 14.675977653707378,108.23265236086445 14.40782122919336,107.37152740037709 14.508379888371564,106.94096388723119 14.575418994412757,105.55358788149897 14.642458100686781,105.12302146025468 14.40782122919336,103.63995407054608 14.374301675939932,102.15687850948598 14.206703910720535,100.48242853823467 14.642458100686781,100.24322054930963 15.078212290536612,100.19537892594235 16.58659217879176,100.19537892594235 18.128491620183922,100.05185400486516 18.56424581015017,100.14753729407676 19.06703910615761,99.95617068180582 19.569832402281463,100.00401234760648 21.547486033523455,100.53027011059748 22.55307262565475,100.57811167452019 24.430167597834952,100.96084387869632 26.374301675939932,101.15220977678837 30.16201117320452,101.20005123011651 32.60893854754977,101.67846529488452 35.759776536375284,101.91767200840695 38.307262569782324,102.10903722621151 38.77653631288558,101.91767200840695 41.960893854731694,101.91767200840695 46.553072625771165,102.10903722621151 47.960893854731694,102.3004023078538 49.36871508380864,102.25256105021981 50.47486033523455,102.06119593445328 53.52513966488186,102.15687850948598 55.40223463694565,102.06119593445328 56.30726256989874,101.96551332555828 59.25698324025143,101.96551332555828 59.75977653625887,101.86983068275731 60.16201117320452,101.63062392656866 60.63128491619136,101.53494116474758 62.67597765359096,101.43925836865674 63.17877094971482,101.29573411097226 64.62011173192877,101.43925836865674 65.62569832406007,101.63062392656866 66.1284916200675,101.82198934846383 66.53072625701316,102.10903722621151 67.0,102.25256105021981 66.73184357536957,101.91767200840695 66.36312849156093,101.63062392656866 66.46368715085555,101.15220977678837 66.0614525139099,100.86516087860218 64.65363128494937,100.19537892594235 64.21787709498312,100.09969565380015 63.849162011174485,99.81264563319564 63.41340782120824,99.62127878285537 61.56983240228146,99.76480393340171 60.69832402234897,99.42991179630917 60.32960893854033,99.19070287179784 59.86033519555349,99.04717741513741 59.18994413409382,98.42523288496886 58.9553072626004,98.0424970752938 58.754189944127575,97.56407654765644 58.51955307263415,96.1766522089165 58.18435754184611,95.84175560741278 55.83798882679548,96.22449454662274 53.12290502793621,96.9899707921868 52.15083798894193,97.03781298529066 50.77653631276917,96.65507520262327 49.905027933069505,96.1288098628429 49.46927374310326,95.98528277334117 48.93296089384239,95.98528277334117 47.55865921790246,95.9374403932452 46.553072625771165,96.08096750825644 44.67597765359096,96.08096750825644 39.78212290513329,96.36802150844596 39.41340782120824,96.65507520262327 39.17877094971482,97.08565516979434 39.17877094971482,97.5162344481796 39.312849162030034,98.4730748229631" stroke="#4dd2ff" stroke-linecap="round" stroke-linejoin="round" stroke-width="0.5"><title>2021-04-25 5.4km</title></polyline><polyline fill="none" points="108.72500694449991,145.99666628966224 108.68105224962346,146.278854472097 108.39534673257731,146.40427129720047 106.7910003674333,146.12208331523289 106.50529485032894,146.24750025183312 106.17563463834813,146.278854472097 105.25258604466217,146.21614602602494 104.96688052761601,146.24750025183312 104.32953745103441,146.05937481370347 102.54937230620999,145.683123335868 100.65932042407803,145.96531201935431 100.0,145.74583197110042 99.95604530506535,145.43228857193026 100.02197734743822,144.46030049536785 99.71429448295385,144.4289459522115 99.09892875381047,144.39759140342358 98.13192546524806,144.1467548130604 97.86819729569834,143.95862713643874 97.53853708365932,143.4569523518294 97.42865034635179,143.1434048876108 97.25283156655496,142.86121169361286 96.96712604956701,142.6730826471321 94.81334599771071,142.3281788744789 94.76939130277606,142.64172778649663 94.81334599771071,142.92392133134126 94.74741395527963,143.26882394007407 94.571595175541,143.51966177785653 93.97820679395227,143.77049925924803 93.3628410649253,143.92727250405005 92.70352064090548,143.98998176310852 92.43979247123934,144.1467548130604 92.28595103899715,144.83655457917484 91.97826817445457,145.77718628045113 91.91233613202348,146.05937481370347 91.89035878458526,146.3415628956427 92.0002455218928,146.655104680176 91.73651735222666,146.78052123809175 91.5167438776698,147.0 91.27499305544188,146.81187536368088 91.7584946997813,145.58906034108077 92.11013225925853,144.36623684914957 92.37386042880826,143.80185391934356 92.59363390348153,143.55101648258278 92.90131676802412,143.51966177785653 94.17600292118732,143.64508056301565 94.4836857857299,143.55101648258278 94.65950456541032,143.33153343304002 94.79136865027249,142.98663094661606 94.74741395527963,142.70443750217964 94.59357252303744,142.39088870145497 94.3957763958606,142.17140420955548 94.0880935312598,141.98327442801383 93.86832005658653,141.7637894294603 93.67052392940968,141.54430415794195 93.5166824971675,141.23075329695712 93.42877310723998,140.94855704576185 93.38481841236353,139.9765442837961 93.42877310723998,139.69434602782712 93.6045918870368,139.03588167656562 93.89029740408296,138.12656972542754 94.35182170086773,137.71894560630608 94.54961782810278,137.4994553061988 94.50566313316813,136.90369454461324 94.19798026862554,136.33928775790264 94.35182170086773,135.74352308119705 94.30786700593308,135.39860577046056 94.43973109073704,134.42656245104445 94.571595175541,132.26296294477652 94.65950456541032,131.98075235863507 94.81334599771071,131.6671845117089 94.76939130277606,131.07140406785766 94.85730069264537,130.44426458638918 94.70345926040318,130.16205109281873 94.63752721797209,129.2213361895847 94.7254366078414,128.90776344103506 94.7254366078414,127.68482440031948 95.09905151475687,127.15174575681158 95.38475703186123,127.12038813946128 95.45068907429231,126.8068116591312 95.23091559961904,126.61866550365812 95.05509681988042,126.33644589426694 94.98916477744933,125.45842644677032 94.98916477744933,124.83126702479785 94.87927804008359,123.85916551748232 94.90125538752181,123.5455832441221 94.9671874299529,123.23200041381642 95.34080233686836,122.79298351552279 95.49464376916876,122.51075779007806 95.53859846410342,122.19717312142893 95.49464376916876,121.60136071643501 95.56057581154164,120.31565341164242 95.362779684423,118.46547280786035 95.362779684423,118.18324016372208 95.29684764199192,117.24246142384072 95.38475703186123,116.58391332278552 95.38475703186123,114.95321221301856 95.34080233686836,114.63961411864148 95.14300620974973,114.38873524201335 95.25289294705726,114.10649607962114 95.58255315909628,113.98105630712234 95.86825867620064,113.98105630712234 96.04407745588105,113.69881649290619 95.42871172685409,113.51065636602289 95.18696090462618,113.32249603858509 95.09905151475687,113.00889504721272 95.18696090462618,112.69529349860386 95.14300620974973,112.06808873011323 95.18696090462618,111.78584585721546 95.16498355718795,111.47224213586014 95.2748702945537,110.87639353028499 95.31882498943014,109.9355758473248 95.31882498943014,109.62196883870638 95.20893825218081,108.9947531499347 95.25289294705726,108.36753523242078 95.20893825218081,108.02256442782527 95.12102886219509,107.70895402035967 95.18696090462618,107.3953430558031 95.12102886219509,107.08173153405369 95.14300620974973,106.45450681891816 95.31882498943014,105.89000266963558 95.53859846410342,105.70183421870752 95.86825867620064,105.60774991799553 95.80232663376955,105.29413522023242 95.51662111666519,105.262773719689 95.31882498943014,105.04324306068884 95.20893825218081,104.7609889551095 95.2748702945537,103.82013867652859 95.25289294705726,101.27981787431054 95.01114212494576,100.0566874115757 94.7254366078414,99.2098998183501 94.571595175541,98.89627375283453 94.61554987053387,98.614009817451 94.81334599771071,98.36310816268087 94.87927804008359,98.08084337456967 94.74741395527963,97.76721530297073 94.59357252303744,97.1085945385712 94.571595175541,96.44997131648415 94.52764048060635,96.13634034700226 94.43973109073704,94.91317424077715 94.7254366078414,94.75635746031185 95.69243989640381,94.69363070916734 96.57153379509691,94.5368137335463 96.57153379509691,94.22317936451873 96.70339787990088,93.94090795583907 97.03305809188168,93.94090795583907 97.62644647347042,93.75272676590248 98.26378955005202,93.72136321471771 98.57147241459461,93.78409031145566 99.18683814373799,93.68999965800322 99.47254366084235,93.72136321471771 100.65932042407803,93.62727252791228 102.57134965370642,93.31363654250163 103.1207833403605,93.34500016612583 103.42846620490309,93.28227291333314 103.6702170270728,93.12545468384633 104.32953745103441,93.0 106.50529485032894,93.15681834088173 107.1206605793559,93.06272735304083 107.45032079145312,93.09409102119389 107.7580036559375,93.21954563834879 108.02173182560364,93.43909100358724 107.9118450882379,93.72136321471771 106.70309097756399,94.06636197101034 106.35145341808675,94.12908894497377 105.7580650364398,94.12908894497377 105.1207219598582,94.28590628292295 104.85699379030848,94.44272348139202 104.81303909531562,94.75635746031185 104.92292583273957,96.07361408618453 104.8789711377467,96.73223871260416 104.92292583273957,98.01811780489516 104.94490318017779,98.33174543069617 104.92292583273957,98.95899901053053 104.98885787505424,99.24126239422185 104.94490318017779,99.55488784666522 104.98885787505424,99.86851274191577 104.96688052761601,100.18213707982795 105.01083522255067,100.49576086056186 104.94490318017779,101.09164450869139 104.96688052761601,101.46799103931698 105.09874461241998,102.65974975959398 105.09874461241998,103.00473104526463 105.18665400228929,104.07103257450217 105.09874461241998,104.35328778346593 105.25258604466217,104.98051996516006 105.40642747696256,105.29413522023242 105.38445012952434,105.60774991799553 105.2745633921586,106.17225496987521 105.2745633921586,106.51722939062165 105.23060869722394,106.83084191540547 105.25258604466217,107.17581504907866 105.20863134972751,107.4580652933073 105.25258604466217,108.36753523242078 105.31851808709325,108.68114446972322 105.31851808709325,108.9947531499347 105.47235951939365,109.62196883870638 105.29654073965503,109.90421517154027 105.2745633921586,110.18646105300286 105.42840482440079,110.4373459022172 105.49433686683187,111.40952132472012 105.49433686683187,112.03672843324603 105.45038217189722,112.63257312204223 105.5163142143283,113.54201640107203" stroke="#4dd2ff" stroke-linecap="round" stroke-linejoin="round" stroke-width="0.5"><title>2021-04-11 9.4km</title></polyline><polyline fill="none" points="173.05490147817181,113.82387358650158 172.6404601613758,113.9172486110765 172.24783154553734,113.9172486110765 171.87701563053997,113.82387358650158 171.5061997155426,113.85499860018899 171.00450759526575,113.66824843491486 170.7863805864472,113.82387358650158 170.17562496173196,113.88612360843399 165.72583398170536,113.79274856718257 162.12673833611188,113.85499860018899 161.95223672897555,113.69937347623636 161.93042402813444,112.70336940935522 162.0176748316735,111.58285806581262 161.97404942987487,111.08485072378244 161.7559224209981,110.9603486671549 160.66528737690533,111.1471017190197 159.74915393989068,111.20935269199254 159.00752210989594,111.1782272082637 157.9823251683847,111.24047817019164 157.52425844990648,111.02259970649902 157.50244574894896,110.64909313834505 157.52425844990648,110.24446012418775 157.45882034726674,109.49744287366048 157.50244574894896,109.27956224225636 157.48063304810785,108.59479277937498 157.4370076463092,108.22128103527939 157.34975684277015,107.84776849468471 157.2843187401304,107.31862436572555 157.19706793659134,106.04244665593433 157.17525523575023,104.17485276289517 157.10981713311048,104.11259929013613 157.04437903047074,103.49006334690785 157.10981713311048,103.20992145068885 157.08800443226937,103.05428687037784 157.1316298339516,102.77414427735494 157.19706793659134,102.64963631439605 157.17525523575023,102.4006201231532 157.2843187401304,102.15160357784771 157.2625060392893,101.90258667865419 157.17525523575023,101.7469509368093 157.1316298339516,100.96877015399514 157.02256632957142,100.62636951453169 156.97894092777278,100.09720357345941 157.02256632957142,99.72367371147266 157.80782356130658,99.28788786595396 157.93869976658607,98.9143562784011 157.91688706574496,98.3851851659274 157.45882034726674,97.88714030580013 157.24069333838997,97.94939599078498 156.89169012429193,97.5447336431389 156.91350282513304,96.70427808820386 156.8698774233926,96.08171581823262 156.82625202159397,95.67704915636568 156.8480647224933,94.80545624802471 156.97894092777278,94.43191510270117 157.30613144108793,94.27627272372774 157.61150925338734,94.214015733407 158.2440775789437,94.18288722992293 158.61489349394105,94.08950168637966 159.05114751157816,94.08950168637966 159.77096664073179,93.62257322197547 159.83640474337153,93.4046728459798 159.70552853809204,93.21790087937552 159.18202371691586,93.0 158.06957597192377,93.12451482133474 157.34975684277015,93.06225742169772 157.0007536286721,93.12451482133474 156.56449961097678,93.46693012383184 156.5863123119343,94.52530046366155 156.5863123119343,96.57976581116964 156.76081391895423,98.9143562784011 156.80443932075286,100.28396820568014 156.2809344995767,100.75087891537987 154.9285470448085,100.59524215052079 153.44528338487726,100.56411478083464 153.0744674698799,100.62636951453169 152.48552454600576,100.56411478083464 151.4167022027541,100.56411478083464 150.52238146658055,100.50186002512055 149.01730510569178,100.47073263891798 147.62129224918317,100.37735044723377 147.33772713772487,100.37735044723377 147.07597472716589,100.62636951453169 147.18503823154606,101.21778838062892 147.20685093238717,101.77807809629303 147.2504763341858,102.15160357784771 147.18503823154606,102.3383660200052 147.20685093238717,102.89865215189639 147.16322553070495,103.24104835024627 147.14141282980563,104.51724646697403 147.18503823154606,105.04639905712975 147.6649176509818,105.26428495334403 147.7957938562031,105.26428495334403 148.03573356597917,105.13977876013087 148.3411113783368,105.48217057839793 148.0793589677196,105.60667652834672 147.44679064216325,105.57555004913593 147.05416202620836,106.01132025419793 147.05416202620836,106.66497352939041 147.07597472716589,107.2874981907662 147.16322553070495,108.22128103527939 147.16322553070495,109.74644897773396 147.097787428007,110.6802187160647 147.01053662452614,111.24047817019164 147.01053662452614,112.14311463330523 146.92328582098708,112.67224419098056 147.097787428007,113.17024702069466 147.55585414654342,113.35699771689542 147.70854305272223,113.79274856718257 147.512228744803,113.79274856718257 147.18503823154606,114.3529980679159 147.33772713772487,114.63312214644975 147.2286636333447,115.7536139817239 147.18503823154606,118.36806706307107 147.35953983856598,119.83089878944156 147.33772713772487,121.16922350005188 147.27228903508512,122.07180881185923 146.74878421390895,123.1611297201307 146.79240961570758,123.59685618705407 146.92328582098708,124.59279832814354 146.90147312008776,125.89996379699733 147.18503823154606,126.46017458412098 146.8360350173898,127.05150624939415 146.70515881216852,127.20711951388512 146.5524699059315,127.64283591903222 146.59609530773014,128.20304113344173 146.5524699059315,129.72803514296538 146.74878421390895,130.13262316255714 146.63972070952877,133.02695636315912 146.66153341036988,133.27592902891047 146.8360350173898,133.46265829606273 146.90147312008776,133.7116303426592 146.92328582098708,134.33405891149596 146.74878421390895,136.13908925764554 146.44340640155133,136.5747834520007 146.33434289711295,136.8237510765175 146.42159370071022,137.01047656284936 146.24709209357388,137.50841022013628 145.7017745715566,137.94410100960522 145.33095865655923,139.25116687771515 145.2873332547606,140.43374188095913 145.3091459556017,140.80718496069312 145.39639675919898,141.1183869192173 145.61452376801753,141.42958832497243 145.89808887953404,141.64742898014083 146.33434289711295,141.9275094246841 146.57428260688903,142.20758942136308 146.63972070952877,142.36318922619103 146.59609530773014,142.8922275288205 146.18165399093414,143.17230598369497 145.91990158037515,143.26566536900646 145.78902537509566,143.39014447231602 145.5708983662189,143.35902470478322 145.37458405829966,143.45238399071968 145.48364756273804,143.63910241346457 146.02896508475533,144.01253866193292 146.48703180334996,144.1992564877728 146.63972070952877,144.38597411458613 146.8360350173898,144.54157198501343 147.18503823154606,144.7282892470539 147.49041604390368,144.7282892470539 147.70854305272223,145.03948424189002 148.38473678013543,145.7241112847114 151.26401329657529,146.96888087352272 151.59120380977402,147.0 151.65664191241376,146.28425869399507 151.63482921157265,145.9108272867452 151.65664191241376,145.41291750587698 151.8529562203912,144.94612580147805 151.91839432308916,144.47933285344334 152.37646104156738,144.0436583134142 152.70365155488253,144.2926153260487 153.29259447869845,144.60381109449372 154.5141057280125,144.82164780356106 155.27755025896477,145.00836476717086 156.19368369597942,145.10172317443357 157.2843187401304,145.31955926449155 158.2658902799012,145.47515630595444 158.85483320371713,145.69299193179177 159.90184284606948,145.94194660104404 160.57803657336626,145.66187257329875 160.64347467606422,145.25732040933508 160.88341438572388,144.4170936998271 160.99247789016226,144.1992564877728 161.14516679634107,143.70134184346534 161.1887921981397,143.2967851531721 161.47235730965622,141.80302928230958 161.49417001049733,141.46070843510097 161.64685891667614,140.58934326090093 161.58142081397818,140.46486216808262 161.62504621577682,139.65573290859174 161.95223672897555,138.84659991278022 161.97404942987487,137.9129802747484 161.99586213077419,137.78849728054774 162.21398913965095,137.4461685903516 162.3012399431318,137.41504776722286 162.2794272422907,137.25944356834225 162.25761454133317,137.25944356834225 162.36667804577155,137.13496010983363 162.5848050545901,136.79263014283788 162.51936695195036,136.23245239045355 162.65024315728806,135.36106121620105 162.5848050545901,134.95648526927107 162.47574155015172,134.55190838822455 161.53779541217955,134.05396632905467 161.71229701931588,133.86723769211676 161.7559224209981,133.27592902891047 161.8649859254947,133.02695636315912 161.97404942987487,132.93359152223275 161.69048431847477,131.56423480730155 161.79954782279674,131.43974730251648 161.84317322465358,131.4708691869455 161.9086113271769,131.4086254125432 162.06130023347214,130.4438440803351 162.0394875325146,129.88364603021182 162.51936695195036,129.0122232811991 163.45731308992254,129.16783480430604 163.80631630396238,129.26120165169414 164.41707192873582,129.32344618914067 166.24933880288154,129.32344618914067 166.53290391433984,129.35456844947475 167.10003413731465,129.44793519745872 167.27453574433457,129.57242411738844 167.38359924871475,129.38569070439553 167.40541194967227,128.79436691677256 167.71078976197168,128.5142654787196 167.81985326635186,128.32753093798237 168.4306088911253,127.89181623543845 171.02632029610686,127.92293875016912 172.57502205873607,127.86069371527992 173.53478089766577,127.89181623543845 173.81834600906586,127.79844865816995 174.18916192406323,127.76732612140768 174.38547623204067,127.611713354534 174.2982254285016,127.36273264000192 174.23278732586186,126.52242011645285 174.03647301788442,125.40199714932533 174.0146603170433,125.12189028794819 174.03647301788442,124.84178297891049 174.25460002670297,123.97033515338262 174.2764127276605,123.34786976725445 174.40728893288178,122.53866145900975 174.45091433468042,121.72944941336755 174.4291016338393,121.3559656702273 174.5599778391188,119.79977483736002 174.7126667452976,118.9905501415924 174.69085404434009,118.30581863349653 174.60360324085923,117.77670608986227 174.62541594170034,116.96747205000429 174.51635243732017,116.40723090962274 174.5599778391188,116.00261119412608 174.62541594170034,115.81586331802828 174.5817905399599,114.97549541197077 174.66904134349898,114.69537188093818 174.62541594170034,114.41524790186668 174.36366353114136,114.1973733863415 174.21097462496255,114.16624843343743 174.0146603170433,113.88612360843399 173.97103491524467,114.10399851104012 173.94922221434535,114.04174856649479 174.21097462496255,113.17024702069466" stroke="#4dd2ff" stroke-linecap="round" stroke-linejoin="round" stroke-width="0.5"><title>2019-10-19 6.2km</title></polyline><polyline fill="none" points="48.153224885696545,153.0 48.153224885696545,153.4328847626457 48.30491279042326,153.5411059051985 47.5464732660912,156.35484886646736 47.69816117105074,156.89595179230673 47.69816117105074,157.65349508076906 47.622317218687385,161.1165381175233 47.394785361364484,163.06449117453303 47.394785361364484,164.5795614683302 47.7740051234141,166.2028468872304 47.394785361364484,169.1247497414588 48.30491279042326,172.58772756980034 48.38075674301945,175.29316530091455 48.001536980737,177.2410730284173 47.5464732660912,177.99859101767652 47.01556559908204,180.27113933529472 47.394785361364484,181.24508601933485 47.24309745640494,182.76011109893443 47.69816117105074,184.16691672831075 48.153224885696545,185.0326416544267 47.69816117105074,186.22301141987555 46.10543817025609,189.03660343663068 46.40881397994235,190.8762527295621 46.40881397994235,192.39125385857187 46.560501884669065,192.71589646773646 46.93972164671868,192.82411063241307 46.863877694588155,193.36518116673687 46.93972164671868,196.3951672789408 46.788033741759136,196.82802120759152 45.72621840797365,198.23479435173795 45.72621840797365,199.3169253290398 45.19531074096449,200.2908415654092 44.133495407179,201.37296889105346 43.147524025524035,202.77973154076608 38.672730832360685,205.3768232827424 34.57715740147978,205.1603993937024 32.68105859099887,203.42900551424827 32.68105859099887,200.61547996505396 33.439498115330935,199.9662029929459 35.48728483077139,199.3169253290398 38.74857478495687,196.93623464164557 41.327269167406484,196.61159428139217 44.3610272645019,196.71980775386328 45.72621840797365,198.1265811480116 45.65037445561029,199.3169253290398 44.28518331190571,201.15654357965104 43.83011959749274,202.34688184055267 41.858176834415644,204.51112726563588 37.68675945117138,205.1603993937024 34.4254694969859,204.72755138535285 32.83274649572559,203.7536422413541 32.074306971393526,202.88794391753618 32.30183882871643,202.34688184055267 32.75690254336223,200.2908415654092 34.34962554415688,198.99228623771342 36.24572435510345,198.66764697333565 39.05195059464313,197.4773015238461 40.568829643307254,197.26087482855655 41.63064497709274,197.26087482855655 44.209339359542355,196.71980775386328 45.42284259828739,199.64156424743123 43.37505588284694,203.10436861391645 41.554801024729386,204.18649094214197 37.8384473558981,205.1603993937024 35.10806506848894,204.83576341642765 34.57715740147978,204.9439754280611 32.074306971393526,204.29470306902658 31.619243257213384,203.21258093306096 32.074306971393526,200.9401181914145 33.28781021037139,199.53335129393963 34.197937639662996,198.8840731686214 37.15585178392939,197.1526614521863 39.203638499369845,196.61159428139217 41.25142521504313,196.61159428139217 43.45089983521029,196.93623464164557 45.802062360337004,199.3169253290398 44.967778883641586,200.50726718455553 44.740247026318684,201.26475624501472 44.3610272645019,201.91403183317743 43.45089983521029,202.99615627515595 42.31324054906145,204.07827879593242 41.09973731008358,204.6193393349531 38.5210429278668,205.3768232827424 34.57715740147978,205.1603993937024 32.83274649572559,204.40291517681908 32.150150924222544,203.21258093306096 32.150150924222544,201.48118151770905 36.01819249778055,198.23479435173795 37.30753968888894,197.36908818560187 41.554801024729386,196.71980775386328 44.5885591218248,196.71980775386328 45.72621840797365,198.8840731686214 45.57453050324693,199.64156424743123 44.740247026318684,201.26475624501472 43.07168007316068,203.32079323322978 41.023893357720226,204.40291517681908 37.914291308261454,204.9439754280611 36.549100164556876,205.3768232827424 33.970405782340094,205.3768232827424 33.28781021037139,205.26861134794308 32.074306971393526,204.29470306902658 31.69508720957674,203.21258093306096 31.770931161940098,201.6976067138021 32.45352673367597,200.2908415654092 37.080007831566036,197.36908818560187 39.203638499369845,196.71980775386328 42.84414821583778,196.28695374849485 44.209339359542355,196.50338078971254 45.802062360337004,197.91015468374826 45.65037445561029,199.53335129393963 44.89193493127823,201.04833089502063 44.209339359542355,202.6715191443218 42.919992168201134,203.7536422413541 40.4929856909439,204.51112726563588 35.790660640457645,205.26861134794308 35.032221116125584,205.1603993937024 32.074306971393526,203.7536422413541 31.922619066899642,202.02224436379038 33.06027835304849,200.0744158695452 36.16988040274009,198.0183679254842 38.82441873732023,196.93623464164557 41.4789570721332,196.17874019913143 42.1615526441019,196.28695374849485 44.133495407179,195.85409943532431 45.87790631293319,198.99228623771342 44.133495407179,201.80581928277388 42.84414821583778,203.32079323322978 41.4789570721332,205.1603993937024 39.962078023701906,205.80967083014548 38.672730832360685,205.3768232827424 37.080007831566036,205.1603993937024 34.4254694969859,205.70145897223847 34.88053321116604,205.917882669135 38.2935110705439,205.26861134794308 42.00986473937519,204.18649094214197 43.07168007316068,203.5372177757672 43.9059635498561,202.1304568751948 45.19531074096449,200.50726718455553 45.87790631293319,198.8840731686214 44.967778883641586,197.26087482855655 43.75427564489655,196.61159428139217 41.40311311976984,196.82802120759152 39.962078023701906,196.71980775386328 37.30753968888894,197.5855148427072 36.70078806951642,197.80194142251275 33.81871787738055,199.74977718212176 32.68105859099887,200.9401181914145 32.45352673367597,201.58939412550535 32.150150924222544,201.91403183317743 32.2259948765859,202.02224436379038 32.52937068603933,204.07827879593242 33.51534206769429,204.83576341642765 34.04624973470345,205.05218742054421 35.18390902108513,204.9439754280611 35.33559692581184,204.6193393349531 37.610915498575196,204.83576341642765 38.976106642279774,204.40291517681908 40.4929856909439,204.72755138535285 41.25142521504313,204.6193393349531 41.858176834415644,204.18649094214197 42.46492845378816,203.5372177757672 43.22336797788739,203.21258093306096 44.05765145481564,201.6976067138021 45.34699864592403,199.9662029929459 45.65037445561029,198.5594338469091 46.029594217659906,198.45122070098296 45.42284259828739,197.04444805631647 41.25142521504313,196.82802120759152 39.962078023701906,196.50338078971254 38.672730832360685,196.82802120759152 36.549100164556876,198.34300753608113 33.74287392501719,200.61547996505396 33.06027835304849,201.26475624501472 32.30183882871643,202.88794391753618 31.69508720957674,203.10436861391645 32.605214638635516,204.29470306902658 34.04624973470345,205.26861134794308 35.71481668809429,205.70145897223847 40.18960988102481,205.1603993937024 42.00986473937519,204.40291517681908 43.07168007316068,203.5372177757672 43.37505588284694,202.99615627515595 44.51271516922861,202.1304568751948 45.72621840797365,199.9662029929459 45.95375026529655,199.20871231792262 46.10543817025609,197.80194142251275 44.740247026318684,196.82802120759152 43.98180750221945,197.1526614521863 40.18960988102481,196.50338078971254 37.30753968888894,197.1526614521863 36.01819249778055,197.5855148427072 35.33559692581184,198.5594338469091 35.48728483077139,198.8840731686214 33.89456182997674,200.0744158695452 32.98443440068513,200.18262872722698 32.75690254336223,200.50726718455553 32.30183882871643,200.61547996505396 31.770931161940098,201.48118151770905 31.846775114536285,202.6715191443218 32.83274649572559,204.18649094214197 36.92831992683932,205.1603993937024 38.672730832360685,205.1603993937024 41.858176834415644,204.51112726563588 43.678431692533195,202.99615627515595 45.271154693327844,200.18262872722698 46.560501884669065,198.45122070098296 44.8160909791477,196.93623464164557 42.00986473937519,196.3951672789408 38.82441873732023,196.71980775386328 38.065979213221,197.36908818560187 35.48728483077139,198.66764697333565 32.45352673367597,201.26475624501472 32.150150924222544,201.80581928277388 32.377682781545445,202.6715191443218 32.377682781545445,204.07827879593242 32.45352673367597,204.51112726563588 32.98443440068513,206.02609448850853 34.197937639662996,207.0 34.95637716376223,207.0 37.23169573652558,205.59324709518114 38.2935110705439,205.59324709518114 42.31324054906145,204.40291517681908 42.69246031087823,203.97006662987405 44.3610272645019,201.26475624501472 45.34699864592403,200.18262872722698 45.42284259828739,197.26087482855655 41.17558126244694,195.63767216337146 40.11376592866145,195.74588580906857 37.610915498575196,197.91015468374826 37.45922759384848,197.80194142251275 36.39741225959733,198.66764697333565 34.88053321116604,198.7758600806119 32.908590448321775,200.61547996505396 32.074306971393526,201.58939412550535 32.52937068603933,202.1304568751948 32.150150924222544,203.6454300180776 32.45352673367597,204.40291517681908 35.94234854541719,205.48503519862425 35.94234854541719,204.83576341642765 36.01819249778055,204.51112726563588 38.141823165584356,204.51112726563588 40.265453833620995,204.29470306902658 40.64467359543778,204.40291517681908 41.934020786779,203.5372177757672 42.46492845378816,203.7536422413541 43.45089983521029,203.42900551424827 44.3610272645019,201.58939412550535 45.04362283600494,200.9401181914145 45.42284259828739,199.42513832094846 45.65037445561029,198.8840731686214 45.87790631293319,198.66764697333565 45.72621840797365,197.4773015238461 45.271154693327844,196.82802120759152 44.436871216865256,196.93623464164557 42.616616358747706,196.50338078971254 42.1615526441019,196.17874019913143 41.023893357720226,196.61159428139217 40.265453833620995,197.1526614521863 38.44519897503778,198.1265811480116 37.15585178392939,199.74977718212176 40.11376592866145,200.2908415654092 40.87220545276068,198.8840731686214" stroke="#4dd2ff" stroke-linecap="round" stroke-linejoin="round" stroke-width="0.5"><title>2019-07-21 5.1km</title></polyline><polyline fill="none" points="99.73067515785806,153.0 99.53222527413163,153.3236336466798 99.44717532396317,154.45634778800013 99.30542540701572,155.2654258676048 99.50387529074214,155.58905629455694 99.58892524091061,156.03404738039535 99.6172752243001,156.88357340243238 99.73067515785806,157.24765501306683 99.58892524091061,157.6521894531179 99.67397519096266,158.0567231746536 99.67397519096266,158.50170943808916 98.90852563956287,158.66352240924607 98.48327588872053,158.5826159381395 98.05802613787819,158.66352240924607 97.32092656986788,158.90624165034387 96.95237678580452,158.78488206218753 96.4704270681832,158.8657884615095 95.61992756649852,158.74442885167082 95.27972776570823,158.8657884615095 94.45757824752945,158.82533526538464 94.0890284634661,158.70397563411098 93.29522892856039,158.8657884615095 93.04007907805499,159.18941377129522 93.32357891194988,159.5130386212113 93.32357891194988,159.87711602753552 93.18182899500243,161.09070317767328 93.23852896178141,161.49523079062055 93.23852896178141,161.8997576845868 93.35192889533937,162.34473643824458 93.15347901161294,163.15378648943442 93.15347901161294,164.0032859497005 93.29522892856039,164.36735617666272 93.21017897827551,164.73142582172295 93.23852896178141,165.50001538301876 93.38027887872886,165.90453516267007 93.4936788121704,166.71357256628107 93.35192889533937,168.41254175761424 93.40862886200193,169.66653469676385 93.35192889533937,170.07104707496183 92.84162919432856,170.59691209242737 92.78492922754958,171.00142281790613 92.81327921093907,171.40593282492773 92.61482932721265,171.7699912168173 92.81327921093907,172.17449985847634 92.86997917771805,172.98351498627744 92.84162919432856,174.23748275416438 92.92667914438061,174.64198701293208 93.04007907805499,174.96558990245103 93.32357891194988,175.24874205354718 93.32357891194988,175.61279430196737 92.95502912788652,175.81504529959057 92.33132949331775,176.3813471372996 92.41637944348622,176.82629759334668 92.33132949331775,177.27124718006235 92.35967947670724,178.44429192290409 92.41637944348622,178.8083390626707 92.58647934382316,179.17238562062266 92.84162919432856,179.86002753092907 92.67152929399163,180.2240724075673 92.67152929399163,180.58811670223076 92.55812936043367,180.99260968036833 92.64317931060214,181.39710194016516 92.52977937704418,182.16563525430684 92.61482932721265,182.529676445105 92.50142939365469,183.33865478582447 92.55812936043367,184.10718154774804 92.44472942687571,184.47121963494283 92.41637944348622,184.91615428461228 92.04782965942286,184.7543599671044 91.90607974247541,184.430770987281 92.2179295597598,184.71391136973398 92.16122959298082,185.482433490557 91.96277970925439,185.80602097594237 92.1895795763703,186.12960800169094 92.07617964281235,186.49364285609045 91.90607974247541,186.8576771283697 91.90607974247541,187.2621589708142 91.82102979230694,187.66664009459782 92.04782965942286,188.03067249206651 92.07617964281235,188.43515225104056 92.33132949331775,189.16321400697052 92.07617964281235,189.48679626239755 91.6792798753595,189.72948265229934 91.42413002497051,190.01261644698388 90.77208040689584,191.46872754496871 90.68703045672737,192.3181213861244 90.74373042350635,192.68214634811739 90.74373042350635,193.85511171229882 90.94218030734919,194.2595811268111 91.22568014124408,194.58315614107414 91.59422992519103,194.7853902916977 91.87772975908592,195.0685178006679 92.2179295597598,195.27075152019097 92.38802946009673,195.6347717627359 92.41637944348622,196.0796846023004 92.30297950992826,196.48415006595314 92.04782965942286,196.76727546310576 91.70762985874899,196.92906124639558 91.45248000824358,197.2121860903717 90.99888027401175,197.2930788382364 91.22568014124408,197.6166495426587 93.72047867940273,198.99181990763464 94.06067847996019,199.11315807061328 94.37252829736099,199.3962801994785 94.0890284634661,200.1243069144257 94.00397851329762,200.52876519494748 93.72047867940273,200.81188556396228 93.57872876245528,201.21634262349107 93.46532882889733,201.58035336289322 93.43697884550784,201.98480905772885 93.66377871262375,202.14659113441303 94.42922826402355,202.34881856889115 94.54262819758151,202.71282749823877 94.42922826402355,203.56217940422357 94.40087828075048,204.45197324171022 94.74107808142435,204.61375356598 95.56322759960312,204.7350887337234 95.96012736705597,204.65419862915587 96.32867715111934,204.5328634181933 97.57607642025687,204.5733084956155 98.00132617109921,204.65419862915587 98.76677572261542,204.69464368502668 99.05027555651031,204.97775887533498 99.19202547345776,205.38220853669918 99.3621253737947,206.15066091468907 99.67397519096266,206.3528847937123 100.07087495853193,206.3528847937123 100.46777472598478,206.23155048784974 100.66622460971121,206.59555321159132 100.9497244436061,206.83822137088282 101.37497419433203,206.7977766955446 102.19712371274363,206.9191106998478 102.96257326414343,206.87866603888688 103.78472278255504,207.0 103.98317266616505,206.7168873234914 104.35172245034482,205.9484368560079 104.9187221180182,205.38220853669918 105.37232185225002,205.30131866197917 105.59912171936594,204.5733084956155 105.82592158648185,204.29019280255307 105.88262155326083,203.926186394252 105.99602148681879,203.56217940422357 106.02437147020828,202.7937182924361 105.82592158648185,202.51060038711876 105.76922161970288,202.10614562605042 105.88262155326083,201.74213572703593 105.93932152003981,200.9736684740783 106.16612138715573,200.24564447400917 106.87487097189296,200.1243069144257 107.5836205566302,200.36698196901125 107.98052032408305,200.1647527749883 108.17897020780947,199.80073977287975 108.26402015797794,199.03226596905733 108.3490701081464,198.6278050308465 108.74596987559926,198.50646660926577 109.00111972610466,198.2637895722728 109.22791959310416,197.9402197872987 109.31296954338904,197.53575690968137" stroke="#4dd2ff" stroke-linecap="round" stroke-linejoin="round" stroke-width="0.5"><title>2019-06-01 5.1km</title></polyline><polyline fill="none" points="150.22531645558774,161.37365563691128 148.31139240507036,160.39843478554394 143.25316455680877,161.37365563691128 142.15949367079884,159.61825748032425 140.3822784810327,158.64303507073782 138.60506329126656,159.22816862061154 139.425316455774,160.78852322965395 140.24556962028146,166.44479010428768 138.87848101276904,167.81009153660852 137.78481012629345,169.3704339521937 137.51139240525663,171.12581651995424 136.41772151878104,172.8811962826876 136.0075949365273,174.83161494892556 136.14430379774421,176.58698878763244 134.6405063290149,177.56219526391942 133.6835443037562,179.51260561775416 134.91392405051738,181.07293140643742 134.50379746826366,182.82829526916612 136.2810126580298,183.0233355248347 138.19493670854717,182.63325497834012 140.10886075953022,183.21837574651 141.7493670885451,182.82829526916612 143.5265822787769,183.41341593360994 144.75696202507243,184.97373617999256 146.39746835455298,185.75389547168743 156.5139240506105,186.1439749103738 159.9316455698572,187.50925185275264 164.0329113919288,188.09437002276536 167.72405063314363,189.6546836186899 171.5518987341784,189.84972266259138 179.20759493671358,191.60507249669172 183.03544303774834,192.19018848461565 187.0,193.55545791063923 186.17974683549255,195.70087786542717 185.22278481023386,197.65125600574538 184.94936708826572,201.35696492926218 182.76202531624585,200.96689089445863 180.71139240497723,201.16192792949732 176.74683544272557,200.96689089445863 174.96962025295943,200.77185382484458 173.32911392394453,199.99170520168263 167.72405063314363,199.60163068200927 165.8101265821606,198.82148122694343 152.95949367061257,194.92072563944384 148.03797468356788,193.75049626175314 141.88607594929636,191.9951498566661 137.64810126600787,191.60507249669172 134.6405063290149,189.0695662802318 133.0,188.28940934338607 134.7772151902318,184.97373617999256 135.18734177248552,181.07293140643742 137.23797468328848,181.46301250741817 138.87848101276904,182.63325497834012 142.7063291138038,182.63325497834012 144.89367088628933,185.55885570088867 148.7215189873241,185.1687760547502 150.36202531680465,185.75389547168743 157.60759493615478,187.50925185275264 164.71645569615066,190.2398006459698 173.05569620244205,191.60507249669172 174.5594936707057,192.77530416101217 173.73924050619826,194.72568749648053 173.19240506272763,198.43140629201662 174.8329113922082,199.60163068200927 179.48101265821606,200.57681672112085 183.99240506300703,200.96689089445863 185.3594936709851,195.5058398611145" stroke="#4dd2ff" stroke-linecap="round" stroke-linejoin="round" stroke-width="0.5"><title>2018-09-29 5.1km</title></polyline><polyline fill="none" points="13.656157635472482,227.3104163998505 13.815763546823291,227.41134546001558 14.285714285710128,227.57535487856512 14.578325123147806,227.8276763254471 15.083743842376862,228.16830886477692 15.713300492614508,228.4837079155477 15.997044335003011,228.91264838937786 16.103448275884148,229.17758092446456 16.254187192156678,229.15234929683356 16.484729064046405,229.20281254326255 16.936945812834892,229.65698015654925 18.0275862069102,230.59053784761636 18.46206896554213,231.01946566842525 18.994088669976918,231.3979292534932 19.68571428573341,232.07915865293762 20.093596059130505,232.4323861538869 20.5812807881739,233.11360568690725 21.370443349791458,234.29941678272735 21.609852216759464,234.71570749858074 22.07980295570451,235.32121693597583 22.212807881791377,235.47259349326487 22.372413793142186,235.58612570069818 22.691625615756493,235.58612570069818 23.15270935962326,235.2455285370088 23.471921182295773,235.16984005783888 23.63152709361748,235.0941514984661 24.119211822660873,234.67786298831197 25.192118226608727,233.93358354459633 25.94581280791317,233.34067742073967 26.415763546829112,233.17668124094052 26.664039408875396,233.25237183226272 26.98325123154791,233.42898290004814 27.098522167507326,233.5551333954063 27.364532019739272,233.47944312493928 27.524137931060977,233.5046732239789 27.533004926110152,233.47944312493928 27.70147783253924,233.51728827018815 28.056157635495765,233.6938986829191 28.384236453217454,233.794818722723 28.87192118226085,234.0723480968736 29.28866995073622,234.1858825300369 29.87389162564068,234.51386987874866 30.23743842364638,234.7283223308914 30.751724137953715,234.9427741391337 30.9201970443537,235.08153673078778 31.212807881791377,235.2581432757288 31.42561576355365,235.4852081919089 31.52315270935651,235.4978228882901 30.255172413832042,234.7787816378259 29.83842364535667,234.50125500857393 28.765517241408816,234.0218882908739 28.384236453217454,233.78220372553187 27.83448275862611,233.60559353114513 27.470935960591305,233.42898290004814 27.329064039426157,233.45421301694296 28.605911330058007,233.8831236405822 29.581280788203003,234.40033596696594 29.882758620689856,234.52648474670423 30.538916256162338,234.9806185090638 34.342857142852154,237.2260152351082 36.19605911333929,238.34868712893513 36.60394088670728,238.51267143424775 37.27783251233632,238.67665536309505 38.83842364535667,239.2316750980608 39.193103448313195,239.2695171956584 40.13300492611597,239.28213122372108 40.53201970446389,239.33258731382375 41.463054187217494,239.29474524960096 41.95960591136827,239.38304336824513 42.544827586214524,239.66055103044346 42.97931034484645,239.77407658152515 43.22758620689274,239.91282978781237 43.493596059124684,240.00112714239367 43.963546798040625,240.24079084038385 44.309359605947975,240.34170163052477 44.531034482759424,240.45522609904583 44.78817733991309,240.5056813604897 45.0275862069102,240.63181935813918 45.61280788181466,240.80841218066053 45.85221674881177,240.9471633778303 46.49064039409859,241.19943759123998 46.83645320200594,241.4769381969163 46.95172413796536,241.61568809551682 47.07586206900305,241.67875614217337 47.661083743849304,242.15807147683518 48.49458128082915,242.7761312399307 48.77832512315945,243.04101235850976 49.29261083743768,243.28066585757915 49.80689655174501,243.68429098599154 50.16157635470154,243.84826304294984 50.86206896553631,244.26449811260682 50.88866995074204,244.34017695562216 50.791133004939184,244.85731357037002 50.870935960585484,244.89515268787363 51.03054187193629,244.3023375441262 51.04827586206375,244.12575335887232 51.181280788208824,243.84826304294984 51.32315270937397,243.35634574286087 51.48275862069568,243.10407914676034 51.52709359608707,242.66261045983265 51.686699507408775,242.48602222115005 51.881773399043595,241.96886843945686 52.05024630544358,241.65352893016825 52.254187192127574,240.9723908392334 52.360591133037815,240.54352278316946 52.635467980318936,240.0894243878647 52.8926108374726,239.97589933795825 52.93694581283489,239.8371462541836 52.910344827600056,239.698392900842 53.078817734029144,239.43349938700703 53.956650246313075,238.80279659062217 54.55960591137409,238.48744310407346 55.02955665026093,238.47482893564302 56.54581280788989,238.9037094122541 56.7852216749161,238.87848122024297 56.98916256157099,238.790182477911 57.317241379321786,238.62619880968123 57.565517241397174,238.4369864170294 57.97339901482337,238.29823034386936 58.115270935959416,238.1973166668322 58.186206896585645,238.22254509942286 58.390147783240536,238.58835637126322 58.46995073891594,238.66404122806125 58.798029556666734,239.11814868489455 58.8512315271073,239.25690316536202 59.01083743842901,239.4461133861114 59.10837438426097,239.49656936037354 59.42758620690438,239.96328543234995 60.03054187193629,241.0606868840914 60.36748768473626,241.5526199931992 60.651231527124764,242.0950038534138 60.86403940888704,242.41034141377168 61.01477832515957,242.72567758215882 61.48472906407551,243.4446388410288 62.43349753698567,245.0086699201711 63.55960591134499,246.98888595256722 64.54384236456826,248.5528394369394 64.75665024633054,248.98165941137268 65.20886699508992,249.71316989769548 65.27093596060877,249.90235242507333 65.62561576356529,250.36900051742123 65.90049261084641,250.9239294163417 66.13103448276524,251.27706374407717 66.37931034484063,251.79415014613915 66.95566502466681,252.6895836001495 66.93793103451026,252.48779675913102 66.88472906404058,252.31123280570318 66.85812807883485,252.31123280570318 66.85812807883485,252.24817414513382 66.90246305419714,252.28600934815768 66.9201970443828,252.4499616629837 66.99113300495083,252.56346689131897 67.0,252.66436027619056 66.92906403943198,252.66436027619056 66.77832512318855,252.4121265467984 66.72512315271888,252.43734995980776 66.65418719215086,252.38690312487597 66.57438423647545,252.15989192686538 66.41477832515375,251.8698210130242 66.42364532023203,251.83198558958975 66.29950738919433,251.66803185656318 65.9891625616001,251.0500490195045 65.80295566504356,250.83564556163037 65.83842364532757,250.84825754757185 65.82955665027839,250.79780959055643 65.85615763548412,250.83564556163037 65.8650246305624,250.79780959055643 65.82955665027839,250.79780959055643 65.89162561579724,250.78519759568007 65.87389162561158,250.82303357349883 65.82068965520011,250.83564556163037 65.82955665027839,250.79780959055643 65.57241379312472,250.39422465179086 65.41280788180302,250.0789223320171 65.18226600985508,249.76361862062913 64.87192118228995,249.25912978788983 64.83645320197684,249.15823159385764 64.7300492610957,248.99427172457217 64.65911330049857,248.93121013619384 64.50837438425515,248.64112611268501 64.27783251233632,248.31320362418774 63.97635467979126,247.7582544453544 62.51330049263197,245.31138165764423 62.39802955664345,244.9582178392011 62.05221674879431,244.4410819548939 61.529064039408695,243.4950919910043 61.298522167489864,243.17975921912148 60.50935960593051,241.80489206835773 60.33201970445225,241.43909726872516 60.07487684729858,241.0859143054622 59.9064039409277,240.77057089833397 59.75566502462607,240.59397798223654 59.596059113304364,240.30386010093207 59.60492610838264,240.2660185512941 59.43645320201176,240.03896883236303 59.33004926110152,239.77407658152515 59.09064039410441,239.4461133861114 58.274876847310225,238.13424554624362 57.67192118227831,237.03679913336964 57.618719211866846,237.0494135557601 57.600985221681185,236.99895585288323 57.600985221681185,237.06202797593141 57.565517241397174,237.11248563422123 57.53891625619144,237.09987122299935 57.67192118227831,237.0115702819312 57.65418719215086,236.94849811436143 57.48571428572177,236.72143784997024 57.49458128080005,236.69620888711506 57.49458128080005,236.7340523280218 57.33497536947834,236.77189574885415 57.34384236452752,236.74666680386144 57.29950738919433,236.74666680386144 56.333004926127614,237.30170153547078 55.614778325136285,237.74320335578523 55.46403940889286,237.86934623176057 55.34876847293344,237.88196050709666 54.772413793136366,238.31084454346274 54.54187192118843,238.39914387836325 54.116256157663884,238.70188362638874 53.90344827590161,238.790182477911 53.548768472945085,239.0046220913864 53.37142857146682,239.14337679232267 52.99014778327546,239.5091833483457 52.874876847316045,239.64793706918863 52.963546798040625,239.8371462541836 52.839408867032034,239.97589933795825 52.53793103451608,240.15249378205772 52.27192118228413,240.7579571330789 52.09458128080587,240.8967084281976 51.722167487692786,241.96886843945686 51.66896551725222,242.28420655667287 51.53596059116535,242.511249139141 51.03940886701457,243.722130724811 50.941871921211714,244.024847914181 50.85320197045803,244.06268747260037 50.702463054214604,244.01223472354468 50.223645320220385,243.74735720628814 49.94876847291016,243.5455451053058 49.67389162562904,243.41941225268238 49.461083743866766,243.24282588484493 49.37241379311308,243.2175992252014 49.310344827594236,243.28066585757915 48.97339901482337,243.06623908047914 48.89359605911886,243.10407914676034 48.796059113316005,243.07885243812052 48.66305418720003,242.97794551460538 48.61871921183774,242.87703844852513 48.33497536947834,242.6121567219161 47.758620689681266,242.10761738254223 47.03152709361166,241.64091532084421 46.58817733990145,241.224664963549 45.68374384238268,240.84625344298547 45.13399014779134,240.58136418581853 44.69064039411023,240.44261227813695 44.32709359607543,240.30386010093207 44.0965517241857,240.25340469693037 43.404926108371,239.90021587112278 41.99507389165228,239.39565737626253 41.76453201973345,239.25690316536202 40.90443349754787,239.28213122372108 40.36354679806391,239.25690316536202 39.804926108394284,239.29474524960096 38.79408866996528,239.206447021832 38.49261083744932,239.14337679232267 38.07586206897395,238.94155168364523 37.35763546801172,238.72711188081303 36.94088669953635,238.63881295135798 36.73694581282325,238.5378997555017 36.40886699510156,238.50005727029202 36.35566502463189,238.4369864170294 36.00985221675364,238.22254509942286 35.708374384237686,238.08378860972152 35.42463054190739,237.88196050709666 35.0965517241566,237.75581765339302 34.93694581280579,237.629674576885 34.6088669950841,237.4530738955582 34.13891625616816,237.06202797593141 33.97931034484645,236.99895585288323 33.34975369460881,236.5700639393399 32.76453201970435,236.2547005952074 32.30344827589579,235.8762627442993 31.931034482782707,235.76273099800164 31.43448275863193,235.39690525473998 30.565517241397174,234.90492974920926 30.06009852216812,234.55171447592147 29.333004926127614,234.2237273009814 29.25320197045221,234.12280786720657 28.730049261124805,234.00927333378058 28.41083743845229,233.87050865896163 27.93201970445807,233.59297850055736 27.293596059113042,233.41636783824652 27.2315270936233,233.5551333954063 26.921182266029064,233.3659075688047 26.433497536956565,233.18929634504457 26.229556650243467,233.17668124094052 26.00788177343202,233.25237183226272 25.91034482762916,233.35329249589267 25.715270935965236,233.30283218192199 25.440394088684116,233.51728827018815 25.18325123153045,233.76958872613613 24.695566502487054,234.0723480968736 24.207881773414556,234.4760252615597 23.6226600985392,234.84185572132264 23.542857142863795,234.84185572132264 23.471921182295773,234.9553889313538 22.975369458144996,235.32121693597583 22.72709359609871,235.4852081919089 22.594088669953635,235.53566696413327 22.319211822672514,235.5482816516087 22.266009852231946,235.57351101990207 21.86699507391313,235.04369241436507 21.68078817735659,234.70309266406548 21.414778325124644,234.40033596696594 20.661083743849304,233.41636783824652 20.226600985217374,232.6846904421982 20.226600985217374,232.70992082204612 19.26896551725804,231.70069867764687 19.02955665026093,231.5240833362186 18.65714285717695,231.14562041960744 18.435467980307294,230.98161919959966 18.071921182301594,230.62838452364667 17.149753694597166,229.8966785658995 17.007881773402914,229.7326744779857 16.484729064046405,229.24065995466663 16.36059113300871,229.13973347962747 15.997044335003011,229.22804415307473 15.917241379327606,229.15234929683356 15.899507389200153,228.58463531760935 15.81083743844647,228.47109198027465 15.562561576371081,228.3701644177272 15.465024630568223,228.2061568244244 14.2591133005335,227.73936392043834 13.594088669953635,227.63843532385363 13.514285714307334,227.61320315241755 13.496551724150777,227.52489048220014 13.31034482762334,227.4870421615051 13.203940886713099,227.6762835643167 13.212807881791377,227.65105140621017 13.035467980313115,227.58797097209754 13.0,227.68889963998663 13.124137931037694,227.77721210740856 13.31034482762334,227.80244422090618 13.354679802956525,227.764596047331 16.733004926121794,229.13973347962747 16.165517241402995,228.55940348049626" stroke="#4dd2ff" stroke-linecap="round" stroke-linejoin="round" stroke-width="0.5"><title>2016-08-20 14.7km</title></polyline></svg>