<?xml version="1.0" encoding="utf-8" ?>
<svg baseProfile="full" height="200mm" version="1.1" viewBox="0,0,200,200" width="200mm" xmlns="http://www.w3.org/2000/svg" xmlns:ev="http://www.w3.org/2001/xml-events" xmlns:xlink="http://www.w3.org/1999/xlink"><defs /><rect fill="#1a1a1a" height="200" width="200" x="0" y="0" /><text alignment-baseline="middle" fill="#e1ed5e" style="dominant-baseline: central; font-size:9.0px; font-family:Arial;" text-anchor="middle" x="100.0" y="100.0">2017</text><line stroke="#e1ed5e" stroke-width="0.3" x1="100.0" x2="100.0" y1="15.0" y2="10.0" /><path d="M 100.0 14.0 a86.0,86.0 0 0,1 42.46469731375804,11.215312516191453" fill="none" id="id13" stroke="none" /><text fill="#e1ed5e" style="font-size:6.75px; font-family:Arial;" text-anchor="middle"><textPath startOffset="22.20632615414155" xlink:href="#id13">January</textPath></text><line stroke="#e1ed5e" stroke-width="0.3" x1="143.23703022742887" x2="145.7803849466894" y1="26.81831364943548" y2="22.513508569990506" /><path d="M 143.74570117128098 25.957352633546492 a86.0,86.0 0 0,1 28.547481713284135,27.462654790039103" fill="none" id="id14" stroke="none" /><text fill="#e1ed5e" style="font-size:6.75px; font-family:Arial;" text-anchor="middle"><textPath startOffset="19.985693538727396" xlink:href="#id14">February</textPath></text><path d="M 113.89432698308785 84.25364557470407 l 28.795680442877824 -32.633965698592505 a64.52202809365906,64.52202809365906 0 0,0 0.8264626959627208,0.7420063686111381 l -29.353154126436536 32.13346032121207" fill="#32ff46" stroke="none" /><path d="M 114.16331599549186 84.49514656593476 l 25.82984483691094 -28.276426124251206 a59.29800463025627,59.29800463025627 0 0,0 0.7476973396565967,0.6949031902109906 l -26.312750060362387 27.827618347965576" fill="#57ff2a" stroke="none" /><path d="M 114.42810811169701 84.74124197986012 l 22.075232014180422 -23.346139420021682 a53.13032981933093,53.13032981933093 0 0,0 0.6591114852540242,0.6340647266010259 l -22.473826743046864 22.962691606658353" fill="#a1ff22" stroke="none" /><path d="M 115.19652480421416 85.50635884689758 l 32.31932875438825 -30.824465416287055 a65.66191531197586,65.66191531197586 0 0,0 0.7730367222442123,0.8246216768633893 l -32.845132798602926 30.263574322545608" fill="#33ff55" stroke="none" /><path d="M 115.68641384162765 86.03803664274999 l 34.366107716788086 -30.588147266635875 a67.00721805116329,67.00721805116329 0 0,0 0.7594410997709593,0.8681724597065982 l -34.887540680136894 29.99205925072633" fill="#35ff67" stroke="none" /><path d="M 116.38621287248628 86.86637796730983 l 17.513611160957673 -14.037236743197614 a43.44483440085487,43.44483440085487 0 0,0 0.462679044429627,0.5875554006330227 l -17.752644285981262 13.733688948611551" fill="#ffdc14" stroke="none" /><line stroke="#e1ed5e" stroke-width="0.3" x1="172.23445277983987" x2="176.4835382374775" y1="55.19839476539836" y2="52.563006222186495" /><path d="M 173.08426987136738 54.67131705675599 a86.0,86.0 0 0,1 12.851231095245387,41.99856678651699" fill="none" id="id15" stroke="none" /><text fill="#e1ed5e" style="font-size:6.75px; font-family:Arial;" text-anchor="middle"><textPath startOffset="22.20632615414155" xlink:href="#id15">March</textPath></text><path d="M 118.03404312379186 89.2402003453031 l 53.0408167983473 -31.646179304006278 a82.76413936239342,82.76413936239342 0 0,0 0.7194187114949758,1.229719780946576 l -53.5776951843126 30.728480110705807" fill="#4bdfff" stroke="none" /><path d="M 118.3937258080291 89.86733742301442 l 48.32731208165761 -26.622357628184385 a76.17498544377585,76.17498544377585 0 0,0 0.6227918115641738,1.1539386411446784 l -48.77841199244025 25.78653800370725" fill="#42ffd7" stroke="none" /><path d="M 120.83666639777658 97.38593545837742 l 52.86483034699472 -6.63215870863672 a74.27922500143072,74.27922500143072 0 0,0 0.14823886185604543,1.2700200404352786 l -52.97115956185436 5.721194929876589" fill="#3fffc1" stroke="none" /><line stroke="#e1ed5e" stroke-width="0.3" x1="184.98032266829074" x2="189.97916517819016" y1="98.17113171792111" y2="98.06355123074" /><path d="M 185.9800911702706 98.14961562048488 a86.0,86.0 0 0,1 -9.607161424134198,41.387399972396054" fill="none" id="id16" stroke="none" /><text fill="#e1ed5e" style="font-size:6.75px; font-family:Arial;" text-anchor="middle"><textPath startOffset="21.466115282336823" xlink:href="#id16">April</textPath></text><line stroke="#e1ed5e" stroke-width="0.3" x1="174.80103733775053" x2="179.2010983576182" y1="140.37084112569926" y2="142.7455964860345" /><path d="M 175.68104954172406 140.8457921977663 a86.0,86.0 0 0,1 -30.038265399797805,32.042727171017184" fill="none" id="id17" stroke="none" /><text fill="#e1ed5e" style="font-size:6.75px; font-family:Arial;" text-anchor="middle"><textPath startOffset="22.206326154141568" xlink:href="#id17">May</textPath></text><path d="M 117.35343817320211 111.8261652097733 l 43.94993583272062 29.95136738489799 a74.18534824484456,74.18534824484456 0 0,0 -0.7282143042406319,1.0490470180478784 l -43.42786062131785 -30.703455665132886" fill="#3fffc0" stroke="none" /><path d="M 117.14729908036423 112.12312394758627 l 26.15427396882302 18.491046525587016 a53.030686043974725,53.030686043974725 0 0,0 -0.533388215079646,0.7408295792939943 l -25.83210596136777 -18.938509710332145" fill="#a3ff22" stroke="none" /><path d="M 116.498646956653 112.99209946851258 l 38.645097968805544 30.43164437061144 a70.18870374504644,70.18870374504644 0 0,0 -0.7556385091830187,0.9427752249380774 l -38.11554154756767 -31.092347429127766" fill="#3aff8f" stroke="none" /><path d="M 115.32070863581623 114.36230785411682 l 42.26279547748648 39.61900809236938 a78.92935079728653,78.92935079728653 0 0,0 -0.9377312346587855,0.9832074505396654 l -41.574557691448724 -40.34062265949155" fill="#46fff6" stroke="none" /><path d="M 114.29624159901734 115.38237550388516 l 42.88872479705202 46.14712651165547 a84.0,84.0 0 0,0 -1.0676018021325442,0.9752289336536681 l -42.088023445452606 -46.878548211895726" fill="#4dd2ff" stroke="none" /><path d="M 113.75828350139079 115.86535959552629 l 17.970065287041045 20.722174223635548 a48.428666591273135,48.428666591273135 0 0,0 -0.6344951477428099,0.5407305299846844 l -17.610704662721187 -21.02842914384318" fill="#deff1b" stroke="none" /><path d="M 113.20401910651253 116.32954008644616 l 22.18874389385256 27.4410374568333 a56.289529499474874,56.289529499474874 0 0,0 -0.7586823601567618,0.6027431514780912 l -21.713104040978447 -27.818914522316515" fill="#7bff26" stroke="none" /><line stroke="#e1ed5e" stroke-width="0.3" x1="143.8653032363475" x2="146.44561519142675" y1="172.8068346515853" y2="177.08958963109032" /><path d="M 144.38136562736335 173.6633856474863 a86.0,86.0 0 0,1 -40.68145358897372,12.25698825130547" fill="none" id="id18" stroke="none" /><text fill="#e1ed5e" style="font-size:6.75px; font-family:Arial;" text-anchor="middle"><textPath startOffset="21.466115282336833" xlink:href="#id18">June</textPath></text><line stroke="#e1ed5e" stroke-width="0.3" x1="102.19456741930631" x2="102.32365962044197" y1="184.97166512339345" y2="189.96999836594603" /><path d="M 102.22038585953345 185.97133177190398 a86.0,86.0 0 0,1 -42.740103519485714,-10.115201625700543" fill="none" id="id19" stroke="none" /><text fill="#e1ed5e" style="font-size:6.75px; font-family:Arial;" text-anchor="middle"><textPath startOffset="22.20632615414155" xlink:href="#id19">July</textPath></text><line stroke="#e1ed5e" stroke-width="0.3" x1="58.666819895761336" x2="56.23545636021788" y1="174.27360380694188" y2="178.64263932499728" /><path d="M 58.180547188652646 175.14741091055294 a86.0,86.0 0 0,1 -31.652253787137756,-30.449443065178592" fill="none" id="id20" stroke="none" /><text fill="#e1ed5e" style="font-size:6.75px; font-family:Arial;" text-anchor="middle"><textPath startOffset="22.20632615414155" xlink:href="#id20">August</textPath></text><line stroke="#e1ed5e" stroke-width="0.3" x1="26.63291911575756" x2="22.317208475507996" y1="142.92168965132927" y2="145.44649492493687" /><path d="M 25.769776987707644 143.4266507060508 a86.0,86.0 0 0,1 -11.730757126820373,-40.83630448921669" fill="none" id="id21" stroke="none" /><text fill="#e1ed5e" style="font-size:6.75px; font-family:Arial;" text-anchor="middle"><textPath startOffset="21.46611528233685" xlink:href="#id21">September</textPath></text><path d="M 81.18737489456691 109.33194174019688 l -26.21130651942845 13.002033687638193 a50.25893828336754,50.25893828336754 0 0,0 -0.377771892096733,-0.7783219900576323 l 26.4312316681399 -12.548922741615275" fill="#c6ff1e" stroke="none" /><path d="M 80.87730276802145 108.67885076344099 l -26.020817086669897 11.809567735055216 a49.57531823001783,49.57531823001783 0 0,0 -0.3459859458996675,-0.7801069703815892 l 26.220244117300844 -11.359912428180932" fill="#cfff1d" stroke="none" /><path d="M 80.73074385275274 108.34839909993369 l -28.10207981949947 12.175217147906835 a51.626178390066954,51.626178390066954 0 0,0 -0.34626174147770833,-0.8184604727884067 l 28.307492542169484 -11.68968214945227" fill="#b4ff20" stroke="none" /><path d="M 79.97269907076064 106.31721596034903 l -29.207604330020864 9.212961091915593 a51.626178390066954,51.626178390066954 0 0,0 -0.2600317862615071,-0.849798922841071 l 29.3618628887885 -8.708835196522475" fill="#b4ff20" stroke="none" /><path d="M 79.86692584326677 105.97154293290107 l -28.051065438396165 8.320047910963437 a50.25893828336754,50.25893828336754 0 0,0 -0.23886724299842618,-0.831528209315806 l 28.190125318280693 -7.835962226143035" fill="#c6ff1e" stroke="none" /><line stroke="#e1ed5e" stroke-width="0.3" x1="15.007084014347285" x2="10.007500721073583" y1="101.09737516637583" y2="101.16192664675087" /><path d="M 14.007167355692545 101.11028546245083 a86.0,86.0 0 0,1 10.666146001902534,-42.60595125391555" fill="none" id="id22" stroke="none" /><text fill="#e1ed5e" style="font-size:6.75px; font-family:Arial;" text-anchor="middle"><textPath startOffset="22.20632615414155" xlink:href="#id22">October</textPath></text><path d="M 80.803312248108 91.48605970444005 l -47.80561245412895 -21.202310288503586 a73.29641042829186,73.29641042829186 0 0,0 0.5214435187090493,-1.1489316735177237 l 47.433566618456545 22.022063970863382" fill="#3effb5" stroke="none" /><line stroke="#e1ed5e" stroke-width="0.3" x1="26.266209847984243" x2="21.928928074336255" y1="57.711370442889674" y2="55.22380399835377" /><path d="M 25.398753493254645 57.213857153982495 a86.0,86.0 0 0,1 29.58750427330803,-30.492523968695096" fill="none" id="id23" stroke="none" /><text fill="#e1ed5e" style="font-size:6.75px; font-family:Arial;" text-anchor="middle"><textPath startOffset="21.46611528233685" xlink:href="#id23">November</textPath></text><path d="M 84.31358615837235 86.03803664274999 l -6.057195050307509 -5.391310990130962 a29.108997846206194,29.108997846206194 0 0,0 0.3363563544131325,-0.37141308753654506 l 5.963495055278332 5.494776864937063" fill="#ff0000" stroke="none" /><path d="M 86.93701828274178 83.55741782278169 l -8.72195524847368 -10.978463341916816 a35.021382268028674,35.021382268028674 0 0,0 0.47523589617643475,-0.3709291550325827 l 8.53168679713782 11.126970886172622" fill="#ff5f08" stroke="none" /><line stroke="#e1ed5e" stroke-width="0.3" x1="56.762969772571076" x2="54.21961505331055" y1="26.818313649435495" y2="22.513508569990535" /><path d="M 56.25429882871897 25.957352633546506 a86.0,86.0 0 0,1 42.265352541879196,-11.944610805530505" fill="none" id="id24" stroke="none" /><text fill="#e1ed5e" style="font-size:6.75px; font-family:Arial;" text-anchor="middle"><textPath startOffset="22.20632615414155" xlink:href="#id24">December</textPath></text><path d="M 89.94658935756843 81.56283822128135 l -19.19439792745605 -35.201011121536695 a61.094090534342826,61.094090534342826 0 0,0 0.9276263521296849,-0.49550587157269926 l 18.58562652879806 35.52619571961114" fill="#43ff2d" stroke="none" /></svg>