<?xml version="1.0" encoding="utf-8" ?>
<svg baseProfile="full" height="300mm" version="1.1" viewBox="0,0,200,300" width="200mm" xmlns="http://www.w3.org/2000/svg" xmlns:ev="http://www.w3.org/2001/xml-events" xmlns:xlink="http://www.w3.org/1999/xlink"><defs /><rect fill="#222222" height="300" width="200" x="0" y="0" /><text fill="#FFFFFF" style="font-size:12px; font-family:Arial; font-weight:bold;" x="10" y="20">Over 5km Runs</text><text fill="#FFFFFF" style="font-size:4px; font-family:Arial" x="10" y="280">ATHLETE</text><text fill="#FFFFFF" style="font-size:9px; font-family:Arial" x="10" y="290">zhzj</text><text fill="#FFFFFF" style="font-size:4px; font-family:Arial" x="120" y="280">STATISTICS</text><text fill="#FFFFFF" style="font-size:3px; font-family:Arial" x="120" y="285">Number: 11</text><text fill="#FFFFFF" style="font-size:3px; font-family:Arial" x="120" y="290">Weekly: 1.0</text><text fill="#FFFFFF" style="font-size:3px; font-family:Arial" x="141" y="285">Total: 75.2 km</text><text fill="#FFFFFF" style="font-size:3px; font-family:Arial" x="141" y="290">Avg: 6.8 km</text><text fill="#FFFFFF" style="font-size:3px; font-family:Arial" x="167" y="285">Min: 5.0 km</text><text fill="#FFFFFF" style="font-size:3px; font-family:Arial" x="167" y="290">Max: 14.7 km</text><polyline fill="none" points="54.74501427181531,65.15706765461073 54.948238052020315,66.86464829453325 54.97081847197842,67.67010528052924 54.948238052020315,68.05672336342104 55.06114015204366,68.66886697581504 55.03855973208556,68.89439304904954 54.79017511190614,68.95882901850564 54.541790491726715,69.281008522099 54.541790491726715,69.53875171318941 54.33856671152171,70.27976134698838 54.38372755161254,70.98855033784639 54.270825451472774,71.34294379474886 54.20308419142384,71.89064141140261 54.090182091342285,72.18059830364655 53.7288953710231,72.82494529357064 53.07406319049187,73.6303758121212 52.84825899032876,73.79146148652944 52.14826596976491,73.95254701796512 51.425692529126536,74.01698119050707 50.951503708784,73.95254701796512 50.612797408539336,74.11363240641367 50.161189008213114,74.62910468793416 50.138608588138595,75.1445755046152 50.09344774816418,75.20900925362366 49.57409808773082,75.27344297981472 49.054748427297454,75.49896084119973 48.80636380711803,75.66004485623853 48.49023792688968,76.27216280883295 48.30959456670098,76.40102948292042 48.01604910643073,76.49767942850303 47.63218196615344,76.75541236477147 47.135412725794595,77.43195958028082 46.909608525573276,78.07628791563911 46.72896516538458,79.42936996981734 46.84186726552434,80.23477116248978 46.84186726552434,81.10460043381318 46.79670642549172,81.45897412621707 46.72896516538458,81.8777785065904 46.59348264534492,81.94220986397704 46.39025886519812,82.19993506428727 46.34509802510729,82.68316882802173 46.006391724862624,83.19861675695574 45.78058752469951,83.29526308062486 45.125755344110075,83.13418584590545 44.26769938349025,83.00532395526534 43.86125182308024,83.19861675695574 43.11609796260018,83.4563401723135 42.596748302166816,83.4563401723135 42.348363681987394,83.42412476529717 41.96449654159369,83.64963249338325 41.7838531814632,83.64963249338325 41.58062940125819,84.19729295129946 41.51288814120926,84.77716692816466 41.30966436112067,85.48589927125431 41.26450352102984,86.06576912867604 40.83547554066172,86.71006679630955 40.49676924041705,87.0 40.02258042007452,86.7422816195758 39.39032865950139,86.54899259390368 38.23872723861132,86.42013312903873 35.34843347634887,85.808049420928 34.76134255580837,85.64697441764292 34.15167121536797,85.61475939984666 33.677482395025436,85.35703905115952 32.86458727432182,85.09931833647715 32.39039845397929,85.26039382608724 32.119433413725346,85.93690932053141 32.0291117336601,85.96912428119686 31.532342493301257,85.64697441764292 30.561384432541672,84.74495175584161 30.04203477210831,84.42279971808603 29.86139141197782,84.3261539953237 28.190440330537967,83.84292460845609 27.716251510195434,84.06843181580189 26.99367806967348,83.87513994101027 26.271104629035108,83.81070927029941 26.000139588781167,83.71406322129769 25.23240530822659,83.23083220391709 25.09692278818693,83.03753943658376 24.938859847956337,82.55430661680293 24.938859847956337,81.42675836465787 24.984020688047167,81.07238460920053 25.345307408366352,79.71931481114007 25.68401370855281,79.30050544709957 26.022720008913893,79.04277612712758 26.11304168892093,78.81726267174236 25.977559168823063,78.55953266506549 26.000139588781167,78.26958596994518 25.819496228708886,77.85077325861494 25.84207664866699,77.43195958028082 25.93239832884865,76.75541236477147 26.000139588781167,75.20900925362366 26.067880848888308,75.11235862137983 26.090461268962827,74.91905720255454 26.067880848888308,74.33915170983528 26.11304168892093,73.34042123740073 26.429167569207493,73.08268344853423 26.429167569207493,71.69733655908203 26.203363368986174,71.21407352681854 26.316265469125938,69.37766226168605 26.29368504905142,68.86217505570676 26.29368504905142,68.79773905196635 26.677552189328708,68.28225019779347 26.880775969533715,68.25003209579154 27.106580169755034,68.05672336342104 27.106580169755034,67.96006891988509 26.722713029419538,67.50901416949637 26.60981092939619,66.9290849850513 26.654971769370604,65.76922105338599 26.54206966928905,64.41603709175251 26.60981092939619,64.15828662115382 27.061419329664204,63.707222416152945 27.151741009787656,62.67621430649888 27.106580169755034,61.25856858631596 27.151741009787656,60.6463999634434 26.903356389550027,59.67981372035865 26.903356389550027,59.3898368429509 26.903356389550027,58.64878271656926 26.99367806967348,56.812244222470326 27.01625848968979,55.39455266640289 26.925936809624545,55.23345065195463 27.038838909647893,54.71792324425769 27.716251510195434,54.68570273263322 27.783992770244367,54.621261692169355 27.716251510195434,54.39571787031309 27.558188570081256,54.266835560440086 27.467866890016012,54.29905614645395 26.903356389550027,54.073511923867045 26.767873869510368,53.84796742082108 26.74529344943585,52.20470614658552 26.903356389550027,50.40032367561071 26.858195549575612,49.659232817051816 26.903356389550027,48.59592325233098 26.722713029419538,47.43594207141723 26.722713029419538,46.46928541980742 26.858195549575612,46.179287419538014 27.038838909647893,46.050399270650814 27.35496478987625,46.050399270650814 27.535608150123153,45.9215110301011 27.513027729990426,45.79262269803439 27.061419329664204,45.63151215398102 26.858195549575612,45.18040186938015 26.858195549575612,44.503734338562936 26.94851722958265,43.40817203084589 26.94851722958265,42.4737165972183 26.903356389550027,41.60370203756611 26.722713029419538,40.86257523164386 26.58723050932167,40.056999181368155 26.429167569207493,39.50920542309177 26.248524209077004,39.12252647978312 26.225943789002486,38.8969633821107 26.496908829256427,38.510283133466146 26.361426309100352,38.059155134513276 26.33884588914225,37.54357890454412 25.977559168823063,35.12679578672396 26.022720008913893,34.804555604132474 26.94851722958265,34.933451745891944 28.009796970465686,34.8690036865446 28.280762010719627,34.740107498990255 28.664629150996916,34.28897012100788 28.93559419119265,34.12784935704258 29.54526553163305,33.998952642592485 30.90009073272813,33.80560739933571 31.55492291331757,33.93450425111223 31.712985853431746,33.90228004682285 31.893629213562235,33.74115893909766 32.142013833799865,33.83783162085456 32.41297887393739,33.77338317205431 33.11297189450124,33.77338317205431 33.677482395025436,33.70893470043666 34.241992895433214,33.74115893909766 34.76134255580837,33.67671045602765 35.190370536234695,33.58003768823983 35.55165725649567,33.2255704326235 35.77746145671699,33.12889742437983 36.59035657730419,33.0 36.635517417336814,33.032224364797 36.680678257427644,33.51558914789348 36.61293699737871,33.67671045602765 36.59035657730419,34.224521832642495 36.61293699737871,35.38458752052975 36.680678257427644,35.99684141948819 36.680678257427644,36.41575079098402 36.61293699737871,36.609093251492595 36.658097837353125,36.9313302274968 36.635517417336814,37.25356663099956 36.72583909740206,38.70362336083781 36.703258677443955,39.47698220923485 36.83874119754182,40.47589917418372 36.77099993749289,41.152581733855186 36.79358035745099,41.60370203756611 36.906482457590755,42.119266724883346 37.22260833787732,42.28038038905652 37.26776917785173,42.79594315268332 37.17744749778649,43.56928454997251 37.17744749778649,44.503734338562936 37.26776917785173,44.98706854683405 37.26776917785173,45.244846264555235 37.380671277991496,45.37373498591478 37.380671277991496,45.50262361569912 37.493573378014844,45.69595638872124 37.583895058138296,45.953733098867815 37.56131463806378,46.179287419538014 37.47099295799853,46.30817547699553 37.47099295799853,46.69483909936389 37.335510437900666,48.17704201507149 37.4032516979496,48.43481519859051 37.380671277991496,48.82147428698954 37.538734218105674,49.337018455786165 37.358090857975185,50.496987477337825 37.493573378014844,51.59250696314848 38.01292303844821,51.72139117351617 38.46453143883264,51.624728024457 39.232265719387215,51.624728024457 39.63871327979723,51.75361221183266 40.54193008050788,51.818054271207075 41.016118900850415,51.72139117351617 41.26450352102984,51.75361221183266 41.60320982139092,51.882496307691326 41.896755281602964,52.39803177518479 41.874174861528445,52.91356577730039 41.94191612157738,53.52576050139032 41.919335701619275,54.29905614645395 41.919335701619275,54.39571787031309 42.00965738168452,54.653482215318945 42.5741678820923,54.71792324425769 43.45480426278664,54.68570273263322 45.125755344110075,54.81458474486135 45.91607004479738,54.78236425034993 46.638643485319335,54.78236425034993 46.84186726552434,54.71792324425769 47.42895818600664,54.68570273263322 48.06120994652156,54.75014375020692 48.58055960695492,54.68570273263322 49.50635682762368,54.78236425034993 50.838601608760655,54.75014375020692 51.69665756938048,54.621261692169355 51.78697924944572,54.78236425034993 52.01278344966704,54.81458474486135 52.712776470172685,54.78236425034993 53.09664361056639,54.81458474486135 53.77405621105572,54.78236425034993 54.47404923167778,54.81458474486135 54.65469259175006,54.81458474486135 54.69985343184089,54.68570273263322 54.63211217179196,54.87902571661107 54.519210071652196,54.68570273263322 54.496629651635885,54.58904116334452" stroke="#4dd2ff" stroke-linecap="round" stroke-linejoin="round" stroke-width="0.5"><title>2023-01-15 5.5km</title></polyline><polyline fill="none" points="111.98331412044354,57.06273732589034 112.1212515491643,57.800792014444596 112.13849372777622,58.735655640324694 112.08676719199866,59.178483576353756 112.10400937055238,59.74431721205474 111.98331412044354,60.211743254432804 111.96607194188982,60.99898354933248 112.00055629899725,61.26959636733227 112.01779847766738,61.73701726197032 111.96607194188982,61.90922456236149 111.81089233455714,62.1798356018553 111.74192362016765,62.37664329839754 111.58674401283497,62.62265252583893 111.25914261961589,62.942463868283085 110.93154122645501,63.60668506602815 110.60393983317772,63.90189346471743 110.31082279718248,64.07409807339718 109.77631526085315,64.07409807339718 109.25904990313575,64.12329935084563 109.1211124744732,64.22170185329742 108.84523761697346,64.54150950345502 108.75902672397206,64.98431887687184 108.25900354492478,65.13192168669775 107.84519125870429,65.47632763131696 107.65552729420597,65.7469317012874 107.3451680795988,65.96833463803341 107.15550411504228,66.06673582966323 106.89687143621268,66.23893774676253 106.74169182888,66.41113944977405 106.41409043571912,66.87854299295577 106.32787954271771,67.12454422429437 106.15545775683131,68.08394485159079 106.06924686388811,68.30534405259823 105.82785636361223,68.67434193455847 105.82785636361223,69.26473650088883 105.74164547066903,69.46153413038701 105.48301279183943,69.60913216907647 105.22438011295162,69.5599328403041 104.79332564817742,69.58453250690945 104.32778682623757,69.41233474922774 103.94845889724093,69.33853564471065 103.39670918229967,69.33853564471065 102.93117036035983,69.53533316942048 102.77599075308535,70.37171952980862 102.75874857447343,70.61771455698181 102.48287371703191,70.96210686104314 102.32769410969922,71.40489570803766 102.2242410381441,71.8722823998105 102.08630360948155,72.97924458923808 101.7069756804267,73.91400577077002 101.68973350187298,74.23379104257037 101.55179607315222,74.9225568127149 101.32764775148826,75.1439450829057 101.17246814415557,75.24233975607785 101.10349942976609,75.56212196119304 101.25867903704057,75.70971349917818 101.5345538945403,76.10329016488686 101.56903825170593,76.86584177233453 101.5345538945403,77.13642359164078 101.55179607315222,77.57919270140701 101.63800696609542,77.72678209008882 101.60352260887157,78.16954931271903 101.55179607315222,78.31713807245251 101.6207647874835,79.4732445828704 101.5345538945403,80.03899531628122 101.4483430015971,80.23577763847425 101.41385864437325,80.55554831572226 101.20695250132121,81.3426729918283 101.05177289398853,81.7608311567019 100.82762457232457,83.08908989556949 100.79314021510072,83.70402018375171 100.6034762506606,84.07297704629309 100.46553882193984,84.56491800106596 100.37932792893844,85.03226028989593 100.20690614305204,85.57339149659674 100.20690614305204,85.77016595678288 100.10345307149692,86.38508434320102 99.96551564277615,86.38508434320102 99.13789107045159,86.08992385840975 98.51717264117906,86.08992385840975 98.3792352124583,86.26210088429798 98.10336035501678,86.40968102189072 97.79300114035141,86.87701708698296 97.65506371163065,87.0 96.8446813178598,86.90161367834662 96.43086903169751,86.77863067795988 95.49979138781782,86.63105093339982 94.68940899410518,86.70484082537587 94.48250285093673,86.55726100222091 94.67216681543505,83.99918575235642 94.60319810110377,82.35116994639975 94.67216681543505,81.93301356356824 94.67216681543505,81.61324606613198 94.74113552988274,81.17048985112342 94.68940899410518,81.04750176239759 94.49974502954865,81.02290413159062 94.43077631515916,80.94911121283076 94.43077631515916,80.89991591189755 94.48250285093673,80.87531825482438 94.39629195805173,80.60474373900797 94.4480184938293,80.43255968106678 94.41353413660545,79.81761486970936 94.46526067238301,79.67002770878025 94.51698720816057,78.73530537096667 94.46526067238301,78.31713807245251 94.51698720816057,77.82517492857005 94.41353413660545,77.40700488243601 94.43077631515916,77.16102191267419 94.63768245832762,76.20168415652006 94.6204402797157,75.7589106434898 94.53422938671429,75.56212196119304 93.67212045722408,75.43912889275816 93.12037074234104,75.24233975607785 92.53413667017594,74.9471555268974 91.68926991929766,74.70116818866518 91.58581684774254,74.60277313104598 91.29269981168909,74.47977921082929 91.08579366857884,74.35678518126952 90.74095009680605,74.35678518126952 90.37886434642132,74.08619793190155 90.13747384614544,74.40598280618724 89.53399759548483,74.33218636228412 88.46498252282618,74.47977921082929 88.43049816566054,74.9471555268974 88.49946688005002,75.26693841342058 88.18910766538465,75.24233975607785 88.06841241527582,75.3161357150675 87.86150627222378,75.19314242822293 88.36152945127105,74.08619793190155 88.80982609465718,72.83165014177212 88.84431045188103,72.78245195760974 89.30984927382087,72.70865464874078 89.6719350242056,72.78245195760974 90.275411274808,72.80705105188827 90.41334870358696,72.75785285905295 90.65473920386285,72.61025817567133 90.70646573964041,72.536460775038 90.72370791819412,72.31506833717867 90.620254846639,71.8722823998105 90.22368473903043,71.52789235881937 89.79263027431443,71.23270021351345 89.6719350242056,71.0851039049594 89.56848195265047,70.81451026414288 89.62020848842803,69.60913216907647 89.89608334586956,68.69894175836816 90.12023166759172,68.25614426074026 90.48231741797645,68.01014503922488 90.53404395375401,67.81334534750204 90.4478330607526,67.56734533960116 90.48231741797645,67.29674482623523 90.4478330607526,67.22294459449768 90.32713781064376,67.09994412079686 90.275411274808,66.92774327419465 90.34437998925569,65.96833463803341 90.49955959653016,64.44310722818773 90.51680177514208,63.9756954661425 90.48231741797645,63.7296886419208 90.72370791819412,63.3606775864464 90.72370791819412,63.286875257326756 90.60301266808528,63.016266380931484 90.72370791819412,62.52424888733367 90.67198138241656,62.35204235164565 90.49955959653016,62.05683064943878 90.60301266808528,61.51560756115941 90.82716098974925,60.58076269981393 90.80991881119553,60.50695888935297 90.86164534697309,60.28554722217086 90.84440316836117,59.91652699012775 91.27545763313537,59.670512955854065 91.24097327591153,59.44909995146736 90.96509841847,59.15388206150965 90.94785623991629,59.00627288057876 90.91337188269245,58.16981788378325 90.94785623991629,57.70238494988007 90.91337188269245,57.4563669826166 90.82716098974925,57.136542971784365 90.82716098974925,56.81671822239878 91.05130931147141,56.521494721309864 91.18924674013397,56.398484743374866 91.24097327591153,56.30007668246981 91.25821545452345,55.291390026017325 91.30994199030101,54.20888885637396 91.25821545452345,53.692237588024 91.1375202043564,53.224789541520295 91.17200456158025,51.20736408441735 91.22373109735781,50.46927425736794 91.20648891874589,50.149434110702714 91.18924674013397,49.90340272594767 91.01682495424757,49.75578368529386 91.18924674013397,49.50975160123198 91.60305902629625,49.460545131980325 91.67202774074394,49.38673539526644 91.6375433835201,49.26371908004512 91.29269981168909,49.165305949238245 91.08579366857884,48.96847947771312 90.96509841847,48.79625608563947 90.99958277569385,48.67323924598168 91.06855149002513,48.55022229690803 91.03406713285949,47.61528991335945 91.17200456158025,46.4589174445573 91.10303584724898,45.96684112488583 91.06855149002513,44.78585082384234 90.99958277569385,43.99851836109883 91.03406713285949,43.2603901119146 91.32718416891294,42.91592891589971 91.53409031196497,42.89132451197656 91.53409031196497,42.57146686306805 91.08579366857884,42.3746310195711 91.03406713285949,42.25160847531515 91.08579366857884,41.75951720545709 91.08579366857884,40.4800717200269 91.10303584724898,40.160208501678426 91.08579366857884,39.56968984960986 90.99958277569385,39.02837887320493 90.98234059708193,38.757722591399215 90.8788875255268,38.216408441003296 90.80991881119553,38.14259271103947 90.7926766325836,38.093382202641806 90.70646573964041,38.16719795874087 90.60301266808528,37.74890815358958 90.51680177514208,37.67509217451152 90.63749702530913,37.281406287977006 90.77543445397168,37.08456292495248 90.68922356108669,36.83850832770986 90.620254846639,36.198764328844845 90.60301266808528,35.75586290593492 90.53404395375401,35.485200227893074 90.55128613230772,35.1899312484602 90.4478330607526,34.37793830872397 90.48231741797645,34.3533323876909 91.86169170518406,34.2303027172602 92.5858632059535,33.762788972322596 92.94794895645464,33.66436482494464 94.2755967079429,33.56594060748466 95.12046345882118,33.467516320204595 95.31012742337771,33.467516320204595 96.03429892414715,33.36909196287161 97.08607181813568,33.4183041502838 97.48264192574425,33.2952736489533 97.53436846152181,33.2460614178417 98.3792352124583,33.19684916928236 98.86201621301007,33.12303076355602 99.36203939217376,33.172243038454326 100.18966396449832,33.02460616144526 100.431054464716,33.0 100.67244496499188,33.07381847119541 101.01728853682289,33.270667535602115 101.03453071543481,33.31987975805532 101.01728853682289,33.49212239863118 100.58623407204868,33.63975877712073 99.1551332490053,33.86121304979315 98.68959442706546,34.03345501695003 98.56889917695662,34.2303027172602 98.51717264117906,34.45175604542601 98.48268828395521,34.993084912450286 98.51717264117906,35.583623081140104 98.58614135551034,36.272581094977795 98.60338353418047,36.96153568102454 98.65511006989982,38.093382202641806 98.7240787842893,38.63469683394942 98.70683660567738,39.2990346258739 98.74132096284302,39.249824528364115 98.93098492734134,39.20061441340658 99.03443799889646,39.32363966811681 99.03443799889646,39.372849739389494 98.99995364167262,39.766529680084204 98.99995364167262,40.25862803212658 99.01719582034275,40.603095838057925 98.94822710589506,41.04598175805586 98.96546928456519,41.390447605459485 98.93098492734134,41.7841218104295 98.94822710589506,41.95635392326221 98.86201621301007,42.49765345448395 98.86201621301007,42.96513771066384 98.93098492734134,43.16197271474812 98.94822710589506,43.284994450295926 99.06892235612031,43.38341176004906 99.06892235612031,43.40801607652975 99.01719582034275,44.07233096966229 99.03443799889646,44.170747719792416 99.10340671322774,44.170747719792416 99.12064889183966,45.0810993432824 99.18961760622915,45.15491137477511 99.36203939217376,45.0810993432824 99.56894553516759,45.056495324053685 99.86206257122103,45.0810993432824 100.03448435710743,44.9580792033521 100.29311703605345,44.9580792033521 100.53450753627112,45.031891300488496 101.31040557281813,44.982683240043116 101.4483430015971,45.031891300488496 101.50006953737466,45.15491137477511 101.58628043031786,45.204119374000584 101.77594439475797,45.17951537655608 102.00009271648014,45.25332735560369 102.15527232381282,45.17951537655608 102.34493628825294,45.17951537655608 102.46563153841998,45.2287233669922 102.67253768153023,45.27793133990781 102.75874857447343,45.42555515380809 102.79323293163907,45.770010107487906 102.86220164602855,45.99144498235546 102.81047511025099,46.40970989127527 102.72426421730779,46.68035121797584 102.79323293163907,47.467668433702784 102.7415063958615,47.95973942056298 102.81047511025099,48.52561889405479 102.81047511025099,49.460545131980325 104.00018543301849,49.3621321409737 104.82781000534305,49.460545131980325 106.12097339966567,49.43594189074065" stroke="#4dd2ff" stroke-linecap="round" stroke-linejoin="round" stroke-width="0.5"><title>2022-10-30 7.1km</title></polyline><polyline fill="none" points="174.671968511655,70.52601739905367 174.7174277480226,70.7530311964947 174.74015736609,71.04490566397726 174.46740194835002,71.53136207308853 174.44467233022442,71.92052626720397 174.37648347578943,72.11510805314174 174.17191691254266,72.50427100303932 173.46729875006713,73.41231466019235 172.98997676908039,73.70418487663846 172.64903249696363,73.80147484513873 171.28525540832197,73.8339048230846 170.85339266358642,73.8987647616741 170.78520380915143,73.96362467730069 170.51244839146966,74.35278368717991 170.39880030066706,74.83923128298193 170.2169633556041,75.16352896027092 169.78510061081033,75.13109921851719 169.2168601572048,75.45539637729235 168.92137512139743,75.8769818226574 168.48951237666188,76.33099582903378 168.2394865771057,76.42828439782897 167.76216459600255,76.75257925264305 167.3530314694508,77.27144982237951 167.14846490614582,77.82274818696897 166.98935757915024,78.50376151567616 166.89843910658965,79.11991424344887 166.92116872471524,79.83335164640448 166.85297987028025,80.22249814585666 166.71660216146847,80.67650134686846 166.28473941673292,81.06564604923187 165.5573916360736,81.29264674273145 164.37545149266953,81.13050341901544 163.96631836611778,81.00078865644173 162.6707301319111,80.8710738017835 162.44343395048054,81.35750403176644 162.30705624161055,82.557359725266 162.23886738717556,82.88164369444712 162.07976006017998,82.94650041915884 161.8524638787494,83.20592708760523 161.8979231149424,83.65992287055997 161.7388157879468,84.37334253445442 161.69335655175382,85.02190344640985 161.55697884282563,85.86502918801853 161.30695304326946,86.4487293438142 161.10238647996448,86.80543407608639 161.05692724365508,87.0 160.78417182597332,87.0 160.39776831754716,86.74057872212143 159.920446336444,86.57844023617508 158.1248065031832,86.31901835936878 156.4428147605504,85.99474049494893 155.16995614446932,85.63803417903546 154.05620485544205,85.47589471407991 153.30612745677354,85.08675941085676 152.87426471197978,85.02190344640985 152.44240196724422,85.05433143150003 152.32875387655804,85.76774564723019 151.8741615136969,85.92988485295791 151.46502838708693,85.63803417903546 150.48765480698785,84.56791104994772 150.14671053475467,84.40577063472301 149.26025542721618,84.14634567104804 148.26015222881688,83.9842048814753 147.94193757482572,83.91934852543636 147.82828948413953,83.9842048814753 147.76010062970454,84.0814893724164 146.80545666761464,83.85449214617256 146.3508643047535,83.82206394801324 145.57805728790117,83.46535338759713 145.25984263391,83.14107045500714 145.00981683435384,82.62221656528709 144.96435759804444,82.26550366073207 145.03254645247944,81.13050341901544 145.23711301578442,80.0927827382111 145.3507611064706,79.80092273408081 145.71443499677116,79.34691735584056 146.1917569777579,79.05505615947186 146.1690273596323,78.79562359330885 146.05537926888792,78.40647405276832 146.00992003263673,78.01732368289959 145.89627194189234,77.92003596085124 145.82808308745734,77.4660259058146 145.91900156007614,76.91472646404873 145.96446079632733,76.36342535766016 145.98719041451113,75.2932478698931 146.14629774156492,73.8339048230846 146.1690273596323,73.28259441422415 146.48724201362347,72.89343312325946 146.53270124999108,72.56913141394034 146.50997163174907,71.7259442738432 146.21448659599992,71.07733613160963 146.2599458321929,70.59087851282675 146.3281346866279,68.93691291401046 146.48724201362347,68.48288052075077 146.87364552210784,68.19100195742794 147.07821208541282,68.1261399910727 147.1236713216058,67.93155395386566 146.98729361285223,67.67210558148508 146.73726781317964,67.41265684054815 146.66907895886106,67.18563888978679 146.71453819511225,65.59650533040985 146.55543086805847,64.98030696339265 146.57816048618406,64.33167485658487 146.87364552210784,63.84519926413486 147.05548246728722,63.715472220646916 147.1236713216058,63.48844967262994 147.1009417035384,62.061444335078704 147.191860176099,61.08847975557728 147.1691305579734,60.47226617317938 147.05548246728722,59.9533478590165 147.01002323097782,58.91550680606451 147.05548246728722,57.87765985308215 147.01002323097782,57.520898600356304 147.1009417035384,56.353311444370775 147.1464009398478,56.15871285904723 147.1236713216058,55.41274969378719 146.85091590398224,55.02355031062325 146.80545666761464,54.893816998490365 147.2827786487178,54.601916709158104 147.53280444827396,54.634350097738206 147.62372292083455,54.21271559741581 146.89637514029164,53.985681232356 146.82818628585665,53.95324772855383 146.73726781317964,53.401877282958594 146.85091590398224,53.142408261672244 146.80545666761464,52.26669759242213 146.91910475841723,46.752867258459446 147.05548246728722,46.13660528618493 147.2373194124084,46.03930057413527 147.55553406639956,45.974430737274815 147.71464139339514,45.81225604418432 147.64645253896015,45.617646222322946 147.2373194124084,45.585211231853464 147.03275284910342,45.195990896681906 147.1009417035384,44.482418126790435 147.03275284910342,43.73640724871075 146.94183437654283,43.31474757770775 146.98729361285223,42.86065145826433 146.96456399461022,41.85514888826583 146.91910475841723,41.336177652934566 146.73726781317964,40.36310261000472 146.62361972255167,39.487330636547995 146.41905315918848,38.903480320062954 146.53270124999108,38.06013767737022 146.3281346866279,37.573592072716565 146.1917569777579,36.989735635361285 146.1690273596323,36.60049697307113 146.2372162140673,36.01663742327946 146.1690273596323,35.5949599204032 146.1690273596323,35.205718284036266 146.14629774156492,34.4596694943757 146.2826754503185,34.39479554240825 147.3055082668434,34.55698037899856 147.80555986595573,34.55698037899856 148.78293344611302,34.102862473460846 149.1238777183462,33.81092893789173 150.23762900731526,33.90824016831175 151.57867647783132,33.68118054982915 152.32875387655804,33.64874343844713 152.87426471197978,33.45412064899574 154.01074561919086,33.48655779499677 154.30623065505642,33.421683497261256 154.76082301791757,33.45412064899574 155.4199819440255,33.35680917654827 155.4427115622675,33.227060465695104 156.03368163394043,33.194623273651814 156.60192208754597,33.25949765201949 156.98832559597213,33.09731166274287 157.2610810137703,33.09731166274287 158.60212848416995,33.09731166274287 159.32947626482928,33.0 159.85225748212542,33.09731166274287 160.19320175424218,33.29193483259587 160.1704721361166,33.48655779499677 160.079553663556,33.616306321302545 160.35230908123776,33.81092893789173 160.55687564454274,33.746054755334626 160.9432791529689,33.778491849501734 161.0341976255295,34.39479554240825 161.07965686183888,35.53008637204766 161.26149380696006,36.27613078705326 161.39787151583005,38.189882952850894 161.53424922475824,39.000788835881394 161.55697884282563,40.492846248758724 161.62516769731883,40.91451243785559 161.57970846095122,41.46592060003604 161.69335655175382,42.276811930627446 161.62516769731883,43.63910125718394 161.69335655175382,43.73640724871075 161.7842750243144,44.3202421082824 161.76154540618882,44.709464310639305 161.8297342606238,45.585211231853464 161.6706269335118,46.460953951987904 161.8524638787494,47.109649554724456 161.94338235131,48.08268863672856 161.7842750243144,48.698944039599155 161.76154540618882,48.89355057674402 161.8979231149424,50.547697766523925 161.8979231149424,51.03420879342593 161.96611196937738,51.84505762392655 161.94338235131,52.46130032642395 162.07976006017998,54.11541518976446 162.17067853274057,54.21271559741581 162.46616356860613,54.73165022871399 162.94348554959288,54.991116991252056 163.37534829432843,55.5424826372182 163.7390221846872,55.7695150662621 163.96631836611778,55.80194824723003 164.07996645680396,56.02898035357066 164.42091072897892,56.38574452181638 164.94369194621686,56.774941001000116 165.21644736395683,57.099270766513655 165.33009545464301,57.42359995591687 165.4437435453874,57.65063004566764 165.67103972681798,57.84522704077244 165.85287667193916,57.94252546048665 165.87560629018117,57.87765985308215 166.67114292515907,57.84522704077244 167.3757610875764,57.71549573376251 167.87581268674694,57.812794222612865 168.01219039567513,58.169554904903634 167.98946077743312,58.558747581453645 167.89854230487254,58.72091095174255 167.62578688719077,58.68847828917205 168.05764963186812,58.234420408596634 168.08037925011013,58.169554904903634 168.2622161952313,58.03982382842514 168.51224199472927,57.71549573376251 169.148671302828,57.87765985308215 169.51234519307036,58.20198765958776 170.39880030066706,59.53172564280976 170.51244839146966,59.596590662549715 170.87612228171201,60.08307757592411 171.30798502644757,60.43983382181614 171.62619968043873,60.5371308587637 171.8762254799949,60.69929247183609 172.10352166142548,61.2506408788322 172.30808822473045,61.44523403675703 174.85380545677617,61.44523403675703 174.94472392945318,61.57496269348485 174.8083462205832,61.96414811057912 174.8083462205832,62.45062871513073 174.671968511655,62.58035665746138 174.5128611846594,63.03440372967452 174.87653507501818,63.52088148245821 175.03564240201376,64.0722213685658 174.76288698421558,65.69379961934465 174.76288698421558,66.18027028608776 174.83107583865058,66.69917090190575 174.85380545677617,67.63967450907512" stroke="#4dd2ff" stroke-linecap="round" stroke-linejoin="round" stroke-width="0.5"><title>2022-10-23 6.7km</title></polyline><polyline fill="none" points="39.93585446313955,93.0 39.743417852791026,96.02048841072246 39.87170892651193,97.1188434426731 39.87170892651193,98.94942995902966 39.99999999976717,100.23083665047307 39.93585446313955,101.14612519310322 39.80756338941865,101.42071143907378 39.679272316163406,102.24446929825353 39.99999999976717,106.63782230397919 39.99999999976717,108.01073743554298 40.19243661011569,108.83448475878686 40.25658214674331,109.74975801739492 40.06414553686045,111.58029965707101 40.12829107348807,112.7701482354023 39.99999999976717,113.13625493753352 40.25658214674331,114.41762634599581 40.19243661011569,116.52272959900438 41.4753473456949,118.078669954004 40.96218305150978,120.64138500139234 40.89803751464933,121.83121265502996 40.96218305150978,122.5634129223472 39.99999999976717,126.865068479412 40.06414553686045,128.5125015222584 38.909525874769315,133.1801998731098 38.973671411629766,133.91238401280134 38.65294372756034,138.39698916708585 38.33221604395658,139.12916589397355 37.94734282325953,140.5935162261303 36.4719954773318,142.79003392189043 35.894685646286234,143.52220440647216 34.419338300591335,144.5289371238905 33.58544632233679,144.8035002507968 29.736714116297662,145.07806323139812 28.389657843858004,144.8950212604832 27.106747108278796,143.79676806979114 27.748202476184815,141.14264652796555 31.404498072108254,138.58003344628378 34.483483837451786,137.664811399678 35.958831182913855,137.664811399678 37.56246960256249,138.0309004134033 38.46050711721182,139.95286346782814 37.11345084500499,142.42394828947727 35.57395796268247,144.07133158715442 34.03446508012712,144.8035002507968 31.468643609201536,145.16958419262664 29.67256857920438,145.26110513749882 28.77453106455505,145.07806323139812 27.49162032897584,144.5289371238905 27.042601571651176,141.87481935342657 27.940639086533338,140.86808145034593 30.891333778155968,139.12916589397355 31.468643609201536,138.48851131487754 32.55911773419939,137.847855939297 34.22690169024281,137.7563336773892 37.434178528841585,138.21394482278265 38.52465265407227,139.861341580312 38.07563389651477,140.50199445238104 36.728577624307945,142.79003392189043 34.9966481316369,144.4374160488951 33.07228202838451,144.8950212604832 30.763042704435065,145.16958419262664 29.67256857920438,145.16958419262664 27.940639086533338,144.5289371238905 27.042601571651176,143.3391618828755 27.49162032897584,141.6002546658856 27.940639086533338,141.05112485183054 30.763042704435065,139.2206879116129 33.52130078570917,137.847855939297 34.74006598442793,137.7563336773892 37.17759638186544,138.0309004134033 38.3963615805842,139.49525386706227 37.30588745535351,141.6917762446683 36.4719954773318,142.97307664059917 34.547629374079406,144.3458949578926 33.777882932685316,144.62045818252955 31.7893712928053,144.98654225413338 29.48013196908869,144.98654225413338 28.06893016002141,144.8035002507968 26.978456035023555,142.69851253836532 28.77453106455505,140.41047266242094 29.351840895600617,140.13590719440253 31.340352535480633,138.6715555615374 33.58544632233679,137.847855939297 34.9966481316369,137.847855939297 37.04930530837737,138.0309004134033 38.268070506863296,138.39698916708585 38.71708926442079,139.2206879116129 38.268070506863296,140.04438533913344 36.98515977151692,142.24090537600568 36.15126779326238,143.43068315289565 35.50981242558919,144.07133158715442 34.29104722710326,144.71197922478314 30.44231502059847,145.35262606589822 29.095258748624474,144.98654225413338 27.748202476184815,144.4374160488951 26.978456035023555,143.6137256437505 26.850164961302653,142.42394828947727 27.29918371862732,141.50873307077563 28.90282213827595,139.58677581962547 29.351840895600617,139.49525386706227 31.404498072108254,138.48851131487754 33.32886417536065,137.7563336773892 37.30588745535351,137.93937818452832 38.3963615805842,139.31220991315786 37.56246960256249,141.41721145936754 37.434178528841585,142.332426840876 39.35854463209398,142.24090537600568 41.28291073534638,142.332426840876 43.20727683836594,142.24090537600568 48.78793853777461,140.77655972517096 50.776450177654624,140.68503798393067 52.1876519867219,140.68503798393067 53.21398057509214,141.78329780703643 52.82910735462792,142.51546972212964 51.86692430288531,143.52220440647216 50.712304641027,144.07133158715442 49.493539442075416,144.25437385038822 48.40306531707756,144.16285272687674 45.516516162315384,144.5289371238905 42.75825808104128,145.07806323139812 35.57395796268247,145.90175129589625 32.174244513502344,146.54239665772184 29.287695358740166,146.7254380431841 27.812348013045266,147.0 27.2350381819997,146.17631369130686 27.748202476184815,145.62718875388964 27.876493549672887,144.62045818252955 27.106747108278796,143.79676806979114 26.850164961302653,142.88155528955394 26.914310497930273,142.42394828947727 27.876493549672887,140.41047266242094 29.415986432228237,139.67829775618156 29.736714116297662,139.40373189823003 33.07228202838451,137.7563336773892 35.253230278613046,137.57328910575598 37.498324065702036,137.847855939297 38.139779433608055,138.21394482278265 38.268070506863296,138.58003344628378 38.268070506863296,139.49525386706227 36.728577624307945,142.97307664059917 35.76639457303099,143.97981043116306 35.06079366826452,144.4374160488951 34.03446508012712,144.8035002507968 32.43082666071132,145.07806323139812 29.929150726413354,145.16958419262664 27.106747108278796,144.16285272687674 26.786019424675032,142.42394828947727 27.170892645372078,141.14264652796555 32.04595344001427,138.3054670028796 34.03446508012712,137.93937818452832 37.04930530837737,138.0309004134033 38.3963615805842,139.58677581962547 37.04930530837737,142.05786239696317 35.38152135233395,143.79676806979114 34.61177491093986,144.16285272687674 32.36668112385087,144.98654225413338 30.955479314783588,145.07806323139812 28.325512307230383,144.71197922478314 27.2350381819997,144.07133158715442 26.786019424675032,142.79003392189043 27.29918371862732,141.05112485183054 28.325512307230383,140.3189508561045 31.9176623665262,138.21394482278265 33.07228202838451,138.0309004134033 34.80421152128838,137.7563336773892 37.56246960256249,138.0309004134033 38.52465265407227,139.2206879116129 36.85686869802885,142.42394828947727 36.3437044036109,143.06459797543357 35.44566688896157,143.97981043116306 34.355192763730884,144.5289371238905 33.008136491756886,144.98654225413338 31.532789145829156,145.07806323139812 29.287695358740166,145.16958419262664 28.517948917578906,145.07806323139812 26.978456035023555,143.97981043116306 26.914310497930273,142.42394828947727 27.042601571651176,141.6917762446683 27.812348013045266,140.77655972517096 28.325512307230383,140.3189508561045 32.110098976874724,138.21394482278265 34.74006598442793,137.664811399678 37.69076067605056,137.93937818452832 38.33221604395658,139.76981967652682 37.24174191849306,141.78329780703643 36.600286550819874,142.69851253836532 35.70224903593771,143.52220440647216 34.61177491093986,144.3458949578926 33.32886417536065,144.8950212604832 31.85351682966575,145.07806323139812 30.44231502059847,145.07806323139812 27.042601571651176,143.97981043116306 26.850164961302653,142.332426840876 27.2350381819997,141.23416818800615 28.06893016002141,140.3189508561045 30.698897167807445,139.2206879116129 31.85351682966575,138.39698916708585 32.815699881408364,138.0309004134033 34.355192763730884,137.664811399678 35.63810349931009,137.57328910575598 36.98515977151692,137.847855939297 39.23025355860591,137.57328910575598 39.550981242442504,136.20045274394215 39.35854463209398,135.37674917126424 39.93585446313955,131.4412583708181 40.384873220464215,129.4277398257691 40.25658214674331,125.49220358615275 40.64145536744036,124.11933503567707 40.57730983081274,122.38036295311758 40.64145536744036,121.46511213114718 40.83389197778888,120.54985968355322 40.83389197778888,119.2685035255563 40.64145536744036,118.71934991082526 40.57730983081274,117.98714418089367 40.70560090453364,117.52951507107355 40.76974644116126,115.60746837200713 40.51316429418512,114.05152055437793 40.76974644116126,112.03793405077886 40.76974644116126,111.305718825839 40.449018757091835,110.024339678057 40.384873220464215,109.10906690708362 40.449018757091835,107.64462709170766" stroke="#4dd2ff" stroke-linecap="round" stroke-linejoin="round" stroke-width="0.5"><title>2021-06-24 5.0km</title></polyline><polyline fill="none" points="73.97206703922711,144.15824439258722 74.00558659224771,143.53640408237698 73.97206703922711,143.0580644048896 73.8715083799325,142.57972387727932 73.8715083799325,141.5752060029481 73.60335195541847,140.5706843801745 73.77094972075429,139.66182825360738 73.73743016773369,139.2313163857616 73.53631284926087,138.32245573720138 73.26815642474685,137.8919417274592 73.16759776545223,136.5047252348595 73.0335195530206,136.07420831795025 73.0,135.1175015934714 73.16759776545223,134.68698245809355 73.60335195541847,134.5434759268246 75.0446927373996,134.44780486324453 75.54748603363987,134.30429820434074 75.81564245815389,133.87377776851645 75.94972067035269,132.96489903178008 75.74860335199628,132.5343764537247 75.44692737434525,132.19952508376446 75.48044692736585,131.6733292323479 75.34636871516705,131.2906406942202 75.07821229053661,130.86011543862696 74.9441340782214,130.38175323605537 75.07821229053661,129.2815169437672 74.97765363135841,128.2291128042707 75.011173184379,127.27237819808943 74.97765363135841,126.74617271509487 74.8770949721802,126.31564019146026 74.97765363135841,124.78485230784281 75.0446927373996,124.35431664714997 74.81005586590618,123.39756826915254 74.81005586590618,122.39297881245147 74.67597765370738,121.9146015628794 74.50837988837156,120.95784451358486 74.64245810068678,120.47946471360046 74.70949720672797,119.9054078313784 74.54189944139216,118.9486436406005 74.54189944139216,118.03971450969402 74.67597765370738,116.98726641814574 74.60893854754977,116.41320208852994 74.64245810068678,113.92557584587485 74.54189944139216,113.49502281605965 74.64245810068678,111.82064337622433 74.74301675986499,111.34224733751034 74.74301675986499,110.28977305945591 74.67597765370738,108.23265236086445 74.40782122919336,107.37152740037709 74.50837988837156,106.94096388723119 74.57541899441276,105.55358788149897 74.64245810068678,105.12302146025468 74.40782122919336,103.63995407054608 74.37430167593993,102.15687850948598 74.20670391072053,100.48242853823467 74.64245810068678,100.24322054930963 75.07821229053661,100.19537892594235 76.58659217879176,100.19537892594235 78.12849162018392,100.05185400486516 78.56424581015017,100.14753729407676 79.06703910615761,99.95617068180582 79.56983240228146,100.00401234760648 81.54748603352346,100.53027011059748 82.55307262565475,100.57811167452019 84.43016759783495,100.96084387869632 86.37430167593993,101.15220977678837 90.16201117320452,101.20005123011651 92.60893854754977,101.67846529488452 95.75977653637528,101.91767200840695 98.30726256978232,102.10903722621151 98.77653631288558,101.91767200840695 101.9608938547317,101.91767200840695 106.55307262577116,102.10903722621151 107.9608938547317,102.3004023078538 109.36871508380864,102.25256105021981 110.47486033523455,102.06119593445328 113.52513966488186,102.15687850948598 115.40223463694565,102.06119593445328 116.30726256989874,101.96551332555828 119.25698324025143,101.96551332555828 119.75977653625887,101.86983068275731 120.16201117320452,101.63062392656866 120.63128491619136,101.53494116474758 122.67597765359096,101.43925836865674 123.17877094971482,101.29573411097226 124.62011173192877,101.43925836865674 125.62569832406007,101.63062392656866 126.1284916200675,101.82198934846383 126.53072625701316,102.10903722621151 127.0,102.25256105021981 126.73184357536957,101.91767200840695 126.36312849156093,101.63062392656866 126.46368715085555,101.15220977678837 126.0614525139099,100.86516087860218 124.65363128494937,100.19537892594235 124.21787709498312,100.09969565380015 123.84916201117449,99.81264563319564 123.41340782120824,99.62127878285537 121.56983240228146,99.76480393340171 120.69832402234897,99.42991179630917 120.32960893854033,99.19070287179784 119.86033519555349,99.04717741513741 119.18994413409382,98.42523288496886 118.9553072626004,98.0424970752938 118.75418994412757,97.56407654765644 118.51955307263415,96.1766522089165 118.18435754184611,95.84175560741278 115.83798882679548,96.22449454662274 113.12290502793621,96.9899707921868 112.15083798894193,97.03781298529066 110.77653631276917,96.65507520262327 109.9050279330695,96.1288098628429 109.46927374310326,95.98528277334117 108.93296089384239,95.98528277334117 107.55865921790246,95.9374403932452 106.55307262577116,96.08096750825644 104.67597765359096,96.08096750825644 99.78212290513329,96.36802150844596 99.41340782120824,96.65507520262327 99.17877094971482,97.08565516979434 99.17877094971482,97.5162344481796 99.31284916203003,98.4730748229631" stroke="#4dd2ff" stroke-linecap="round" stroke-linejoin="round" stroke-width="0.5"><title>2021-04-25 5.4km</title></polyline><polyline fill="none" points="168.7250069444999,145.99666628966224 168.68105224962346,146.278854472097 168.3953467325773,146.40427129720047 166.7910003674333,146.12208331523289 166.50529485032894,146.24750025183312 166.17563463834813,146.278854472097 165.25258604466217,146.21614602602494 164.966880527616,146.24750025183312 164.3295374510344,146.05937481370347 162.54937230621,145.683123335868 160.65932042407803,145.96531201935431 160.0,145.74583197110042 159.95604530506535,145.43228857193026 160.02197734743822,144.46030049536785 159.71429448295385,144.4289459522115 159.09892875381047,144.39759140342358 158.13192546524806,144.1467548130604 157.86819729569834,143.95862713643874 157.53853708365932,143.4569523518294 157.4286503463518,143.1434048876108 157.25283156655496,142.86121169361286 156.967126049567,142.6730826471321 154.8133459977107,142.3281788744789 154.76939130277606,142.64172778649663 154.8133459977107,142.92392133134126 154.74741395527963,143.26882394007407 154.571595175541,143.51966177785653 153.97820679395227,143.77049925924803 153.3628410649253,143.92727250405005 152.70352064090548,143.98998176310852 152.43979247123934,144.1467548130604 152.28595103899715,144.83655457917484 151.97826817445457,145.77718628045113 151.91233613202348,146.05937481370347 151.89035878458526,146.3415628956427 152.0002455218928,146.655104680176 151.73651735222666,146.78052123809175 151.5167438776698,147.0 151.27499305544188,146.81187536368088 151.7584946997813,145.58906034108077 152.11013225925853,144.36623684914957 152.37386042880826,143.80185391934356 152.59363390348153,143.55101648258278 152.90131676802412,143.51966177785653 154.17600292118732,143.64508056301565 154.4836857857299,143.55101648258278 154.65950456541032,143.33153343304002 154.7913686502725,142.98663094661606 154.74741395527963,142.70443750217964 154.59357252303744,142.39088870145497 154.3957763958606,142.17140420955548 154.0880935312598,141.98327442801383 153.86832005658653,141.7637894294603 153.67052392940968,141.54430415794195 153.5166824971675,141.23075329695712 153.42877310723998,140.94855704576185 153.38481841236353,139.9765442837961 153.42877310723998,139.69434602782712 153.6045918870368,139.03588167656562 153.89029740408296,138.12656972542754 154.35182170086773,137.71894560630608 154.54961782810278,137.4994553061988 154.50566313316813,136.90369454461324 154.19798026862554,136.33928775790264 154.35182170086773,135.74352308119705 154.30786700593308,135.39860577046056 154.43973109073704,134.42656245104445 154.571595175541,132.26296294477652 154.65950456541032,131.98075235863507 154.8133459977107,131.6671845117089 154.76939130277606,131.07140406785766 154.85730069264537,130.44426458638918 154.70345926040318,130.16205109281873 154.6375272179721,129.2213361895847 154.7254366078414,128.90776344103506 154.7254366078414,127.68482440031948 155.09905151475687,127.15174575681158 155.38475703186123,127.12038813946128 155.4506890742923,126.8068116591312 155.23091559961904,126.61866550365812 155.05509681988042,126.33644589426694 154.98916477744933,125.45842644677032 154.98916477744933,124.83126702479785 154.8792780400836,123.85916551748232 154.90125538752181,123.5455832441221 154.9671874299529,123.23200041381642 155.34080233686836,122.79298351552279 155.49464376916876,122.51075779007806 155.53859846410342,122.19717312142893 155.49464376916876,121.60136071643501 155.56057581154164,120.31565341164242 155.362779684423,118.46547280786035 155.362779684423,118.18324016372208 155.29684764199192,117.24246142384072 155.38475703186123,116.58391332278552 155.38475703186123,114.95321221301856 155.34080233686836,114.63961411864148 155.14300620974973,114.38873524201335 155.25289294705726,114.10649607962114 155.58255315909628,113.98105630712234 155.86825867620064,113.98105630712234 156.04407745588105,113.69881649290619 155.4287117268541,113.51065636602289 155.18696090462618,113.32249603858509 155.09905151475687,113.00889504721272 155.18696090462618,112.69529349860386 155.14300620974973,112.06808873011323 155.18696090462618,111.78584585721546 155.16498355718795,111.47224213586014 155.2748702945537,110.87639353028499 155.31882498943014,109.9355758473248 155.31882498943014,109.62196883870638 155.20893825218081,108.9947531499347 155.25289294705726,108.36753523242078 155.20893825218081,108.02256442782527 155.1210288621951,107.70895402035967 155.18696090462618,107.3953430558031 155.1210288621951,107.08173153405369 155.14300620974973,106.45450681891816 155.31882498943014,105.89000266963558 155.53859846410342,105.70183421870752 155.86825867620064,105.60774991799553 155.80232663376955,105.29413522023242 155.5166211166652,105.262773719689 155.31882498943014,105.04324306068884 155.20893825218081,104.7609889551095 155.2748702945537,103.82013867652859 155.25289294705726,101.27981787431054 155.01114212494576,100.0566874115757 154.7254366078414,99.2098998183501 154.571595175541,98.89627375283453 154.61554987053387,98.614009817451 154.8133459977107,98.36310816268087 154.8792780400836,98.08084337456967 154.74741395527963,97.76721530297073 154.59357252303744,97.1085945385712 154.571595175541,96.44997131648415 154.52764048060635,96.13634034700226 154.43973109073704,94.91317424077715 154.7254366078414,94.75635746031185 155.6924398964038,94.69363070916734 156.5715337950969,94.5368137335463 156.5715337950969,94.22317936451873 156.70339787990088,93.94090795583907 157.03305809188168,93.94090795583907 157.62644647347042,93.75272676590248 158.26378955005202,93.72136321471771 158.5714724145946,93.78409031145566 159.186838143738,93.68999965800322 159.47254366084235,93.72136321471771 160.65932042407803,93.62727252791228 162.57134965370642,93.31363654250163 163.1207833403605,93.34500016612583 163.4284662049031,93.28227291333314 163.6702170270728,93.12545468384633 164.3295374510344,93.0 166.50529485032894,93.15681834088173 167.1206605793559,93.06272735304083 167.45032079145312,93.09409102119389 167.7580036559375,93.21954563834879 168.02173182560364,93.43909100358724 167.9118450882379,93.72136321471771 166.703090977564,94.06636197101034 166.35145341808675,94.12908894497377 165.7580650364398,94.12908894497377 165.1207219598582,94.28590628292295 164.85699379030848,94.44272348139202 164.81303909531562,94.75635746031185 164.92292583273957,96.07361408618453 164.8789711377467,96.73223871260416 164.92292583273957,98.01811780489516 164.9449031801778,98.33174543069617 164.92292583273957,98.95899901053053 164.98885787505424,99.24126239422185 164.9449031801778,99.55488784666522 164.98885787505424,99.86851274191577 164.966880527616,100.18213707982795 165.01083522255067,100.49576086056186 164.9449031801778,101.09164450869139 164.966880527616,101.46799103931698 165.09874461241998,102.65974975959398 165.09874461241998,103.00473104526463 165.1866540022893,104.07103257450217 165.09874461241998,104.35328778346593 165.25258604466217,104.98051996516006 165.40642747696256,105.29413522023242 165.38445012952434,105.60774991799553 165.2745633921586,106.17225496987521 165.2745633921586,106.51722939062165 165.23060869722394,106.83084191540547 165.25258604466217,107.17581504907866 165.2086313497275,107.4580652933073 165.25258604466217,108.36753523242078 165.31851808709325,108.68114446972322 165.31851808709325,108.9947531499347 165.47235951939365,109.62196883870638 165.29654073965503,109.90421517154027 165.2745633921586,110.18646105300286 165.4284048244008,110.4373459022172 165.49433686683187,111.40952132472012 165.49433686683187,112.03672843324603 165.45038217189722,112.63257312204223 165.5163142143283,113.54201640107203" stroke="#4dd2ff" stroke-linecap="round" stroke-linejoin="round" stroke-width="0.5"><title>2021-04-11 9.4km</title></polyline><polyline fill="none" points="53.054901478171814,173.82387358650158 52.64046016137581,173.9172486110765 52.24783154553734,173.9172486110765 51.87701563053997,173.82387358650158 51.50619971554261,173.854998600189 51.00450759526575,173.66824843491486 50.786380586447194,173.82387358650158 50.175624961731955,173.886123608434 45.725833981705364,173.79274856718257 42.126738336111885,173.854998600189 41.95223672897555,173.69937347623636 41.93042402813444,172.70336940935522 42.0176748316735,171.58285806581262 41.97404942987487,171.08485072378244 41.755922420998104,170.9603486671549 40.665287376905326,171.1471017190197 39.749153939890675,171.20935269199254 39.007522109895945,171.1782272082637 37.982325168384705,171.24047817019164 37.52425844990648,171.02259970649902 37.50244574894896,170.64909313834505 37.52425844990648,170.24446012418775 37.45882034726674,169.49744287366048 37.50244574894896,169.27956224225636 37.48063304810785,168.59479277937498 37.43700764630921,168.2212810352794 37.34975684277015,167.84776849468471 37.2843187401304,167.31862436572555 37.19706793659134,166.04244665593433 37.17525523575023,164.17485276289517 37.10981713311048,164.11259929013613 37.044379030470736,163.49006334690785 37.10981713311048,163.20992145068885 37.08800443226937,163.05428687037784 37.13162983395159,162.77414427735494 37.19706793659134,162.64963631439605 37.17525523575023,162.4006201231532 37.2843187401304,162.1516035778477 37.26250603928929,161.9025866786542 37.17525523575023,161.7469509368093 37.13162983395159,160.96877015399514 37.02256632957142,160.6263695145317 36.97894092777278,160.0972035734594 37.02256632957142,159.72367371147266 37.80782356130658,159.28788786595396 37.93869976658607,158.9143562784011 37.91688706574496,158.3851851659274 37.45882034726674,157.88714030580013 37.240693338389974,157.94939599078498 36.89169012429193,157.5447336431389 36.91350282513304,156.70427808820386 36.86987742339261,156.08171581823262 36.82625202159397,155.67704915636568 36.84806472249329,154.8054562480247 36.97894092777278,154.43191510270117 37.30613144108793,154.27627272372774 37.61150925338734,154.214015733407 38.24407757894369,154.18288722992293 38.614893493941054,154.08950168637966 39.051147511578165,154.08950168637966 39.770966640731785,153.62257322197547 39.83640474337153,153.4046728459798 39.70552853809204,153.21790087937552 39.182023716915864,153.0 38.06957597192377,153.12451482133474 37.34975684277015,153.06225742169772 37.0007536286721,153.12451482133474 36.56449961097678,153.46693012383184 36.58631231193431,154.52530046366155 36.58631231193431,156.57976581116964 36.76081391895423,158.9143562784011 36.80443932075286,160.28396820568014 36.28093449957669,160.75087891537987 34.92854704480851,160.5952421505208 33.44528338487726,160.56411478083464 33.07446746987989,160.6263695145317 32.48552454600576,160.56411478083464 31.416702202754095,160.56411478083464 30.522381466580555,160.50186002512055 29.017305105691776,160.47073263891798 27.62129224918317,160.37735044723377 27.33772713772487,160.37735044723377 27.075974727165885,160.6263695145317 27.18503823154606,161.21778838062892 27.20685093238717,161.77807809629303 27.250476334185805,162.1516035778477 27.18503823154606,162.3383660200052 27.20685093238717,162.89865215189639 27.16322553070495,163.24104835024627 27.14141282980563,164.51724646697403 27.18503823154606,165.04639905712975 27.664917650981806,165.26428495334403 27.79579385620309,165.26428495334403 28.03573356597917,165.13977876013087 28.34111137833679,165.48217057839793 28.0793589677196,165.60667652834672 27.44679064216325,165.57555004913593 27.05416202620836,166.01132025419793 27.05416202620836,166.6649735293904 27.075974727165885,167.2874981907662 27.16322553070495,168.2212810352794 27.16322553070495,169.74644897773396 27.097787428006995,170.6802187160647 27.01053662452614,171.24047817019164 27.01053662452614,172.14311463330523 26.923285820987076,172.67224419098056 27.097787428006995,173.17024702069466 27.555854146543425,173.35699771689542 27.708543052722234,173.79274856718257 27.512228744802997,173.79274856718257 27.18503823154606,174.3529980679159 27.33772713772487,174.63312214644975 27.228663633344695,175.7536139817239 27.18503823154606,178.36806706307107 27.35953983856598,179.83089878944156 27.33772713772487,181.16922350005188 27.272289035085123,182.07180881185923 26.748784213908948,183.1611297201307 26.792409615707584,183.59685618705407 26.923285820987076,184.59279832814354 26.901473120087758,185.89996379699733 27.18503823154606,186.46017458412098 26.836035017389804,187.05150624939415 26.70515881216852,187.20711951388512 26.552469905931503,187.64283591903222 26.59609530773014,188.20304113344173 26.552469905931503,189.72803514296538 26.748784213908948,190.13262316255714 26.639720709528774,193.02695636315912 26.661533410369884,193.27592902891047 26.836035017389804,193.46265829606273 26.901473120087758,193.7116303426592 26.923285820987076,194.33405891149596 26.748784213908948,196.13908925764554 26.44340640155133,196.5747834520007 26.334342897112947,196.8237510765175 26.42159370071022,197.01047656284936 26.247092093573883,197.50841022013628 25.701774571556598,197.94410100960522 25.330958656559233,199.25116687771515 25.287333254760597,200.43374188095913 25.309145955601707,200.80718496069312 25.39639675919898,201.1183869192173 25.614523768017534,201.42958832497243 25.898088879534043,201.64742898014083 26.334342897112947,201.9275094246841 26.574282606889028,202.20758942136308 26.639720709528774,202.36318922619103 26.59609530773014,202.8922275288205 26.181653990934137,203.17230598369497 25.919901580375154,203.26566536900646 25.78902537509566,203.39014447231602 25.5708983662189,203.35902470478322 25.37458405829966,203.45238399071968 25.483647562738042,203.63910241346457 26.028965084755328,204.01253866193292 26.487031803349964,204.1992564877728 26.639720709528774,204.38597411458613 26.836035017389804,204.54157198501343 27.18503823154606,204.7282892470539 27.49041604390368,204.7282892470539 27.708543052722234,205.03948424189002 28.384736780135427,205.7241112847114 31.264013296575285,206.96888087352272 31.591203809774015,207.0 31.65664191241376,206.28425869399507 31.63482921157265,205.9108272867452 31.65664191241376,205.41291750587698 31.852956220391206,204.94612580147805 31.91839432308916,204.47933285344334 32.37646104156738,204.0436583134142 32.703651554882526,204.2926153260487 33.29259447869845,204.60381109449372 34.51410572801251,204.82164780356106 35.277550258964766,205.00836476717086 36.193683695979416,205.10172317443357 37.2843187401304,205.31955926449155 38.265890279901214,205.47515630595444 38.854833203717135,205.69299193179177 39.901842846069485,205.94194660104404 40.57803657336626,205.66187257329875 40.643474676064216,205.25732040933508 40.88341438572388,204.4170936998271 40.99247789016226,204.1992564877728 41.14516679634107,203.70134184346534 41.18879219813971,203.2967851531721 41.47235730965622,201.80302928230958 41.49417001049733,201.46070843510097 41.64685891667614,200.58934326090093 41.581420813978184,200.46486216808262 41.62504621577682,199.65573290859174 41.95223672897555,198.84659991278022 41.97404942987487,197.9129802747484 41.995862130774185,197.78849728054774 42.21398913965095,197.4461685903516 42.301239943131804,197.41504776722286 42.279427242290694,197.25944356834225 42.25761454133317,197.25944356834225 42.36667804577155,197.13496010983363 42.584805054590106,196.79263014283788 42.51936695195036,196.23245239045355 42.65024315728806,195.36106121620105 42.584805054590106,194.95648526927107 42.475741550151724,194.55190838822455 41.53779541217955,194.05396632905467 41.71229701931588,193.86723769211676 41.755922420998104,193.27592902891047 41.86498592549469,193.02695636315912 41.97404942987487,192.93359152223275 41.69048431847477,191.56423480730155 41.79954782279674,191.43974730251648 41.84317322465358,191.4708691869455 41.908611327176914,191.4086254125432 42.06130023347214,190.4438440803351 42.03948753251461,189.88364603021182 42.51936695195036,189.0122232811991 43.457313089922536,189.16783480430604 43.806316303962376,189.26120165169414 44.41707192873582,189.32344618914067 46.24933880288154,189.32344618914067 46.53290391433984,189.35456844947475 47.10003413731465,189.44793519745872 47.27453574433457,189.57242411738844 47.383599248714745,189.38569070439553 47.40541194967227,188.79436691677256 47.71078976197168,188.5142654787196 47.819853266351856,188.32753093798237 48.4306088911253,187.89181623543845 51.02632029610686,187.92293875016912 52.57502205873607,187.86069371527992 53.53478089766577,187.89181623543845 53.81834600906586,187.79844865816995 54.18916192406323,187.76732612140768 54.38547623204067,187.611713354534 54.29822542850161,187.36273264000192 54.232787325861864,186.52242011645285 54.03647301788442,185.40199714932533 54.01466031704331,185.1218902879482 54.03647301788442,184.8417829789105 54.254600026702974,183.97033515338262 54.2764127276605,183.34786976725445 54.407288932881784,182.53866145900975 54.45091433468042,181.72944941336755 54.42910163383931,181.3559656702273 54.5599778391188,179.79977483736002 54.71266674529761,178.9905501415924 54.690854044340085,178.30581863349653 54.60360324085923,177.77670608986227 54.62541594170034,176.9674720500043 54.516352437320165,176.40723090962274 54.5599778391188,176.00261119412608 54.62541594170034,175.81586331802828 54.58179053995991,174.97549541197077 54.669041343498975,174.69537188093818 54.62541594170034,174.41524790186668 54.363663531141356,174.1973733863415 54.210974624962546,174.16624843343743 54.01466031704331,173.886123608434 53.97103491524467,174.10399851104012 53.949222214345355,174.0417485664948 54.210974624962546,173.17024702069466" stroke="#4dd2ff" stroke-linecap="round" stroke-linejoin="round" stroke-width="0.5"><title>2019-10-19 6.2km</title></polyline><polyline fill="none" points="108.15322488569655,153.0 108.15322488569655,153.4328847626457 108.30491279042326,153.5411059051985 107.5464732660912,156.35484886646736 107.69816117105074,156.89595179230673 107.69816117105074,157.65349508076906 107.62231721868739,161.1165381175233 107.39478536136448,163.06449117453303 107.39478536136448,164.5795614683302 107.7740051234141,166.2028468872304 107.39478536136448,169.1247497414588 108.30491279042326,172.58772756980034 108.38075674301945,175.29316530091455 108.001536980737,177.2410730284173 107.5464732660912,177.99859101767652 107.01556559908204,180.27113933529472 107.39478536136448,181.24508601933485 107.24309745640494,182.76011109893443 107.69816117105074,184.16691672831075 108.15322488569655,185.0326416544267 107.69816117105074,186.22301141987555 106.1054381702561,189.03660343663068 106.40881397994235,190.8762527295621 106.40881397994235,192.39125385857187 106.56050188466907,192.71589646773646 106.93972164671868,192.82411063241307 106.86387769458815,193.36518116673687 106.93972164671868,196.3951672789408 106.78803374175914,196.82802120759152 105.72621840797365,198.23479435173795 105.72621840797365,199.3169253290398 105.19531074096449,200.2908415654092 104.133495407179,201.37296889105346 103.14752402552404,202.77973154076608 98.67273083236068,205.3768232827424 94.57715740147978,205.1603993937024 92.68105859099887,203.42900551424827 92.68105859099887,200.61547996505396 93.43949811533093,199.9662029929459 95.48728483077139,199.3169253290398 98.74857478495687,196.93623464164557 101.32726916740648,196.61159428139217 104.3610272645019,196.71980775386328 105.72621840797365,198.1265811480116 105.65037445561029,199.3169253290398 104.28518331190571,201.15654357965104 103.83011959749274,202.34688184055267 101.85817683441564,204.51112726563588 97.68675945117138,205.1603993937024 94.4254694969859,204.72755138535285 92.83274649572559,203.7536422413541 92.07430697139353,202.88794391753618 92.30183882871643,202.34688184055267 92.75690254336223,200.2908415654092 94.34962554415688,198.99228623771342 96.24572435510345,198.66764697333565 99.05195059464313,197.4773015238461 100.56882964330725,197.26087482855655 101.63064497709274,197.26087482855655 104.20933935954235,196.71980775386328 105.42284259828739,199.64156424743123 103.37505588284694,203.10436861391645 101.55480102472939,204.18649094214197 97.8384473558981,205.1603993937024 95.10806506848894,204.83576341642765 94.57715740147978,204.9439754280611 92.07430697139353,204.29470306902658 91.61924325721338,203.21258093306096 92.07430697139353,200.9401181914145 93.28781021037139,199.53335129393963 94.197937639663,198.8840731686214 97.15585178392939,197.1526614521863 99.20363849936984,196.61159428139217 101.25142521504313,196.61159428139217 103.4508998352103,196.93623464164557 105.802062360337,199.3169253290398 104.96777888364159,200.50726718455553 104.74024702631868,201.26475624501472 104.3610272645019,201.91403183317743 103.4508998352103,202.99615627515595 102.31324054906145,204.07827879593242 101.09973731008358,204.6193393349531 98.5210429278668,205.3768232827424 94.57715740147978,205.1603993937024 92.83274649572559,204.40291517681908 92.15015092422254,203.21258093306096 92.15015092422254,201.48118151770905 96.01819249778055,198.23479435173795 97.30753968888894,197.36908818560187 101.55480102472939,196.71980775386328 104.5885591218248,196.71980775386328 105.72621840797365,198.8840731686214 105.57453050324693,199.64156424743123 104.74024702631868,201.26475624501472 103.07168007316068,203.32079323322978 101.02389335772023,204.40291517681908 97.91429130826145,204.9439754280611 96.54910016455688,205.3768232827424 93.9704057823401,205.3768232827424 93.28781021037139,205.26861134794308 92.07430697139353,204.29470306902658 91.69508720957674,203.21258093306096 91.7709311619401,201.6976067138021 92.45352673367597,200.2908415654092 97.08000783156604,197.36908818560187 99.20363849936984,196.71980775386328 102.84414821583778,196.28695374849485 104.20933935954235,196.50338078971254 105.802062360337,197.91015468374826 105.65037445561029,199.53335129393963 104.89193493127823,201.04833089502063 104.20933935954235,202.6715191443218 102.91999216820113,203.7536422413541 100.4929856909439,204.51112726563588 95.79066064045765,205.26861134794308 95.03222111612558,205.1603993937024 92.07430697139353,203.7536422413541 91.92261906689964,202.02224436379038 93.06027835304849,200.0744158695452 96.16988040274009,198.0183679254842 98.82441873732023,196.93623464164557 101.4789570721332,196.17874019913143 102.1615526441019,196.28695374849485 104.133495407179,195.85409943532431 105.87790631293319,198.99228623771342 104.133495407179,201.80581928277388 102.84414821583778,203.32079323322978 101.4789570721332,205.1603993937024 99.9620780237019,205.80967083014548 98.67273083236068,205.3768232827424 97.08000783156604,205.1603993937024 94.4254694969859,205.70145897223847 94.88053321116604,205.917882669135 98.2935110705439,205.26861134794308 102.00986473937519,204.18649094214197 103.07168007316068,203.5372177757672 103.9059635498561,202.1304568751948 105.19531074096449,200.50726718455553 105.87790631293319,198.8840731686214 104.96777888364159,197.26087482855655 103.75427564489655,196.61159428139217 101.40311311976984,196.82802120759152 99.9620780237019,196.71980775386328 97.30753968888894,197.5855148427072 96.70078806951642,197.80194142251275 93.81871787738055,199.74977718212176 92.68105859099887,200.9401181914145 92.45352673367597,201.58939412550535 92.15015092422254,201.91403183317743 92.2259948765859,202.02224436379038 92.52937068603933,204.07827879593242 93.51534206769429,204.83576341642765 94.04624973470345,205.05218742054421 95.18390902108513,204.9439754280611 95.33559692581184,204.6193393349531 97.6109154985752,204.83576341642765 98.97610664227977,204.40291517681908 100.4929856909439,204.72755138535285 101.25142521504313,204.6193393349531 101.85817683441564,204.18649094214197 102.46492845378816,203.5372177757672 103.22336797788739,203.21258093306096 104.05765145481564,201.6976067138021 105.34699864592403,199.9662029929459 105.65037445561029,198.5594338469091 106.0295942176599,198.45122070098296 105.42284259828739,197.04444805631647 101.25142521504313,196.82802120759152 99.9620780237019,196.50338078971254 98.67273083236068,196.82802120759152 96.54910016455688,198.34300753608113 93.7428739250172,200.61547996505396 93.06027835304849,201.26475624501472 92.30183882871643,202.88794391753618 91.69508720957674,203.10436861391645 92.60521463863552,204.29470306902658 94.04624973470345,205.26861134794308 95.71481668809429,205.70145897223847 100.18960988102481,205.1603993937024 102.00986473937519,204.40291517681908 103.07168007316068,203.5372177757672 103.37505588284694,202.99615627515595 104.51271516922861,202.1304568751948 105.72621840797365,199.9662029929459 105.95375026529655,199.20871231792262 106.1054381702561,197.80194142251275 104.74024702631868,196.82802120759152 103.98180750221945,197.1526614521863 100.18960988102481,196.50338078971254 97.30753968888894,197.1526614521863 96.01819249778055,197.5855148427072 95.33559692581184,198.5594338469091 95.48728483077139,198.8840731686214 93.89456182997674,200.0744158695452 92.98443440068513,200.18262872722698 92.75690254336223,200.50726718455553 92.30183882871643,200.61547996505396 91.7709311619401,201.48118151770905 91.84677511453629,202.6715191443218 92.83274649572559,204.18649094214197 96.92831992683932,205.1603993937024 98.67273083236068,205.1603993937024 101.85817683441564,204.51112726563588 103.6784316925332,202.99615627515595 105.27115469332784,200.18262872722698 106.56050188466907,198.45122070098296 104.8160909791477,196.93623464164557 102.00986473937519,196.3951672789408 98.82441873732023,196.71980775386328 98.065979213221,197.36908818560187 95.48728483077139,198.66764697333565 92.45352673367597,201.26475624501472 92.15015092422254,201.80581928277388 92.37768278154545,202.6715191443218 92.37768278154545,204.07827879593242 92.45352673367597,204.51112726563588 92.98443440068513,206.02609448850853 94.197937639663,207.0 94.95637716376223,207.0 97.23169573652558,205.59324709518114 98.2935110705439,205.59324709518114 102.31324054906145,204.40291517681908 102.69246031087823,203.97006662987405 104.3610272645019,201.26475624501472 105.34699864592403,200.18262872722698 105.42284259828739,197.26087482855655 101.17558126244694,195.63767216337146 100.11376592866145,195.74588580906857 97.6109154985752,197.91015468374826 97.45922759384848,197.80194142251275 96.39741225959733,198.66764697333565 94.88053321116604,198.7758600806119 92.90859044832177,200.61547996505396 92.07430697139353,201.58939412550535 92.52937068603933,202.1304568751948 92.15015092422254,203.6454300180776 92.45352673367597,204.40291517681908 95.94234854541719,205.48503519862425 95.94234854541719,204.83576341642765 96.01819249778055,204.51112726563588 98.14182316558436,204.51112726563588 100.265453833621,204.29470306902658 100.64467359543778,204.40291517681908 101.934020786779,203.5372177757672 102.46492845378816,203.7536422413541 103.4508998352103,203.42900551424827 104.3610272645019,201.58939412550535 105.04362283600494,200.9401181914145 105.42284259828739,199.42513832094846 105.65037445561029,198.8840731686214 105.87790631293319,198.66764697333565 105.72621840797365,197.4773015238461 105.27115469332784,196.82802120759152 104.43687121686526,196.93623464164557 102.6166163587477,196.50338078971254 102.1615526441019,196.17874019913143 101.02389335772023,196.61159428139217 100.265453833621,197.1526614521863 98.44519897503778,198.1265811480116 97.15585178392939,199.74977718212176 100.11376592866145,200.2908415654092 100.87220545276068,198.8840731686214" stroke="#4dd2ff" stroke-linecap="round" stroke-linejoin="round" stroke-width="0.5"><title>2019-07-21 5.1km</title></polyline><polyline fill="none" points="159.73067515785806,153.0 159.53222527413163,153.3236336466798 159.44717532396317,154.45634778800013 159.30542540701572,155.2654258676048 159.50387529074214,155.58905629455694 159.5889252409106,156.03404738039535 159.6172752243001,156.88357340243238 159.73067515785806,157.24765501306683 159.5889252409106,157.6521894531179 159.67397519096266,158.0567231746536 159.67397519096266,158.50170943808916 158.90852563956287,158.66352240924607 158.48327588872053,158.5826159381395 158.0580261378782,158.66352240924607 157.32092656986788,158.90624165034387 156.95237678580452,158.78488206218753 156.4704270681832,158.8657884615095 155.61992756649852,158.74442885167082 155.27972776570823,158.8657884615095 154.45757824752945,158.82533526538464 154.0890284634661,158.70397563411098 153.2952289285604,158.8657884615095 153.040079078055,159.18941377129522 153.32357891194988,159.5130386212113 153.32357891194988,159.87711602753552 153.18182899500243,161.09070317767328 153.2385289617814,161.49523079062055 153.2385289617814,161.8997576845868 153.35192889533937,162.34473643824458 153.15347901161294,163.15378648943442 153.15347901161294,164.0032859497005 153.2952289285604,164.36735617666272 153.2101789782755,164.73142582172295 153.2385289617814,165.50001538301876 153.38027887872886,165.90453516267007 153.4936788121704,166.71357256628107 153.35192889533937,168.41254175761424 153.40862886200193,169.66653469676385 153.35192889533937,170.07104707496183 152.84162919432856,170.59691209242737 152.78492922754958,171.00142281790613 152.81327921093907,171.40593282492773 152.61482932721265,171.7699912168173 152.81327921093907,172.17449985847634 152.86997917771805,172.98351498627744 152.84162919432856,174.23748275416438 152.9266791443806,174.64198701293208 153.040079078055,174.96558990245103 153.32357891194988,175.24874205354718 153.32357891194988,175.61279430196737 152.95502912788652,175.81504529959057 152.33132949331775,176.3813471372996 152.41637944348622,176.82629759334668 152.33132949331775,177.27124718006235 152.35967947670724,178.44429192290409 152.41637944348622,178.8083390626707 152.58647934382316,179.17238562062266 152.84162919432856,179.86002753092907 152.67152929399163,180.2240724075673 152.67152929399163,180.58811670223076 152.55812936043367,180.99260968036833 152.64317931060214,181.39710194016516 152.52977937704418,182.16563525430684 152.61482932721265,182.529676445105 152.5014293936547,183.33865478582447 152.55812936043367,184.10718154774804 152.4447294268757,184.47121963494283 152.41637944348622,184.91615428461228 152.04782965942286,184.7543599671044 151.9060797424754,184.430770987281 152.2179295597598,184.71391136973398 152.16122959298082,185.482433490557 151.9627797092544,185.80602097594237 152.1895795763703,186.12960800169094 152.07617964281235,186.49364285609045 151.9060797424754,186.8576771283697 151.9060797424754,187.2621589708142 151.82102979230694,187.66664009459782 152.04782965942286,188.03067249206651 152.07617964281235,188.43515225104056 152.33132949331775,189.16321400697052 152.07617964281235,189.48679626239755 151.6792798753595,189.72948265229934 151.4241300249705,190.01261644698388 150.77208040689584,191.46872754496871 150.68703045672737,192.3181213861244 150.74373042350635,192.68214634811739 150.74373042350635,193.85511171229882 150.9421803073492,194.2595811268111 151.22568014124408,194.58315614107414 151.59422992519103,194.7853902916977 151.87772975908592,195.0685178006679 152.2179295597598,195.27075152019097 152.38802946009673,195.6347717627359 152.41637944348622,196.0796846023004 152.30297950992826,196.48415006595314 152.04782965942286,196.76727546310576 151.707629858749,196.92906124639558 151.45248000824358,197.2121860903717 150.99888027401175,197.2930788382364 151.22568014124408,197.6166495426587 153.72047867940273,198.99181990763464 154.0606784799602,199.11315807061328 154.372528297361,199.3962801994203 154.0890284634661,200.1243069144257 154.00397851329762,200.52876519494748 153.72047867940273,200.81188556396228 153.57872876245528,201.21634262349107 153.46532882889733,201.58035336289322 153.43697884550784,201.98480905772885 153.66377871262375,202.14659113441303 154.42922826402355,202.34881856889115 154.5426281975815,202.71282749823877 154.42922826402355,203.56217940422357 154.40087828075048,204.45197324171022 154.74107808142435,204.61375356598 155.56322759960312,204.7350887337234 155.96012736705597,204.65419862915587 156.32867715111934,204.5328634181933 157.57607642025687,204.5733084956155 158.0013261710992,204.65419862915587 158.76677572261542,204.69464368502668 159.05027555651031,204.97775887533498 159.19202547345776,205.38220853669918 159.3621253737947,206.15066091468907 159.67397519096266,206.3528847937123 160.07087495853193,206.3528847937123 160.46777472598478,206.23155048784974 160.6662246097112,206.59555321159132 160.9497244436061,206.83822137088282 161.37497419433203,206.7977766955446 162.19712371274363,206.9191106998478 162.96257326414343,206.87866603888688 163.78472278255504,207.0 163.98317266616505,206.7168873234914 164.35172245034482,205.9484368560079 164.9187221180182,205.38220853669918 165.37232185225002,205.30131866197917 165.59912171936594,204.5733084956155 165.82592158648185,204.29019280255307 165.88262155326083,203.926186394252 165.9960214868188,203.56217940422357 166.02437147020828,202.7937182924361 165.82592158648185,202.51060038711876 165.76922161970288,202.10614562605042 165.88262155326083,201.74213572703593 165.9393215200398,200.9736684740783 166.16612138715573,200.24564447400917 166.87487097189296,200.1243069144257 167.5836205566302,200.36698196901125 167.98052032408305,200.1647527749883 168.17897020780947,199.80073977287975 168.26402015797794,199.03226596905733 168.3490701081464,198.6278050308465 168.74596987559926,198.50646660926577 169.00111972610466,198.2637895722728 169.22791959310416,197.9402197872987 169.31296954338904,197.53575690968137" stroke="#4dd2ff" stroke-linecap="round" stroke-linejoin="round" stroke-width="0.5"><title>2019-06-01 5.1km</title></polyline><polyline fill="none" points="30.225316455587745,221.37365563691128 28.311392405070364,220.39843478554394 23.25316455680877,221.37365563691128 22.159493670798838,219.61825748032425 20.3822784810327,218.64303507073782 18.60506329126656,219.22816862061154 19.42531645577401,220.78852322965395 20.245569620281458,226.44479010428768 18.878481012769043,227.81009153660852 17.78481012629345,229.3704339521937 17.51139240525663,231.12581651995424 16.417721518781036,232.8811962826876 16.007594936527312,234.83161494892556 16.144303797744215,236.58698878763244 14.640506329014897,237.56219526391942 13.683544303756207,239.51260561775416 14.91392405051738,241.07293140643742 14.503797468263656,242.82829526916612 16.281012658029795,243.0233355248347 18.194936708547175,242.63325497834012 20.108860759530216,243.21837574651 21.749367088545114,242.82829526916612 23.526582278776914,243.41341593360994 24.756962025072426,244.97373617999256 26.397468354552984,245.75389547168743 36.51392405061051,246.1439749103738 39.93164556985721,247.50925185275264 44.03291139192879,248.09437002276536 47.724050633143634,249.6546836186899 51.551898734178394,249.84972266259138 59.207594936713576,251.60507249669172 63.03544303774834,252.19018848461565 67.0,253.55545791063923 66.17974683549255,255.70087786542717 65.22278481023386,257.6512560057454 64.94936708826572,261.3569649292622 62.762025316245854,260.96689089445863 60.71139240497723,261.1619279294973 56.74683544272557,260.96689089445863 54.96962025295943,260.7718538248446 53.32911392394453,259.99170520168263 47.724050633143634,259.6016306820093 45.81012658216059,258.82148122694343 32.959493670612574,254.92072563944384 28.03797468356788,253.75049626175314 21.886075949296355,251.9951498566661 17.64810126600787,251.60507249669172 14.640506329014897,249.0695662802318 13.0,248.28940934338607 14.7772151902318,244.97373617999256 15.187341772485524,241.07293140643742 17.237974683288485,241.46301250741817 18.878481012769043,242.63325497834012 22.706329113803804,242.63325497834012 24.89367088628933,245.55885570088867 28.72151898732409,245.1687760547502 30.362025316804647,245.75389547168743 37.60759493615478,247.50925185275264 44.71645569615066,250.2398006459698 53.05569620244205,251.60507249669172 54.559493670705706,252.77530416101217 53.73924050619826,254.72568749648053 53.19240506272763,258.4314062920166 54.83291139220819,259.6016306820093 59.48101265821606,260.57681672112085 63.99240506300703,260.96689089445863 65.3594936709851,255.5058398611145" stroke="#4dd2ff" stroke-linecap="round" stroke-linejoin="round" stroke-width="0.5"><title>2018-09-29 5.1km</title></polyline><polyline fill="none" points="73.65615763547248,227.3104163998505 73.81576354682329,227.41134546001558 74.28571428571013,227.57535487856512 74.5783251231478,227.8276763254471 75.08374384237686,228.16830886477692 75.71330049261451,228.4837079155477 75.99704433500301,228.91264838937786 76.10344827588415,229.17758092446456 76.25418719215668,229.15234929683356 76.4847290640464,229.20281254326255 76.93694581283489,229.65698015654925 78.0275862069102,230.59053784761636 78.46206896554213,231.01946566842525 78.99408866997692,231.3979292534932 79.68571428573341,232.07915865293762 80.0935960591305,232.4323861538869 80.5812807881739,233.11360568690725 81.37044334979146,234.29941678272735 81.60985221675946,234.71570749858074 82.07980295570451,235.32121693597583 82.21280788179138,235.47259349326487 82.37241379314219,235.58612570069818 82.6916256157565,235.58612570069818 83.15270935962326,235.2455285370088 83.47192118229577,235.16984005783888 83.63152709361748,235.0941514984661 84.11921182266087,234.67786298831197 85.19211822660873,233.93358354459633 85.94581280791317,233.34067742073967 86.41576354682911,233.17668124094052 86.6640394088754,233.25237183226272 86.98325123154791,233.42898290004814 87.09852216750733,233.5551333954063 87.36453201973927,233.47944312493928 87.52413793106098,233.5046732239789 87.53300492611015,233.47944312493928 87.70147783253924,233.51728827018815 88.05615763549577,233.6938986829191 88.38423645321745,233.794818722723 88.87192118226085,234.0723480968736 89.28866995073622,234.1858825300369 89.87389162564068,234.51386987874866 90.23743842364638,234.7283223308914 90.75172413795372,234.9427741391337 90.9201970443537,235.08153673078778 91.21280788179138,235.2581432757288 91.42561576355365,235.4852081919089 91.52315270935651,235.4978228882901 90.25517241383204,234.7787816378259 89.83842364535667,234.50125500857393 88.76551724140882,234.0218882908739 88.38423645321745,233.78220372553187 87.83448275862611,233.60559353114513 87.4709359605913,233.42898290004814 87.32906403942616,233.45421301694296 88.605911330058,233.8831236405822 89.581280788203,234.40033596696594 89.88275862068986,234.52648474670423 90.53891625616234,234.9806185090638 94.34285714285215,237.2260152351082 96.19605911333929,238.34868712893513 96.60394088670728,238.51267143424775 97.27783251233632,238.67665536309505 98.83842364535667,239.2316750980608 99.1931034483132,239.2695171956584 100.13300492611597,239.28213122372108 100.53201970446389,239.33258731382375 101.4630541872175,239.29474524960096 101.95960591136827,239.38304336824513 102.54482758621452,239.66055103044346 102.97931034484645,239.77407658152515 103.22758620689274,239.91282978781237 103.49359605912468,240.00112714239367 103.96354679804062,240.24079084038385 104.30935960594798,240.34170163052477 104.53103448275942,240.45522609904583 104.78817733991309,240.5056813604897 105.0275862069102,240.63181935813918 105.61280788181466,240.80841218066053 105.85221674881177,240.9471633778303 106.49064039409859,241.19943759123998 106.83645320200594,241.4769381969163 106.95172413796536,241.61568809551682 107.07586206900305,241.67875614217337 107.6610837438493,242.15807147683518 108.49458128082915,242.7761312399307 108.77832512315945,243.04101235850976 109.29261083743768,243.28066585757915 109.80689655174501,243.68429098599154 110.16157635470154,243.84826304294984 110.86206896553631,244.26449811260682 110.88866995074204,244.34017695562216 110.79113300493918,244.85731357037002 110.87093596058548,244.89515268787363 111.0305418719363,244.3023375441262 111.04827586206375,244.12575335887232 111.18128078820882,243.84826304294984 111.32315270937397,243.35634574286087 111.48275862069568,243.10407914676034 111.52709359608707,242.66261045983265 111.68669950740878,242.48602222115005 111.8817733990436,241.96886843945686 112.05024630544358,241.65352893016825 112.25418719212757,240.9723908392334 112.36059113303781,240.54352278316946 112.63546798031894,240.0894243878647 112.8926108374726,239.97589933795825 112.93694581283489,239.8371462541836 112.91034482760006,239.698392900842 113.07881773402914,239.43349938700703 113.95665024631307,238.80279659062217 114.55960591137409,238.48744310407346 115.02955665026093,238.47482893564302 116.54581280788989,238.9037094122541 116.7852216749161,238.87848122024297 116.98916256157099,238.790182477911 117.31724137932179,238.62619880968123 117.56551724139717,238.4369864170294 117.97339901482337,238.29823034386936 118.11527093595942,238.1973166668322 118.18620689658565,238.22254509942286 118.39014778324054,238.58835637126322 118.46995073891594,238.66404122806125 118.79802955666673,239.11814868489455 118.8512315271073,239.25690316536202 119.01083743842901,239.4461133861114 119.10837438426097,239.49656936037354 119.42758620690438,239.96328543234995 120.0305418719363,241.0606868840914 120.36748768473626,241.5526199931992 120.65123152712476,242.0950038534138 120.86403940888704,242.41034141377168 121.01477832515957,242.72567758215882 121.48472906407551,243.4446388410288 122.43349753698567,245.0086699201711 123.55960591134499,246.98888595256722 124.54384236456826,248.5528394369394 124.75665024633054,248.98165941137268 125.20886699508992,249.71316989769548 125.27093596060877,249.90235242507333 125.62561576356529,250.36900051742123 125.90049261084641,250.9239294163417 126.13103448276524,251.27706374407717 126.37931034484063,251.79415014613915 126.95566502466681,252.6895836001495 126.93793103451026,252.48779675913102 126.88472906404058,252.31123280570318 126.85812807883485,252.31123280570318 126.85812807883485,252.24817414513382 126.90246305419714,252.28600934815768 126.9201970443828,252.4499616629837 126.99113300495083,252.56346689131897 127.0,252.66436027619056 126.92906403943198,252.66436027619056 126.77832512318855,252.4121265467984 126.72512315271888,252.43734995980776 126.65418719215086,252.38690312487597 126.57438423647545,252.15989192686538 126.41477832515375,251.8698210130242 126.42364532023203,251.83198558958975 126.29950738919433,251.66803185656318 125.9891625616001,251.0500490195045 125.80295566504356,250.83564556163037 125.83842364532757,250.84825754757185 125.82955665027839,250.79780959055643 125.85615763548412,250.83564556163037 125.8650246305624,250.79780959055643 125.82955665027839,250.79780959055643 125.89162561579724,250.78519759568007 125.87389162561158,250.82303357349883 125.82068965520011,250.83564556163037 125.82955665027839,250.79780959055643 125.57241379312472,250.39422465179086 125.41280788180302,250.0789223320171 125.18226600985508,249.76361862062913 124.87192118228995,249.25912978788983 124.83645320197684,249.15823159385764 124.7300492610957,248.99427172457217 124.65911330049857,248.93121013619384 124.50837438425515,248.64112611268501 124.27783251233632,248.31320362418774 123.97635467979126,247.7582544453544 122.51330049263197,245.31138165764423 122.39802955664345,244.9582178392011 122.05221674879431,244.4410819548939 121.5290640394087,243.4950919910043 121.29852216748986,243.17975921912148 120.50935960593051,241.80489206835773 120.33201970445225,241.43909726872516 120.07487684729858,241.0859143054622 119.9064039409277,240.77057089833397 119.75566502462607,240.59397798223654 119.59605911330436,240.30386010093207 119.60492610838264,240.2660185512941 119.43645320201176,240.03896883236303 119.33004926110152,239.77407658152515 119.09064039410441,239.4461133861114 118.27487684731022,238.13424554624362 117.67192118227831,237.03679913336964 117.61871921186685,237.0494135557601 117.60098522168119,236.99895585288323 117.60098522168119,237.06202797593141 117.56551724139717,237.11248563422123 117.53891625619144,237.09987122299935 117.67192118227831,237.0115702819312 117.65418719215086,236.94849811436143 117.48571428572177,236.72143784997024 117.49458128080005,236.69620888711506 117.49458128080005,236.7340523280218 117.33497536947834,236.77189574885415 117.34384236452752,236.74666680386144 117.29950738919433,236.74666680386144 116.33300492612761,237.30170153547078 115.61477832513629,237.74320335578523 115.46403940889286,237.86934623176057 115.34876847293344,237.88196050709666 114.77241379313637,238.31084454346274 114.54187192118843,238.39914387836325 114.11625615766388,238.70188362638874 113.90344827590161,238.790182477911 113.54876847294508,239.0046220913864 113.37142857146682,239.14337679232267 112.99014778327546,239.5091833483457 112.87487684731605,239.64793706918863 112.96354679804062,239.8371462541836 112.83940886703203,239.97589933795825 112.53793103451608,240.15249378205772 112.27192118228413,240.7579571330789 112.09458128080587,240.8967084281976 111.72216748769279,241.96886843945686 111.66896551725222,242.28420655667287 111.53596059116535,242.511249139141 111.03940886701457,243.722130724811 110.94187192121171,244.024847914181 110.85320197045803,244.06268747260037 110.7024630542146,244.01223472354468 110.22364532022038,243.74735720628814 109.94876847291016,243.5455451053058 109.67389162562904,243.41941225268238 109.46108374386677,243.24282588484493 109.37241379311308,243.2175992252014 109.31034482759424,243.28066585757915 108.97339901482337,243.06623908047914 108.89359605911886,243.10407914676034 108.796059113316,243.07885243812052 108.66305418720003,242.97794551460538 108.61871921183774,242.87703844852513 108.33497536947834,242.6121567219161 107.75862068968127,242.10761738254223 107.03152709361166,241.64091532084421 106.58817733990145,241.224664963549 105.68374384238268,240.84625344298547 105.13399014779134,240.58136418581853 104.69064039411023,240.44261227813695 104.32709359607543,240.30386010093207 104.0965517241857,240.25340469693037 103.404926108371,239.90021587112278 101.99507389165228,239.39565737626253 101.76453201973345,239.25690316536202 100.90443349754787,239.28213122372108 100.36354679806391,239.25690316536202 99.80492610839428,239.29474524960096 98.79408866996528,239.206447021832 98.49261083744932,239.14337679232267 98.07586206897395,238.94155168364523 97.35763546801172,238.72711188081303 96.94088669953635,238.63881295135798 96.73694581282325,238.5378997555017 96.40886699510156,238.50005727029202 96.35566502463189,238.4369864170294 96.00985221675364,238.22254509942286 95.70837438423769,238.08378860972152 95.42463054190739,237.88196050709666 95.0965517241566,237.75581765339302 94.93694581280579,237.629674576885 94.6088669950841,237.4530738955582 94.13891625616816,237.06202797593141 93.97931034484645,236.99895585288323 93.34975369460881,236.5700639393399 92.76453201970435,236.2547005952074 92.30344827589579,235.8762627442993 91.9310344827827,235.76273099800164 91.43448275863193,235.39690525473998 90.56551724139717,234.90492974920926 90.06009852216812,234.55171447592147 89.33300492612761,234.2237273009814 89.25320197045221,234.12280786720657 88.7300492611248,234.00927333378058 88.41083743845229,233.87050865896163 87.93201970445807,233.59297850055736 87.29359605911304,233.41636783824652 87.2315270936233,233.5551333954063 86.92118226602906,233.3659075688047 86.43349753695657,233.18929634504457 86.22955665024347,233.17668124094052 86.00788177343202,233.25237183226272 85.91034482762916,233.35329249589267 85.71527093596524,233.30283218192199 85.44039408868412,233.51728827018815 85.18325123153045,233.76958872613613 84.69556650248705,234.0723480968736 84.20788177341456,234.4760252615597 83.6226600985392,234.84185572132264 83.5428571428638,234.84185572132264 83.47192118229577,234.9553889313538 82.975369458145,235.32121693597583 82.72709359609871,235.4852081919089 82.59408866995363,235.53566696413327 82.31921182267251,235.5482816516087 82.26600985223195,235.57351101990207 81.86699507391313,235.04369241436507 81.68078817735659,234.70309266406548 81.41477832512464,234.40033596696594 80.6610837438493,233.41636783824652 80.22660098521737,232.6846904421982 80.22660098521737,232.70992082204612 79.26896551725804,231.70069867764687 79.02955665026093,231.5240833362186 78.65714285717695,231.14562041960744 78.4354679803073,230.98161919959966 78.0719211823016,230.62838452364667 77.14975369459717,229.8966785658995 77.00788177340291,229.7326744779857 76.4847290640464,229.24065995466663 76.36059113300871,229.13973347962747 75.99704433500301,229.22804415307473 75.9172413793276,229.15234929683356 75.89950738920015,228.58463531760935 75.81083743844647,228.47109198027465 75.56256157637108,228.3701644177272 75.46502463056822,228.2061568244244 74.2591133005335,227.73936392043834 73.59408866995363,227.63843532385363 73.51428571430733,227.61320315241755 73.49655172415078,227.52489048220014 73.31034482762334,227.4870421615051 73.2039408867131,227.6762835643167 73.21280788179138,227.65105140621017 73.03546798031311,227.58797097209754 73.0,227.68889963998663 73.1241379310377,227.77721210740856 73.31034482762334,227.80244422090618 73.35467980295653,227.764596047331 76.7330049261218,229.13973347962747 76.165517241403,228.55940348049626" stroke="#4dd2ff" stroke-linecap="round" stroke-linejoin="round" stroke-width="0.5"><title>2016-08-20 14.7km</title></polyline></svg>