<?xml version="1.0" encoding="utf-8" ?>
<svg baseProfile="full" height="300mm" version="1.1" viewBox="0,0,200,300" width="200mm" xmlns="http://www.w3.org/2000/svg" xmlns:ev="http://www.w3.org/2001/xml-events" xmlns:xlink="http://www.w3.org/1999/xlink"><defs /><rect fill="#222222" height="300" width="200" x="0" y="0" /><text fill="#FFFFFF" style="font-size:12px; font-family:Arial; font-weight:bold;" x="10" y="20">Over 5km Runs</text><text fill="#FFFFFF" style="font-size:4px; font-family:Arial" x="10" y="280">ATHLETE</text><text fill="#FFFFFF" style="font-size:9px; font-family:Arial" x="10" y="290">zhzj</text><text fill="#FFFFFF" style="font-size:4px; font-family:Arial" x="120" y="280">STATISTICS</text><text fill="#FFFFFF" style="font-size:3px; font-family:Arial" x="120" y="285">Number: 9</text><text fill="#FFFFFF" style="font-size:3px; font-family:Arial" x="120" y="290">Weekly: 1.0</text><text fill="#FFFFFF" style="font-size:3px; font-family:Arial" x="141" y="285">Total: 62.6 km</text><text fill="#FFFFFF" style="font-size:3px; font-family:Arial" x="141" y="290">Avg: 7.0 km</text><text fill="#FFFFFF" style="font-size:3px; font-family:Arial" x="167" y="285">Min: 5.0 km</text><text fill="#FFFFFF" style="font-size:3px; font-family:Arial" x="167" y="290">Max: 14.7 km</text><polyline fill="none" points="54.671968511654995,70.52601739905367 54.7174277480226,70.7530311964947 54.74015736608999,71.04490566397726 54.467401948350016,71.53136207308853 54.44467233022442,71.92052626720397 54.37648347578943,72.11510805314174 54.171916912542656,72.50427100303932 53.46729875006713,73.41231466019235 52.989976769080386,73.70418487663846 52.64903249696363,73.80147484513873 51.28525540832197,73.8339048230846 50.85339266358642,73.8987647616741 50.785203809151426,73.96362467730069 50.51244839146966,74.35278368717991 50.39880030066706,74.83923128298193 50.21696335560409,75.16352896027092 49.78510061081033,75.13109921851719 49.21686015720479,75.45539637729235 48.92137512139743,75.8769818226574 48.48951237666188,76.33099582903378 48.23948657710571,76.42828439782897 47.76216459600255,76.75257925264305 47.3530314694508,77.27144982237951 47.14846490614582,77.82274818696897 46.98935757915024,78.50376151567616 46.89843910658965,79.11991424344887 46.921168724715244,79.83335164640448 46.85297987028025,80.22249814585666 46.71660216146847,80.67650134686846 46.28473941673292,81.06564604923187 45.55739163607359,81.29264674273145 44.37545149266953,81.13050341901544 43.966318366117775,81.00078865644173 42.670730131911114,80.8710738017835 42.44343395048054,81.35750403176644 42.30705624161055,82.557359725266 42.23886738717556,82.88164369444712 42.07976006017998,82.94650041915884 41.852463878749404,83.20592708760523 41.89792311494239,83.65992287055997 41.738815787946805,84.37334253445442 41.69335655175382,85.02190344640985 41.55697884282563,85.86502918801853 41.30695304326946,86.4487293438142 41.10238647996448,86.80543407608639 41.05692724365508,87.0 40.78417182597332,87.0 40.39776831754716,86.74057872212143 39.920446336444,86.57844023617508 38.12480650318321,86.31901835936878 36.44281476055039,85.99474049494893 35.169956144469324,85.63803417903546 34.05620485544205,85.47589471407991 33.30612745677354,85.08675941085676 32.87426471197978,85.02190344640985 32.44240196724422,85.05433143150003 32.32875387655804,85.76774564723019 31.87416151369689,85.92988485295791 31.46502838708693,85.63803417903546 30.487654806987848,84.56791104994772 30.146710534754675,84.40577063472301 29.26025542721618,84.14634567104804 28.260152228816878,83.9842048814753 27.941937574825715,83.91934852543636 27.828289484139532,83.9842048814753 27.76010062970454,84.0814893724164 26.805456667614635,83.85449214617256 26.350864304753486,83.82206394801324 25.578057287901174,83.46535338759713 25.25984263391001,83.14107045500714 25.009816834353842,82.62221656528709 24.964357598044444,82.26550366073207 25.032546452479437,81.13050341901544 25.237113015784416,80.0927827382111 25.3507611064706,79.80092273408081 25.71443499677116,79.34691735584056 26.191756977757905,79.05505615947186 26.16902735963231,78.79562359330885 26.05537926888792,78.40647405276832 26.009920032636728,78.01732368289959 25.896271941892337,77.92003596085124 25.828083087457344,77.4660259058146 25.91900156007614,76.91472646404873 25.96446079632733,76.36342535766016 25.987190414511133,75.2932478698931 26.146297741564922,73.8339048230846 26.16902735963231,73.28259441422415 26.487242013623472,72.89343312325946 26.532701249991078,72.56913141394034 26.509971631749067,71.7259442738432 26.214486595999915,71.07733613160963 26.259945832192898,70.59087851282675 26.32813468662789,68.93691291401046 26.487242013623472,68.48288052075077 26.873645522107836,68.19100195742794 27.078212085412815,68.1261399910727 27.123671321605798,67.93155395386566 26.987293612852227,67.67210558148508 26.737267813179642,67.41265684054815 26.669078958861064,67.18563888978679 26.714538195112254,65.59650533040985 26.555430868058465,64.98030696339265 26.57816048618406,64.33167485658487 26.873645522107836,63.84519926413486 27.05548246728722,63.715472220646916 27.123671321605798,63.48844967262994 27.10094170353841,62.061444335078704 27.191860176099,61.08847975557728 27.169130557973403,60.47226617317938 27.05548246728722,59.9533478590165 27.010023230977822,58.91550680606451 27.05548246728722,57.87765985308215 27.010023230977822,57.520898600356304 27.10094170353841,56.353311444370775 27.14640093984781,56.15871285904723 27.123671321605798,55.41274969378719 26.85091590398224,55.02355031062325 26.805456667614635,54.893816998490365 27.282778648717795,54.601916709158104 27.532804448273964,54.634350097738206 27.623722920834552,54.21271559741581 26.89637514029164,53.985681232356 26.828186285856646,53.95324772855383 26.737267813179642,53.401877282958594 26.85091590398224,53.142408261672244 26.805456667614635,52.26669759242213 26.919104758417234,46.752867258459446 27.05548246728722,46.13660528618493 27.237319412408397,46.03930057413527 27.55553406639956,45.974430737274815 27.71464139339514,45.81225604418432 27.646452538960148,45.617646222322946 27.237319412408397,45.585211231853464 27.032752849103417,45.195990896681906 27.10094170353841,44.482418126790435 27.032752849103417,43.73640724871075 26.94183437654283,43.31474757770775 26.987293612852227,42.86065145826433 26.964563994610216,41.85514888826583 26.919104758417234,41.336177652934566 26.737267813179642,40.36310261000472 26.623619722551666,39.487330636547995 26.41905315918848,38.903480320062954 26.532701249991078,38.06013767737022 26.32813468662789,37.573592072716565 26.191756977757905,36.989735635361285 26.16902735963231,36.60049697307113 26.237216214067303,36.01663742327946 26.16902735963231,35.5949599204032 26.16902735963231,35.205718284036266 26.146297741564922,34.4596694943757 26.282675450318493,34.39479554240825 27.30550826684339,34.55698037899856 27.80555986595573,34.55698037899856 28.78293344611302,34.102862473460846 29.123877718346193,33.81092893789173 30.237629007315263,33.90824016831175 31.578676477831323,33.68118054982915 32.32875387655804,33.64874343844713 32.87426471197978,33.45412064899574 34.01074561919086,33.48655779499677 34.306230655056424,33.421683497261256 34.76082301791757,33.45412064899574 35.419981944025494,33.35680917654827 35.442711562267505,33.227060465695104 36.03368163394043,33.194623273651814 36.60192208754597,33.25949765201949 36.98832559597213,33.09731166274287 37.26108101377031,33.09731166274287 38.60212848416995,33.09731166274287 39.32947626482928,33.0 39.852257482125424,33.09731166274287 40.19320175424218,33.29193483259587 40.17047213611659,33.48655779499677 40.079553663556,33.616306321302545 40.35230908123776,33.81092893789173 40.55687564454274,33.746054755334626 40.9432791529689,33.778491849501734 41.03419762552949,34.39479554240825 41.079656861838885,35.53008637204766 41.26149380696006,36.27613078705326 41.39787151583005,38.189882952850894 41.53424922475824,39.000788835881394 41.55697884282563,40.492846248758724 41.62516769731883,40.91451243785559 41.579708460951224,41.46592060003604 41.69335655175382,42.276811930627446 41.62516769731883,43.63910125718394 41.69335655175382,43.73640724871075 41.78427502431441,44.3202421082824 41.761545406188816,44.709464310639305 41.82973426062381,45.585211231853464 41.67062693351181,46.460953951987904 41.852463878749404,47.109649554724456 41.94338235130999,48.08268863672856 41.78427502431441,48.698944039599155 41.761545406188816,48.89355057674402 41.89792311494239,50.547697766523925 41.89792311494239,51.03420879342593 41.96611196937738,51.84505762392655 41.94338235130999,52.46130032642395 42.07976006017998,54.11541518976446 42.17067853274057,54.21271559741581 42.466163568606135,54.73165022871399 42.94348554959288,54.991116991252056 43.37534829432843,55.5424826372182 43.7390221846872,55.7695150662621 43.966318366117775,55.80194824723003 44.07996645680396,56.02898035357066 44.420910728978924,56.38574452181638 44.94369194621686,56.774941001000116 45.21644736395683,57.099270766513655 45.330095454643015,57.42359995591687 45.443743545387406,57.65063004566764 45.67103972681798,57.84522704077244 45.85287667193916,57.94252546048665 45.87560629018117,57.87765985308215 46.671142925159074,57.84522704077244 47.37576108757639,57.71549573376251 47.87581268674694,57.812794222612865 48.012190395675134,58.169554904903634 47.98946077743312,58.558747581453645 47.898542304872535,58.72091095174255 47.62578688719077,58.68847828917205 48.05764963186812,58.234420408596634 48.08037925011013,58.169554904903634 48.262216195231304,58.03982382842514 48.512241994729266,57.71549573376251 49.148671302828006,57.87765985308215 49.51234519307036,58.20198765958776 50.39880030066706,59.53172564280976 50.51244839146966,59.596590662549715 50.876122281712014,60.08307757592411 51.30798502644757,60.43983382181614 51.62619968043873,60.5371308587637 51.8762254799949,60.69929247183609 52.103521661425475,61.2506408788322 52.308088224730454,61.44523403675703 54.85380545677617,61.44523403675703 54.944723929453176,61.57496269348485 54.80834622058319,61.96414811057912 54.80834622058319,62.45062871513073 54.671968511654995,62.58035665746138 54.512861184659414,63.03440372967452 54.87653507501818,63.52088148245821 55.035642402013764,64.0722213685658 54.762886984215584,65.69379961934465 54.762886984215584,66.18027028608776 54.83107583865058,66.69917090190575 54.85380545677617,67.63967450907512" stroke="#4dd2ff" stroke-linecap="round" stroke-linejoin="round" stroke-width="0.5"><title>2022-10-23 6.7km</title></polyline><polyline fill="none" points="99.93585446313955,33.0 99.74341785279103,36.020488410722464 99.87170892651193,37.118843442673096 99.87170892651193,38.94942995902966 99.99999999976717,40.230836650473066 99.93585446313955,41.14612519310322 99.80756338941865,41.420711439073784 99.6792723161634,42.244469298253534 99.99999999976717,46.63782230397919 99.99999999976717,48.01073743554298 100.19243661011569,48.83448475878686 100.25658214674331,49.749758017394925 100.06414553686045,51.58029965707101 100.12829107348807,52.7701482354023 99.99999999976717,53.13625493753352 100.25658214674331,54.417626345995814 100.19243661011569,56.52272959900438 101.4753473456949,58.078669954004 100.96218305150978,60.64138500139234 100.89803751464933,61.83121265502996 100.96218305150978,62.5634129223472 99.99999999976717,66.865068479412 100.06414553686045,68.51250152225839 98.90952587476932,73.18019987310981 98.97367141162977,73.91238401280134 98.65294372756034,78.39698916708585 98.33221604395658,79.12916589397355 97.94734282325953,80.5935162261303 96.4719954773318,82.79003392189043 95.89468564628623,83.52220440647216 94.41933830059133,84.5289371238905 93.5854463223368,84.80350025079679 89.73671411629766,85.07806323139812 88.389657843858,84.89502126048319 87.1067471082788,83.79676806979114 87.74820247618482,81.14264652796555 91.40449807210825,78.58003344628378 94.48348383745179,77.664811399678 95.95883118291385,77.664811399678 97.56246960256249,78.03090041340329 98.46050711721182,79.95286346782814 97.11345084500499,82.42394828947727 95.57395796268247,84.07133158715442 94.03446508012712,84.80350025079679 91.46864360920154,85.16958419262664 89.67256857920438,85.26110513749882 88.77453106455505,85.07806323139812 87.49162032897584,84.5289371238905 87.04260157165118,81.87481935342657 87.94063908653334,80.86808145034593 90.89133377815597,79.12916589397355 91.46864360920154,78.48851131487754 92.55911773419939,77.847855939297 94.22690169024281,77.7563336773892 97.43417852884158,78.21394482278265 98.52465265407227,79.861341580312 98.07563389651477,80.50199445238104 96.72857762430795,82.79003392189043 94.9966481316369,84.4374160488951 93.0722820283845,84.89502126048319 90.76304270443507,85.16958419262664 89.67256857920438,85.16958419262664 87.94063908653334,84.5289371238905 87.04260157165118,83.33916188287549 87.49162032897584,81.60025466588559 87.94063908653334,81.05112485183054 90.76304270443507,79.22068791161291 93.52130078570917,77.847855939297 94.74006598442793,77.7563336773892 97.17759638186544,78.03090041340329 98.3963615805842,79.49525386706227 97.30588745535351,81.69177624466829 96.4719954773318,82.97307664059917 94.5476293740794,84.3458949578926 93.77788293268532,84.62045818252955 91.7893712928053,84.98654225413338 89.48013196908869,84.98654225413338 88.06893016002141,84.80350025079679 86.97845603502356,82.69851253836532 88.77453106455505,80.41047266242094 89.35184089560062,80.13590719440253 91.34035253548063,78.67155556153739 93.5854463223368,77.847855939297 94.9966481316369,77.847855939297 97.04930530837737,78.03090041340329 98.2680705068633,78.39698916708585 98.71708926442079,79.22068791161291 98.2680705068633,80.04438533913344 96.98515977151692,82.24090537600568 96.15126779326238,83.43068315289565 95.50981242558919,84.07133158715442 94.29104722710326,84.71197922478314 90.44231502059847,85.35262606589822 89.09525874862447,84.98654225413338 87.74820247618482,84.4374160488951 86.97845603502356,83.61372564375051 86.85016496130265,82.42394828947727 87.29918371862732,81.50873307077563 88.90282213827595,79.58677581962547 89.35184089560062,79.49525386706227 91.40449807210825,78.48851131487754 93.32886417536065,77.7563336773892 97.30588745535351,77.93937818452832 98.3963615805842,79.31220991315786 97.56246960256249,81.41721145936754 97.43417852884158,82.332426840876 99.35854463209398,82.24090537600568 101.28291073534638,82.332426840876 103.20727683836594,82.24090537600568 108.78793853777461,80.77655972517096 110.77645017765462,80.68503798393067 112.1876519867219,80.68503798393067 113.21398057509214,81.78329780703643 112.82910735462792,82.51546972212964 111.86692430288531,83.52220440647216 110.712304641027,84.07133158715442 109.49353944207542,84.25437385038822 108.40306531707756,84.16285272687674 105.51651616231538,84.5289371238905 102.75825808104128,85.07806323139812 95.57395796268247,85.90175129589625 92.17424451350234,86.54239665772184 89.28769535874017,86.72543804318411 87.81234801304527,87.0 87.2350381819997,86.17631369130686 87.74820247618482,85.62718875388964 87.87649354967289,84.62045818252955 87.1067471082788,83.79676806979114 86.85016496130265,82.88155528955394 86.91431049793027,82.42394828947727 87.87649354967289,80.41047266242094 89.41598643222824,79.67829775618156 89.73671411629766,79.40373189823003 93.0722820283845,77.7563336773892 95.25323027861305,77.57328910575598 97.49832406570204,77.847855939297 98.13977943360806,78.21394482278265 98.2680705068633,78.58003344628378 98.2680705068633,79.49525386706227 96.72857762430795,82.97307664059917 95.766394573031,83.97981043116306 95.06079366826452,84.4374160488951 94.03446508012712,84.80350025079679 92.43082666071132,85.07806323139812 89.92915072641335,85.16958419262664 87.1067471082788,84.16285272687674 86.78601942467503,82.42394828947727 87.17089264537208,81.14264652796555 92.04595344001427,78.3054670028796 94.03446508012712,77.93937818452832 97.04930530837737,78.03090041340329 98.3963615805842,79.58677581962547 97.04930530837737,82.05786239696317 95.38152135233395,83.79676806979114 94.61177491093986,84.16285272687674 92.36668112385087,84.98654225413338 90.95547931478359,85.07806323139812 88.32551230723038,84.71197922478314 87.2350381819997,84.07133158715442 86.78601942467503,82.79003392189043 87.29918371862732,81.05112485183054 88.32551230723038,80.3189508561045 91.9176623665262,78.21394482278265 93.0722820283845,78.03090041340329 94.80421152128838,77.7563336773892 97.56246960256249,78.03090041340329 98.52465265407227,79.22068791161291 96.85686869802885,82.42394828947727 96.3437044036109,83.06459797543357 95.44566688896157,83.97981043116306 94.35519276373088,84.5289371238905 93.00813649175689,84.98654225413338 91.53278914582916,85.07806323139812 89.28769535874017,85.16958419262664 88.5179489175789,85.07806323139812 86.97845603502356,83.97981043116306 86.91431049793027,82.42394828947727 87.04260157165118,81.69177624466829 87.81234801304527,80.77655972517096 88.32551230723038,80.3189508561045 92.11009897687472,78.21394482278265 94.74006598442793,77.664811399678 97.69076067605056,77.93937818452832 98.33221604395658,79.76981967652682 97.24174191849306,81.78329780703643 96.60028655081987,82.69851253836532 95.70224903593771,83.52220440647216 94.61177491093986,84.3458949578926 93.32886417536065,84.89502126048319 91.85351682966575,85.07806323139812 90.44231502059847,85.07806323139812 87.04260157165118,83.97981043116306 86.85016496130265,82.332426840876 87.2350381819997,81.23416818800615 88.06893016002141,80.3189508561045 90.69889716780744,79.22068791161291 91.85351682966575,78.39698916708585 92.81569988140836,78.03090041340329 94.35519276373088,77.664811399678 95.63810349931009,77.57328910575598 96.98515977151692,77.847855939297 99.23025355860591,77.57328910575598 99.5509812424425,76.20045274394215 99.35854463209398,75.37674917126424 99.93585446313955,71.4412583708181 100.38487322046421,69.4277398257691 100.25658214674331,65.49220358615275 100.64145536744036,64.11933503567707 100.57730983081274,62.38036295311758 100.64145536744036,61.46511213114718 100.83389197778888,60.54985968355322 100.83389197778888,59.2685035255563 100.64145536744036,58.71934991082526 100.57730983081274,57.987144180893665 100.70560090453364,57.52951507107355 100.76974644116126,55.60746837200713 100.51316429418512,54.05152055437793 100.76974644116126,52.03793405077886 100.76974644116126,51.305718825838994 100.44901875709184,50.024339678057004 100.38487322046421,49.109066907083616 100.44901875709184,47.64462709170766" stroke="#4dd2ff" stroke-linecap="round" stroke-linejoin="round" stroke-width="0.5"><title>2021-06-24 5.0km</title></polyline><polyline fill="none" points="133.9720670392271,84.15824439258722 134.0055865922477,83.53640408237698 133.9720670392271,83.05806440488959 133.8715083799325,82.57972387727932 133.8715083799325,81.57520600294811 133.60335195541847,80.5706843801745 133.7709497207543,79.66182825360738 133.7374301677337,79.2313163857616 133.53631284926087,78.32245573720138 133.26815642474685,77.8919417274592 133.16759776545223,76.5047252348595 133.0335195530206,76.07420831795025 133.0,75.11750159347139 133.16759776545223,74.68698245809355 133.60335195541847,74.54347592682461 135.0446927373996,74.44780486324453 135.54748603363987,74.30429820434074 135.8156424581539,73.87377776851645 135.9497206703527,72.96489903178008 135.74860335199628,72.53437645372469 135.44692737434525,72.19952508376446 135.48044692736585,71.6733292323479 135.34636871516705,71.2906406942202 135.0782122905366,70.86011543862696 134.9441340782214,70.38175323605537 135.0782122905366,69.2815169437672 134.9776536313584,68.2291128042707 135.011173184379,67.27237819808943 134.9776536313584,66.74617271509487 134.8770949721802,66.31564019146026 134.9776536313584,64.78485230784281 135.0446927373996,64.35431664714997 134.81005586590618,63.39756826915254 134.81005586590618,62.392978812451474 134.67597765370738,61.9146015628794 134.50837988837156,60.95784451358486 134.64245810068678,60.479464713600464 134.70949720672797,59.9054078313784 134.54189944139216,58.948643640600494 134.54189944139216,58.03971450969402 134.67597765370738,56.98726641814574 134.60893854754977,56.41320208852994 134.64245810068678,53.925575845874846 134.54189944139216,53.495022816059645 134.64245810068678,51.820643376224325 134.743016759865,51.342247337510344 134.743016759865,50.28977305945591 134.67597765370738,48.23265236086445 134.40782122919336,47.37152740037709 134.50837988837156,46.94096388723119 134.57541899441276,45.55358788149897 134.64245810068678,45.12302146025468 134.40782122919336,43.63995407054608 134.37430167593993,42.15687850948598 134.20670391072053,40.48242853823467 134.64245810068678,40.243220549309626 135.0782122905366,40.19537892594235 136.58659217879176,40.19537892594235 138.12849162018392,40.05185400486516 138.56424581015017,40.147537294076756 139.0670391061576,39.956170681805816 139.56983240228146,40.004012347606476 141.54748603352346,40.530270110597485 142.55307262565475,40.57811167452019 144.43016759783495,40.96084387869632 146.37430167593993,41.15220977678837 150.16201117320452,41.200051230116514 152.60893854754977,41.67846529488452 155.75977653637528,41.91767200840695 158.30726256978232,42.10903722621151 158.77653631288558,41.91767200840695 161.9608938547317,41.91767200840695 166.55307262577116,42.10903722621151 167.9608938547317,42.3004023078538 169.36871508380864,42.25256105021981 170.47486033523455,42.06119593445328 173.52513966488186,42.15687850948598 175.40223463694565,42.06119593445328 176.30726256989874,41.96551332555828 179.25698324025143,41.96551332555828 179.75977653625887,41.86983068275731 180.16201117320452,41.63062392656866 180.63128491619136,41.53494116474758 182.67597765359096,41.43925836865674 183.17877094971482,41.29573411097226 184.62011173192877,41.43925836865674 185.62569832406007,41.63062392656866 186.1284916200675,41.82198934846383 186.53072625701316,42.10903722621151 187.0,42.25256105021981 186.73184357536957,41.91767200840695 186.36312849156093,41.63062392656866 186.46368715085555,41.15220977678837 186.0614525139099,40.86516087860218 184.65363128494937,40.19537892594235 184.21787709498312,40.099695653800154 183.84916201117449,39.81264563319564 183.41340782120824,39.62127878285537 181.56983240228146,39.76480393340171 180.69832402234897,39.42991179630917 180.32960893854033,39.19070287179784 179.8603351955535,39.04717741513741 179.18994413409382,38.425232884968864 178.9553072626004,38.042497075293795 178.75418994412757,37.56407654765644 178.51955307263415,36.176652208916494 178.1843575418461,35.84175560741278 175.83798882679548,36.224494546622736 173.1229050279362,36.989970792186796 172.15083798894193,37.03781298529066 170.77653631276917,36.655075202623266 169.9050279330695,36.1288098628429 169.46927374310326,35.98528277334117 168.9329608938424,35.98528277334117 167.55865921790246,35.9374403932452 166.55307262577116,36.080967508256435 164.67597765359096,36.080967508256435 159.7821229051333,36.36802150844596 159.41340782120824,36.655075202623266 159.17877094971482,37.085655169794336 159.17877094971482,37.5162344481796 159.31284916203003,38.4730748229631" stroke="#4dd2ff" stroke-linecap="round" stroke-linejoin="round" stroke-width="0.5"><title>2021-04-25 5.4km</title></polyline><polyline fill="none" points="48.72500694449991,175.99666628966224 48.68105224962346,176.278854472097 48.39534673257731,176.40427129720047 46.7910003674333,176.12208331523289 46.50529485032894,176.24750025183312 46.17563463834813,176.278854472097 45.252586044662166,176.21614602602494 44.96688052761601,176.24750025183312 44.32953745103441,176.05937481370347 42.54937230620999,175.683123335868 40.65932042407803,175.96531201935431 40.0,175.74583197110042 39.956045305065345,175.43228857193026 40.021977347438224,174.46030049536785 39.71429448295385,174.4289459522115 39.09892875381047,174.39759140342358 38.13192546524806,174.1467548130604 37.86819729569834,173.95862713643874 37.53853708365932,173.4569523518294 37.42865034635179,173.1434048876108 37.25283156655496,172.86121169361286 36.967126049567014,172.6730826471321 34.81334599771071,172.3281788744789 34.76939130277606,172.64172778649663 34.81334599771071,172.92392133134126 34.747413955279626,173.26882394007407 34.571595175541006,173.51966177785653 33.97820679395227,173.77049925924803 33.362841064925306,173.92727250405005 32.70352064090548,173.98998176310852 32.43979247123934,174.1467548130604 32.285951038997155,174.83655457917484 31.97826817445457,175.77718628045113 31.912336132023484,176.05937481370347 31.89035878458526,176.3415628956427 32.00024552189279,176.655104680176 31.736517352226656,176.78052123809175 31.516743877669796,177.0 31.274993055441882,176.81187536368088 31.758494699781295,175.58906034108077 32.110132259258535,174.36623684914957 32.37386042880826,173.80185391934356 32.59363390348153,173.55101648258278 32.90131676802412,173.51966177785653 34.17600292118732,173.64508056301565 34.483685785729904,173.55101648258278 34.659504565410316,173.33153343304002 34.79136865027249,172.98663094661606 34.747413955279626,172.70443750217964 34.59357252303744,172.39088870145497 34.395776395860594,172.17140420955548 34.0880935312598,171.98327442801383 33.868320056586526,171.7637894294603 33.67052392940968,171.54430415794195 33.516682497167494,171.23075329695712 33.42877310723998,170.94855704576185 33.38481841236353,169.9765442837961 33.42877310723998,169.69434602782712 33.604591887036804,169.03588167656562 33.89029740408296,168.12656972542754 34.35182170086773,167.71894560630608 34.54961782810278,167.4994553061988 34.50566313316813,166.90369454461324 34.19798026862554,166.33928775790264 34.35182170086773,165.74352308119705 34.307867005933076,165.39860577046056 34.43973109073704,164.42656245104445 34.571595175541006,162.26296294477652 34.659504565410316,161.98075235863507 34.81334599771071,161.6671845117089 34.76939130277606,161.07140406785766 34.85730069264537,160.44426458638918 34.70345926040318,160.16205109281873 34.63752721797209,159.2213361895847 34.7254366078414,158.90776344103506 34.7254366078414,157.68482440031948 35.099051514756866,157.15174575681158 35.38475703186123,157.12038813946128 35.45068907429231,156.8068116591312 35.23091559961904,156.61866550365812 35.05509681988042,156.33644589426694 34.98916477744933,155.45842644677032 34.98916477744933,154.83126702479785 34.87927804008359,153.85916551748232 34.901255387521815,153.5455832441221 34.9671874299529,153.23200041381642 35.340802336868364,152.7929835155228 35.49464376916876,152.51075779007806 35.538598464103416,152.19717312142893 35.49464376916876,151.601360716435 35.56057581154164,150.31565341164242 35.362779684423,148.46547280786035 35.362779684423,148.18324016372208 35.29684764199192,147.24246142384072 35.38475703186123,146.58391332278552 35.38475703186123,144.95321221301856 35.340802336868364,144.63961411864148 35.14300620974973,144.38873524201335 35.25289294705726,144.10649607962114 35.58255315909628,143.98105630712234 35.86825867620064,143.98105630712234 36.04407745588105,143.6988164929062 35.42871172685409,143.51065636602289 35.186960904626176,143.3224960385851 35.099051514756866,143.00889504721272 35.186960904626176,142.69529349860386 35.14300620974973,142.06808873011323 35.186960904626176,141.78584585721546 35.16498355718795,141.47224213586014 35.27487029455369,140.876393530285 35.31882498943014,139.9355758473248 35.31882498943014,139.62196883870638 35.208938252180815,138.9947531499347 35.25289294705726,138.36753523242078 35.208938252180815,138.02256442782527 35.12102886219509,137.70895402035967 35.186960904626176,137.3953430558031 35.12102886219509,137.0817315340537 35.14300620974973,136.45450681891816 35.31882498943014,135.89000266963558 35.538598464103416,135.70183421870752 35.86825867620064,135.60774991799553 35.80232663376955,135.29413522023242 35.51662111666519,135.262773719689 35.31882498943014,135.04324306068884 35.208938252180815,134.7609889551095 35.27487029455369,133.8201386765286 35.25289294705726,131.27981787431054 35.01114212494576,130.0566874115757 34.7254366078414,129.2098998183501 34.571595175541006,128.89627375283453 34.61554987053387,128.614009817451 34.81334599771071,128.36310816268087 34.87927804008359,128.08084337456967 34.747413955279626,127.76721530297073 34.59357252303744,127.1085945385712 34.571595175541006,126.44997131648415 34.52764048060635,126.13634034700226 34.43973109073704,124.91317424077715 34.7254366078414,124.75635746031185 35.69243989640381,124.69363070916734 36.57153379509691,124.5368137335463 36.57153379509691,124.22317936451873 36.703397879900876,123.94090795583907 37.033058091881685,123.94090795583907 37.62644647347042,123.75272676590248 38.263789550052024,123.72136321471771 38.57147241459461,123.78409031145566 39.18683814373799,123.68999965800322 39.47254366084235,123.72136321471771 40.65932042407803,123.62727252791228 42.57134965370642,123.31363654250163 43.120783340360504,123.34500016612583 43.42846620490309,123.28227291333314 43.670217027072795,123.12545468384633 44.32953745103441,123.0 46.50529485032894,123.15681834088173 47.1206605793559,123.06272735304083 47.45032079145312,123.09409102119389 47.7580036559375,123.21954563834879 48.02173182560364,123.43909100358724 47.9118450882379,123.72136321471771 46.70309097756399,124.06636197101034 46.35145341808675,124.12908894497377 45.7580650364398,124.12908894497377 45.1207219598582,124.28590628292295 44.85699379030848,124.44272348139202 44.81303909531562,124.75635746031185 44.922925832739566,126.07361408618453 44.8789711377467,126.73223871260416 44.922925832739566,128.01811780489516 44.94490318017779,128.33174543069617 44.922925832739566,128.95899901053053 44.98885787505424,129.24126239422185 44.94490318017779,129.55488784666522 44.98885787505424,129.86851274191577 44.96688052761601,130.18213707982795 45.01083522255067,130.49576086056186 44.94490318017779,131.0916445086914 44.96688052761601,131.46799103931698 45.09874461241998,132.65974975959398 45.09874461241998,133.00473104526463 45.18665400228929,134.07103257450217 45.09874461241998,134.35328778346593 45.252586044662166,134.98051996516006 45.40642747696256,135.29413522023242 45.38445012952434,135.60774991799553 45.2745633921586,136.1722549698752 45.2745633921586,136.51722939062165 45.23060869722394,136.83084191540547 45.252586044662166,137.17581504907866 45.20863134972751,137.4580652933073 45.252586044662166,138.36753523242078 45.31851808709325,138.68114446972322 45.31851808709325,138.9947531499347 45.47235951939365,139.62196883870638 45.29654073965503,139.90421517154027 45.2745633921586,140.18646105300286 45.428404824400786,140.4373459022172 45.49433686683187,141.40952132472012 45.49433686683187,142.03672843324603 45.45038217189722,142.63257312204223 45.516314214328304,143.54201640107203" stroke="#4dd2ff" stroke-linecap="round" stroke-linejoin="round" stroke-width="0.5"><title>2021-04-11 9.4km</title></polyline><polyline fill="none" points="113.05490147817181,143.82387358650158 112.64046016137581,143.9172486110765 112.24783154553734,143.9172486110765 111.87701563053997,143.82387358650158 111.5061997155426,143.854998600189 111.00450759526575,143.66824843491486 110.7863805864472,143.82387358650158 110.17562496173196,143.886123608434 105.72583398170536,143.79274856718257 102.12673833611188,143.854998600189 101.95223672897555,143.69937347623636 101.93042402813444,142.70336940935522 102.0176748316735,141.58285806581262 101.97404942987487,141.08485072378244 101.7559224209981,140.9603486671549 100.66528737690533,141.1471017190197 99.74915393989068,141.20935269199254 99.00752210989594,141.1782272082637 97.9823251683847,141.24047817019164 97.52425844990648,141.02259970649902 97.50244574894896,140.64909313834505 97.52425844990648,140.24446012418775 97.45882034726674,139.49744287366048 97.50244574894896,139.27956224225636 97.48063304810785,138.59479277937498 97.43700764630921,138.2212810352794 97.34975684277015,137.84776849468471 97.2843187401304,137.31862436572555 97.19706793659134,136.04244665593433 97.17525523575023,134.17485276289517 97.10981713311048,134.11259929013613 97.04437903047074,133.49006334690785 97.10981713311048,133.20992145068885 97.08800443226937,133.05428687037784 97.13162983395159,132.77414427735494 97.19706793659134,132.64963631439605 97.17525523575023,132.4006201231532 97.2843187401304,132.1516035778477 97.26250603928929,131.9025866786542 97.17525523575023,131.7469509368093 97.13162983395159,130.96877015399514 97.02256632957142,130.6263695145317 96.97894092777278,130.0972035734594 97.02256632957142,129.72367371147266 97.80782356130658,129.28788786595396 97.93869976658607,128.9143562784011 97.91688706574496,128.3851851659274 97.45882034726674,127.88714030580013 97.24069333838997,127.94939599078498 96.89169012429193,127.5447336431389 96.91350282513304,126.70427808820386 96.86987742339261,126.08171581823262 96.82625202159397,125.67704915636568 96.84806472249329,124.80545624802471 96.97894092777278,124.43191510270117 97.30613144108793,124.27627272372774 97.61150925338734,124.214015733407 98.24407757894369,124.18288722992293 98.61489349394105,124.08950168637966 99.05114751157816,124.08950168637966 99.77096664073179,123.62257322197547 99.83640474337153,123.4046728459798 99.70552853809204,123.21790087937552 99.18202371691586,123.0 98.06957597192377,123.12451482133474 97.34975684277015,123.06225742169772 97.0007536286721,123.12451482133474 96.56449961097678,123.46693012383184 96.58631231193431,124.52530046366155 96.58631231193431,126.57976581116964 96.76081391895423,128.9143562784011 96.80443932075286,130.28396820568014 96.28093449957669,130.75087891537987 94.92854704480851,130.5952421505208 93.44528338487726,130.56411478083464 93.07446746987989,130.6263695145317 92.48552454600576,130.56411478083464 91.4167022027541,130.56411478083464 90.52238146658055,130.50186002512055 89.01730510569178,130.47073263891798 87.62129224918317,130.37735044723377 87.33772713772487,130.37735044723377 87.07597472716589,130.6263695145317 87.18503823154606,131.21778838062892 87.20685093238717,131.77807809629303 87.2504763341858,132.1516035778477 87.18503823154606,132.3383660200052 87.20685093238717,132.89865215189639 87.16322553070495,133.24104835024627 87.14141282980563,134.51724646697403 87.18503823154606,135.04639905712975 87.6649176509818,135.26428495334403 87.79579385620309,135.26428495334403 88.03573356597917,135.13977876013087 88.34111137833679,135.48217057839793 88.0793589677196,135.60667652834672 87.44679064216325,135.57555004913593 87.05416202620836,136.01132025419793 87.05416202620836,136.6649735293904 87.07597472716589,137.2874981907662 87.16322553070495,138.2212810352794 87.16322553070495,139.74644897773396 87.097787428007,140.6802187160647 87.01053662452614,141.24047817019164 87.01053662452614,142.14311463330523 86.92328582098708,142.67224419098056 87.097787428007,143.17024702069466 87.55585414654342,143.35699771689542 87.70854305272223,143.79274856718257 87.512228744803,143.79274856718257 87.18503823154606,144.3529980679159 87.33772713772487,144.63312214644975 87.2286636333447,145.7536139817239 87.18503823154606,148.36806706307107 87.35953983856598,149.83089878944156 87.33772713772487,151.16922350005188 87.27228903508512,152.07180881185923 86.74878421390895,153.1611297201307 86.79240961570758,153.59685618705407 86.92328582098708,154.59279832814354 86.90147312008776,155.89996379699733 87.18503823154606,156.46017458412098 86.8360350173898,157.05150624939415 86.70515881216852,157.20711951388512 86.5524699059315,157.64283591903222 86.59609530773014,158.20304113344173 86.5524699059315,159.72803514296538 86.74878421390895,160.13262316255714 86.63972070952877,163.02695636315912 86.66153341036988,163.27592902891047 86.8360350173898,163.46265829606273 86.90147312008776,163.7116303426592 86.92328582098708,164.33405891149596 86.74878421390895,166.13908925764554 86.44340640155133,166.5747834520007 86.33434289711295,166.8237510765175 86.42159370071022,167.01047656284936 86.24709209357388,167.50841022013628 85.7017745715566,167.94410100960522 85.33095865655923,169.25116687771515 85.2873332547606,170.43374188095913 85.3091459556017,170.80718496069312 85.39639675919898,171.1183869192173 85.61452376801753,171.42958832497243 85.89808887953404,171.64742898014083 86.33434289711295,171.9275094246841 86.57428260688903,172.20758942136308 86.63972070952877,172.36318922619103 86.59609530773014,172.8922275288205 86.18165399093414,173.17230598369497 85.91990158037515,173.26566536900646 85.78902537509566,173.39014447231602 85.5708983662189,173.35902470478322 85.37458405829966,173.45238399071968 85.48364756273804,173.63910241346457 86.02896508475533,174.01253866193292 86.48703180334996,174.1992564877728 86.63972070952877,174.38597411458613 86.8360350173898,174.54157198501343 87.18503823154606,174.7282892470539 87.49041604390368,174.7282892470539 87.70854305272223,175.03948424189002 88.38473678013543,175.7241112847114 91.26401329657529,176.96888087352272 91.59120380977402,177.0 91.65664191241376,176.28425869399507 91.63482921157265,175.9108272867452 91.65664191241376,175.41291750587698 91.8529562203912,174.94612580147805 91.91839432308916,174.47933285344334 92.37646104156738,174.0436583134142 92.70365155488253,174.2926153260487 93.29259447869845,174.60381109449372 94.51410572801251,174.82164780356106 95.27755025896477,175.00836476717086 96.19368369597942,175.10172317443357 97.2843187401304,175.31955926449155 98.26589027990121,175.47515630595444 98.85483320371713,175.69299193179177 99.90184284606948,175.94194660104404 100.57803657336626,175.66187257329875 100.64347467606422,175.25732040933508 100.88341438572388,174.4170936998271 100.99247789016226,174.1992564877728 101.14516679634107,173.70134184346534 101.18879219813971,173.2967851531721 101.47235730965622,171.80302928230958 101.49417001049733,171.46070843510097 101.64685891667614,170.58934326090093 101.58142081397818,170.46486216808262 101.62504621577682,169.65573290859174 101.95223672897555,168.84659991278022 101.97404942987487,167.9129802747484 101.99586213077419,167.78849728054774 102.21398913965095,167.4461685903516 102.3012399431318,167.41504776722286 102.2794272422907,167.25944356834225 102.25761454133317,167.25944356834225 102.36667804577155,167.13496010983363 102.5848050545901,166.79263014283788 102.51936695195036,166.23245239045355 102.65024315728806,165.36106121620105 102.5848050545901,164.95648526927107 102.47574155015172,164.55190838822455 101.53779541217955,164.05396632905467 101.71229701931588,163.86723769211676 101.7559224209981,163.27592902891047 101.8649859254947,163.02695636315912 101.97404942987487,162.93359152223275 101.69048431847477,161.56423480730155 101.79954782279674,161.43974730251648 101.84317322465358,161.4708691869455 101.90861132717691,161.4086254125432 102.06130023347214,160.4438440803351 102.03948753251461,159.88364603021182 102.51936695195036,159.0122232811991 103.45731308992254,159.16783480430604 103.80631630396238,159.26120165169414 104.41707192873582,159.32344618914067 106.24933880288154,159.32344618914067 106.53290391433984,159.35456844947475 107.10003413731465,159.44793519745872 107.27453574433457,159.57242411738844 107.38359924871475,159.38569070439553 107.40541194967227,158.79436691677256 107.71078976197168,158.5142654787196 107.81985326635186,158.32753093798237 108.4306088911253,157.89181623543845 111.02632029610686,157.92293875016912 112.57502205873607,157.86069371527992 113.53478089766577,157.89181623543845 113.81834600906586,157.79844865816995 114.18916192406323,157.76732612140768 114.38547623204067,157.611713354534 114.29822542850161,157.36273264000192 114.23278732586186,156.52242011645285 114.03647301788442,155.40199714932533 114.01466031704331,155.1218902879482 114.03647301788442,154.8417829789105 114.25460002670297,153.97033515338262 114.2764127276605,153.34786976725445 114.40728893288178,152.53866145900975 114.45091433468042,151.72944941336755 114.42910163383931,151.3559656702273 114.5599778391188,149.79977483736002 114.71266674529761,148.9905501415924 114.69085404434009,148.30581863349653 114.60360324085923,147.77670608986227 114.62541594170034,146.9674720500043 114.51635243732017,146.40723090962274 114.5599778391188,146.00261119412608 114.62541594170034,145.81586331802828 114.58179053995991,144.97549541197077 114.66904134349898,144.69537188093818 114.62541594170034,144.41524790186668 114.36366353114136,144.1973733863415 114.21097462496255,144.16624843343743 114.01466031704331,143.886123608434 113.97103491524467,144.10399851104012 113.94922221434535,144.0417485664948 114.21097462496255,143.17024702069466" stroke="#4dd2ff" stroke-linecap="round" stroke-linejoin="round" stroke-width="0.5"><title>2019-10-19 6.2km</title></polyline><polyline fill="none" points="168.15322488569655,123.0 168.15322488569655,123.4328847626457 168.30491279042326,123.54110590519849 167.5464732660912,126.35484886646736 167.69816117105074,126.89595179230673 167.69816117105074,127.65349508076906 167.62231721868739,131.1165381175233 167.39478536136448,133.06449117453303 167.39478536136448,134.5795614683302 167.7740051234141,136.2028468872304 167.39478536136448,139.1247497414588 168.30491279042326,142.58772756980034 168.38075674301945,145.29316530091455 168.001536980737,147.2410730284173 167.5464732660912,147.99859101767652 167.01556559908204,150.27113933529472 167.39478536136448,151.24508601933485 167.24309745640494,152.76011109893443 167.69816117105074,154.16691672831075 168.15322488569655,155.0326416544267 167.69816117105074,156.22301141987555 166.1054381702561,159.03660343663068 166.40881397994235,160.8762527295621 166.40881397994235,162.39125385857187 166.56050188466907,162.71589646773646 166.93972164671868,162.82411063241307 166.86387769458815,163.36518116673687 166.93972164671868,166.3951672789408 166.78803374175914,166.82802120759152 165.72621840797365,168.23479435173795 165.72621840797365,169.3169253290398 165.1953107409645,170.2908415654092 164.133495407179,171.37296889105346 163.14752402552404,172.77973154076608 158.67273083236068,175.3768232827424 154.57715740147978,175.1603993937024 152.68105859099887,173.42900551424827 152.68105859099887,170.61547996505396 153.43949811533093,169.9662029929459 155.4872848307714,169.3169253290398 158.74857478495687,166.93623464164557 161.32726916740648,166.61159428139217 164.3610272645019,166.71980775386328 165.72621840797365,168.1265811480116 165.6503744556103,169.3169253290398 164.2851833119057,171.15654357965104 163.83011959749274,172.34688184055267 161.85817683441564,174.51112726563588 157.68675945117138,175.1603993937024 154.4254694969859,174.72755138535285 152.8327464957256,173.7536422413541 152.07430697139353,172.88794391753618 152.30183882871643,172.34688184055267 152.75690254336223,170.2908415654092 154.34962554415688,168.99228623771342 156.24572435510345,168.66764697333565 159.05195059464313,167.4773015238461 160.56882964330725,167.26087482855655 161.63064497709274,167.26087482855655 164.20933935954235,166.71980775386328 165.4228425982874,169.64156424743123 163.37505588284694,173.10436861391645 161.5548010247294,174.18649094214197 157.8384473558981,175.1603993937024 155.10806506848894,174.83576341642765 154.57715740147978,174.9439754280611 152.07430697139353,174.29470306902658 151.61924325721338,173.21258093306096 152.07430697139353,170.9401181914145 153.2878102103714,169.53335129393963 154.197937639663,168.8840731686214 157.1558517839294,167.1526614521863 159.20363849936984,166.61159428139217 161.25142521504313,166.61159428139217 163.4508998352103,166.93623464164557 165.802062360337,169.3169253290398 164.96777888364159,170.50726718455553 164.74024702631868,171.26475624501472 164.3610272645019,171.91403183317743 163.4508998352103,172.99615627515595 162.31324054906145,174.07827879593242 161.09973731008358,174.6193393349531 158.5210429278668,175.3768232827424 154.57715740147978,175.1603993937024 152.8327464957256,174.40291517681908 152.15015092422254,173.21258093306096 152.15015092422254,171.48118151770905 156.01819249778055,168.23479435173795 157.30753968888894,167.36908818560187 161.5548010247294,166.71980775386328 164.5885591218248,166.71980775386328 165.72621840797365,168.8840731686214 165.57453050324693,169.64156424743123 164.74024702631868,171.26475624501472 163.07168007316068,173.32079323322978 161.02389335772023,174.40291517681908 157.91429130826145,174.9439754280611 156.54910016455688,175.3768232827424 153.9704057823401,175.3768232827424 153.2878102103714,175.26861134794308 152.07430697139353,174.29470306902658 151.69508720957674,173.21258093306096 151.7709311619401,171.6976067138021 152.45352673367597,170.2908415654092 157.08000783156604,167.36908818560187 159.20363849936984,166.71980775386328 162.84414821583778,166.28695374849485 164.20933935954235,166.50338078971254 165.802062360337,167.91015468374826 165.6503744556103,169.53335129393963 164.89193493127823,171.04833089502063 164.20933935954235,172.6715191443218 162.91999216820113,173.7536422413541 160.4929856909439,174.51112726563588 155.79066064045765,175.26861134794308 155.03222111612558,175.1603993937024 152.07430697139353,173.7536422413541 151.92261906689964,172.02224436379038 153.0602783530485,170.0744158695452 156.1698804027401,168.0183679254842 158.82441873732023,166.93623464164557 161.4789570721332,166.17874019913143 162.1615526441019,166.28695374849485 164.133495407179,165.85409943532431 165.8779063129332,168.99228623771342 164.133495407179,171.80581928277388 162.84414821583778,173.32079323322978 161.4789570721332,175.1603993937024 159.9620780237019,175.80967083014548 158.67273083236068,175.3768232827424 157.08000783156604,175.1603993937024 154.4254694969859,175.70145897223847 154.88053321116604,175.917882669135 158.2935110705439,175.26861134794308 162.0098647393752,174.18649094214197 163.07168007316068,173.5372177757672 163.9059635498561,172.1304568751948 165.1953107409645,170.50726718455553 165.8779063129332,168.8840731686214 164.96777888364159,167.26087482855655 163.75427564489655,166.61159428139217 161.40311311976984,166.82802120759152 159.9620780237019,166.71980775386328 157.30753968888894,167.5855148427072 156.70078806951642,167.80194142251275 153.81871787738055,169.74977718212176 152.68105859099887,170.9401181914145 152.45352673367597,171.58939412550535 152.15015092422254,171.91403183317743 152.2259948765859,172.02224436379038 152.52937068603933,174.07827879593242 153.5153420676943,174.83576341642765 154.04624973470345,175.05218742054421 155.18390902108513,174.9439754280611 155.33559692581184,174.6193393349531 157.6109154985752,174.83576341642765 158.97610664227977,174.40291517681908 160.4929856909439,174.72755138535285 161.25142521504313,174.6193393349531 161.85817683441564,174.18649094214197 162.46492845378816,173.5372177757672 163.2233679778874,173.21258093306096 164.05765145481564,171.6976067138021 165.34699864592403,169.9662029929459 165.6503744556103,168.5594338469091 166.0295942176599,168.45122070098296 165.4228425982874,167.04444805631647 161.25142521504313,166.82802120759152 159.9620780237019,166.50338078971254 158.67273083236068,166.82802120759152 156.54910016455688,168.34300753608113 153.7428739250172,170.61547996505396 153.0602783530485,171.26475624501472 152.30183882871643,172.88794391753618 151.69508720957674,173.10436861391645 152.60521463863552,174.29470306902658 154.04624973470345,175.26861134794308 155.7148166880943,175.70145897223847 160.1896098810248,175.1603993937024 162.0098647393752,174.40291517681908 163.07168007316068,173.5372177757672 163.37505588284694,172.99615627515595 164.5127151692286,172.1304568751948 165.72621840797365,169.9662029929459 165.95375026529655,169.20871231792262 166.1054381702561,167.80194142251275 164.74024702631868,166.82802120759152 163.98180750221945,167.1526614521863 160.1896098810248,166.50338078971254 157.30753968888894,167.1526614521863 156.01819249778055,167.5855148427072 155.33559692581184,168.5594338469091 155.4872848307714,168.8840731686214 153.89456182997674,170.0744158695452 152.98443440068513,170.18262872722698 152.75690254336223,170.50726718455553 152.30183882871643,170.61547996505396 151.7709311619401,171.48118151770905 151.84677511453629,172.6715191443218 152.8327464957256,174.18649094214197 156.92831992683932,175.1603993937024 158.67273083236068,175.1603993937024 161.85817683441564,174.51112726563588 163.6784316925332,172.99615627515595 165.27115469332784,170.18262872722698 166.56050188466907,168.45122070098296 164.8160909791477,166.93623464164557 162.0098647393752,166.3951672789408 158.82441873732023,166.71980775386328 158.065979213221,167.36908818560187 155.4872848307714,168.66764697333565 152.45352673367597,171.26475624501472 152.15015092422254,171.80581928277388 152.37768278154545,172.6715191443218 152.37768278154545,174.07827879593242 152.45352673367597,174.51112726563588 152.98443440068513,176.02609448850853 154.197937639663,177.0 154.95637716376223,177.0 157.23169573652558,175.59324709518114 158.2935110705439,175.59324709518114 162.31324054906145,174.40291517681908 162.69246031087823,173.97006662987405 164.3610272645019,171.26475624501472 165.34699864592403,170.18262872722698 165.4228425982874,167.26087482855655 161.17558126244694,165.63767216337146 160.11376592866145,165.74588580906857 157.6109154985752,167.91015468374826 157.45922759384848,167.80194142251275 156.39741225959733,168.66764697333565 154.88053321116604,168.7758600806119 152.90859044832177,170.61547996505396 152.07430697139353,171.58939412550535 152.52937068603933,172.1304568751948 152.15015092422254,173.6454300180776 152.45352673367597,174.40291517681908 155.9423485454172,175.48503519862425 155.9423485454172,174.83576341642765 156.01819249778055,174.51112726563588 158.14182316558436,174.51112726563588 160.265453833621,174.29470306902658 160.64467359543778,174.40291517681908 161.934020786779,173.5372177757672 162.46492845378816,173.7536422413541 163.4508998352103,173.42900551424827 164.3610272645019,171.58939412550535 165.04362283600494,170.9401181914145 165.4228425982874,169.42513832094846 165.6503744556103,168.8840731686214 165.8779063129332,168.66764697333565 165.72621840797365,167.4773015238461 165.27115469332784,166.82802120759152 164.43687121686526,166.93623464164557 162.6166163587477,166.50338078971254 162.1615526441019,166.17874019913143 161.02389335772023,166.61159428139217 160.265453833621,167.1526614521863 158.44519897503778,168.1265811480116 157.1558517839294,169.74977718212176 160.11376592866145,170.2908415654092 160.87220545276068,168.8840731686214" stroke="#4dd2ff" stroke-linecap="round" stroke-linejoin="round" stroke-width="0.5"><title>2019-07-21 5.1km</title></polyline><polyline fill="none" points="39.73067515785806,213.0 39.53222527413163,213.3236336466798 39.447175323963165,214.45634778800013 39.30542540701572,215.2654258676048 39.503875290742144,215.58905629455694 39.58892524091061,216.03404738039535 39.6172752243001,216.88357340243238 39.73067515785806,217.24765501306683 39.58892524091061,217.6521894531179 39.673975190962665,218.0567231746536 39.673975190962665,218.50170943808916 38.90852563956287,218.66352240924607 38.48327588872053,218.5826159381395 38.05802613787819,218.66352240924607 37.32092656986788,218.90624165034387 36.95237678580452,218.78488206218753 36.4704270681832,218.8657884615095 35.61992756649852,218.74442885167082 35.27972776570823,218.8657884615095 34.457578247529455,218.82533526538464 34.08902846346609,218.70397563411098 33.29522892856039,218.8657884615095 33.04007907805499,219.18941377129522 33.32357891194988,219.5130386212113 33.32357891194988,219.87711602753552 33.181828995002434,221.09070317767328 33.23852896178141,221.49523079062055 33.23852896178141,221.8997576845868 33.35192889533937,222.34473643824458 33.153479011612944,223.15378648943442 33.153479011612944,224.0032859497005 33.29522892856039,224.36735617666272 33.21017897827551,224.73142582172295 33.23852896178141,225.50001538301876 33.38027887872886,225.90453516267007 33.4936788121704,226.71357256628107 33.35192889533937,228.41254175761424 33.40862886200193,229.66653469676385 33.35192889533937,230.07104707496183 32.84162919432856,230.59691209242737 32.78492922754958,231.00142281790613 32.81327921093907,231.40593282492773 32.61482932721265,231.7699912168173 32.81327921093907,232.17449985847634 32.86997917771805,232.98351498627744 32.84162919432856,234.23748275416438 32.926679144380614,234.64198701293208 33.04007907805499,234.96558990245103 33.32357891194988,235.24874205354718 33.32357891194988,235.61279430196737 32.95502912788652,235.81504529959057 32.33132949331775,236.3813471372996 32.41637944348622,236.82629759334668 32.33132949331775,237.27124718006235 32.35967947670724,238.44429192290409 32.41637944348622,238.8083390626707 32.58647934382316,239.17238562062266 32.84162919432856,239.86002753092907 32.671529293991625,240.2240724075673 32.671529293991625,240.58811670223076 32.55812936043367,240.99260968036833 32.643179310602136,241.39710194016516 32.52977937704418,242.16563525430684 32.61482932721265,242.529676445105 32.50142939365469,243.33865478582447 32.55812936043367,244.10718154774804 32.44472942687571,244.47121963494283 32.41637944348622,244.91615428461228 32.04782965942286,244.7543599671044 31.906079742475413,244.430770987281 32.217929559759796,244.71391136973398 32.16122959298082,245.482433490557 31.96277970925439,245.80602097594237 32.189579576370306,246.12960800169094 32.07617964281235,246.49364285609045 31.906079742475413,246.8576771283697 31.906079742475413,247.2621589708142 31.821029792306945,247.66664009459782 32.04782965942286,248.03067249206651 32.07617964281235,248.43515225104056 32.33132949331775,249.16321400697052 32.07617964281235,249.48679626239755 31.679279875359498,249.72948265229934 31.42413002497051,250.01261644698388 30.77208040689584,251.46872754496871 30.68703045672737,252.3181213861244 30.74373042350635,252.68214634811739 30.74373042350635,253.85511171229882 30.94218030734919,254.2595811268111 31.225680141244084,254.58315614107414 31.59422992519103,254.7853902916977 31.877729759085923,255.0685178006679 32.217929559759796,255.27075152019097 32.38802946009673,255.6347717627359 32.41637944348622,256.0796846023004 32.302979509928264,256.48415006595314 32.04782965942286,256.76727546310576 31.707629858748987,256.9290612463956 31.452480008243583,257.2121860903717 30.998880274011753,257.2930788382364 31.225680141244084,257.6166495426587 33.72047867940273,258.99181990763464 34.06067847996019,259.1131580706133 34.37252829736099,259.3962801994785 34.08902846346609,260.1243069144257 34.003978513297625,260.5287651949475 33.72047867940273,260.8118855639623 33.578728762455285,261.2163426234911 33.46532882889733,261.5803533628932 33.43697884550784,261.98480905772885 33.66377871262375,262.14659113441303 34.42922826402355,262.34881856889115 34.54262819758151,262.71282749823877 34.42922826402355,263.56217940422357 34.400878280750476,264.4519732417102 34.74107808142435,264.61375356598 35.563227599603124,264.7350887337234 35.960127367055975,264.65419862915587 36.32867715111934,264.5328634181933 37.57607642025687,264.5733084956155 38.00132617109921,264.65419862915587 38.76677572261542,264.6946436850267 39.050275556510314,264.977758875335 39.19202547345776,265.3822085366992 39.3621253737947,266.15066091468907 39.673975190962665,266.3528847937123 40.07087495853193,266.3528847937123 40.46777472598478,266.23155048784974 40.66622460971121,266.5955532115913 40.9497244436061,266.8382213708828 41.374974194332026,266.7977766955446 42.19712371274363,266.9191106998478 42.96257326414343,266.8786660388869 43.784722782555036,267.0 43.983172666165046,266.7168873234914 44.35172245034482,265.9484368560079 44.918722118018195,265.3822085366992 45.372321852250025,265.30131866197917 45.59912171936594,264.5733084956155 45.825921586481854,264.29019280255307 45.88262155326083,263.926186394252 45.99602148681879,263.56217940422357 46.02437147020828,262.7937182924361 45.825921586481854,262.51060038711876 45.769221619702876,262.1061456260504 45.88262155326083,261.74213572703593 45.93932152003981,260.9736684740783 46.16612138715573,260.24564447400917 46.87487097189296,260.1243069144257 47.583620556630194,260.36698196901125 47.980520324083045,260.1647527749883 48.17897020780947,259.80073977287975 48.26402015797794,259.03226596905733 48.34907010814641,258.6278050308465 48.74596987559926,258.5064666092658 49.00111972610466,258.2637895722728 49.22791959310416,257.9402197872987 49.312969543389045,257.53575690968137" stroke="#4dd2ff" stroke-linecap="round" stroke-linejoin="round" stroke-width="0.5"><title>2019-06-01 5.1km</title></polyline><polyline fill="none" points="90.22531645558774,221.37365563691128 88.31139240507036,220.39843478554394 83.25316455680877,221.37365563691128 82.15949367079884,219.61825748032425 80.3822784810327,218.64303507073782 78.60506329126656,219.22816862061154 79.42531645577401,220.78852322965395 80.24556962028146,226.44479010428768 78.87848101276904,227.81009153660852 77.78481012629345,229.3704339521937 77.51139240525663,231.12581651995424 76.41772151878104,232.8811962826876 76.00759493652731,234.83161494892556 76.14430379774421,236.58698878763244 74.6405063290149,237.56219526391942 73.68354430375621,239.51260561775416 74.91392405051738,241.07293140643742 74.50379746826366,242.82829526916612 76.2810126580298,243.0233355248347 78.19493670854717,242.63325497834012 80.10886075953022,243.21837574651 81.74936708854511,242.82829526916612 83.52658227877691,243.41341593360994 84.75696202507243,244.97373617999256 86.39746835455298,245.75389547168743 96.51392405061051,246.1439749103738 99.93164556985721,247.50925185275264 104.03291139192879,248.09437002276536 107.72405063314363,249.6546836186899 111.5518987341784,249.84972266259138 119.20759493671358,251.60507249669172 123.03544303774834,252.19018848461565 127.0,253.55545791063923 126.17974683549255,255.70087786542717 125.22278481023386,257.6512560057454 124.94936708826572,261.3569649292622 122.76202531624585,260.96689089445863 120.71139240497723,261.1619279294973 116.74683544272557,260.96689089445863 114.96962025295943,260.7718538248446 113.32911392394453,259.99170520168263 107.72405063314363,259.6016306820093 105.81012658216059,258.82148122694343 92.95949367061257,254.92072563944384 88.03797468356788,253.75049626175314 81.88607594929636,251.9951498566661 77.64810126600787,251.60507249669172 74.6405063290149,249.0695662802318 73.0,248.28940934338607 74.7772151902318,244.97373617999256 75.18734177248552,241.07293140643742 77.23797468328848,241.46301250741817 78.87848101276904,242.63325497834012 82.7063291138038,242.63325497834012 84.89367088628933,245.55885570088867 88.72151898732409,245.1687760547502 90.36202531680465,245.75389547168743 97.60759493615478,247.50925185275264 104.71645569615066,250.2398006459698 113.05569620244205,251.60507249669172 114.5594936707057,252.77530416101217 113.73924050619826,254.72568749648053 113.19240506272763,258.4314062920166 114.83291139220819,259.6016306820093 119.48101265821606,260.57681672112085 123.99240506300703,260.96689089445863 125.3594936709851,255.5058398611145" stroke="#4dd2ff" stroke-linecap="round" stroke-linejoin="round" stroke-width="0.5"><title>2018-09-29 5.1km</title></polyline><polyline fill="none" points="133.65615763547248,227.3104163998505 133.8157635468233,227.41134546001558 134.28571428571013,227.57535487856512 134.5783251231478,227.8276763254471 135.08374384237686,228.16830886477692 135.7133004926145,228.4837079155477 135.997044335003,228.91264838937786 136.10344827588415,229.17758092446456 136.25418719215668,229.15234929683356 136.4847290640464,229.20281254326255 136.9369458128349,229.65698015654925 138.0275862069102,230.59053784761636 138.46206896554213,231.01946566842525 138.99408866997692,231.3979292534932 139.6857142857334,232.07915865293762 140.0935960591305,232.4323861538869 140.5812807881739,233.11360568690725 141.37044334979146,234.29941678272735 141.60985221675946,234.71570749858074 142.0798029557045,235.32121693597583 142.21280788179138,235.47259349326487 142.3724137931422,235.58612570069818 142.6916256157565,235.58612570069818 143.15270935962326,235.2455285370088 143.47192118229577,235.16984005783888 143.63152709361748,235.0941514984661 144.11921182266087,234.67786298831197 145.19211822660873,233.93358354459633 145.94581280791317,233.34067742073967 146.4157635468291,233.17668124094052 146.6640394088754,233.25237183226272 146.9832512315479,233.42898290004814 147.09852216750733,233.5551333954063 147.36453201973927,233.47944312493928 147.52413793106098,233.5046732239789 147.53300492611015,233.47944312493928 147.70147783253924,233.51728827018815 148.05615763549577,233.6938986829191 148.38423645321745,233.794818722723 148.87192118226085,234.0723480968736 149.28866995073622,234.1858825300369 149.87389162564068,234.51386987874866 150.23743842364638,234.7283223308914 150.75172413795372,234.9427741391337 150.9201970443537,235.08153673078778 151.21280788179138,235.2581432757288 151.42561576355365,235.4852081919089 151.5231527093565,235.4978228882901 150.25517241383204,234.7787816378259 149.83842364535667,234.50125500857393 148.76551724140882,234.0218882908739 148.38423645321745,233.78220372553187 147.8344827586261,233.60559353114513 147.4709359605913,233.42898290004814 147.32906403942616,233.45421301694296 148.605911330058,233.8831236405822 149.581280788203,234.40033596696594 149.88275862068986,234.52648474670423 150.53891625616234,234.9806185090638 154.34285714285215,237.2260152351082 156.1960591133393,238.34868712893513 156.60394088670728,238.51267143424775 157.27783251233632,238.67665536309505 158.83842364535667,239.2316750980608 159.1931034483132,239.2695171956584 160.13300492611597,239.28213122372108 160.5320197044639,239.33258731382375 161.4630541872175,239.29474524960096 161.95960591136827,239.38304336824513 162.54482758621452,239.66055103044346 162.97931034484645,239.77407658152515 163.22758620689274,239.91282978781237 163.49359605912468,240.00112714239367 163.96354679804062,240.24079084038385 164.30935960594798,240.34170163052477 164.53103448275942,240.45522609904583 164.7881773399131,240.5056813604897 165.0275862069102,240.63181935813918 165.61280788181466,240.80841218066053 165.85221674881177,240.9471633778303 166.4906403940986,241.19943759123998 166.83645320200594,241.4769381969163 166.95172413796536,241.61568809551682 167.07586206900305,241.67875614217337 167.6610837438493,242.15807147683518 168.49458128082915,242.7761312399307 168.77832512315945,243.04101235850976 169.29261083743768,243.28066585757915 169.806896551745,243.68429098599154 170.16157635470154,243.84826304294984 170.8620689655363,244.26449811260682 170.88866995074204,244.34017695562216 170.79113300493918,244.85731357037002 170.87093596058548,244.89515268787363 171.0305418719363,244.3023375441262 171.04827586206375,244.12575335887232 171.18128078820882,243.84826304294984 171.32315270937397,243.35634574286087 171.48275862069568,243.10407914676034 171.52709359608707,242.66261045983265 171.68669950740878,242.48602222115005 171.8817733990436,241.96886843945686 172.05024630544358,241.65352893016825 172.25418719212757,240.9723908392334 172.36059113303781,240.54352278316946 172.63546798031894,240.0894243878647 172.8926108374726,239.97589933795825 172.9369458128349,239.8371462541836 172.91034482760006,239.698392900842 173.07881773402914,239.43349938700703 173.95665024631307,238.80279659062217 174.5596059113741,238.48744310407346 175.02955665026093,238.47482893564302 176.5458128078899,238.9037094122541 176.7852216749161,238.87848122024297 176.989162561571,238.790182477911 177.31724137932179,238.62619880968123 177.56551724139717,238.4369864170294 177.97339901482337,238.29823034386936 178.11527093595942,238.1973166668322 178.18620689658565,238.22254509942286 178.39014778324054,238.58835637126322 178.46995073891594,238.66404122806125 178.79802955666673,239.11814868489455 178.8512315271073,239.25690316536202 179.010837438429,239.4461133861114 179.10837438426097,239.49656936037354 179.42758620690438,239.96328543234995 180.0305418719363,241.0606868840914 180.36748768473626,241.5526199931992 180.65123152712476,242.0950038534138 180.86403940888704,242.41034141377168 181.01477832515957,242.72567758215882 181.4847290640755,243.4446388410288 182.43349753698567,245.0086699201711 183.559605911345,246.98888595256722 184.54384236456826,248.5528394369394 184.75665024633054,248.98165941137268 185.20886699508992,249.71316989769548 185.27093596060877,249.90235242507333 185.6256157635653,250.36900051742123 185.9004926108464,250.9239294163417 186.13103448276524,251.27706374407717 186.37931034484063,251.79415014613915 186.9556650246668,252.6895836001495 186.93793103451026,252.48779675913102 186.88472906404058,252.31123280570318 186.85812807883485,252.31123280570318 186.85812807883485,252.24817414513382 186.90246305419714,252.28600934815768 186.9201970443828,252.4499616629837 186.99113300495083,252.56346689131897 187.0,252.66436027619056 186.92906403943198,252.66436027619056 186.77832512318855,252.4121265467984 186.72512315271888,252.43734995980776 186.65418719215086,252.38690312487597 186.57438423647545,252.15989192686538 186.41477832515375,251.8698210130242 186.42364532023203,251.83198558958975 186.29950738919433,251.66803185656318 185.9891625616001,251.0500490195045 185.80295566504356,250.83564556163037 185.83842364532757,250.84825754757185 185.8295566502784,250.79780959055643 185.85615763548412,250.83564556163037 185.8650246305624,250.79780959055643 185.8295566502784,250.79780959055643 185.89162561579724,250.78519759568007 185.87389162561158,250.82303357349883 185.8206896552001,250.83564556163037 185.8295566502784,250.79780959055643 185.57241379312472,250.39422465179086 185.41280788180302,250.0789223320171 185.18226600985508,249.76361862062913 184.87192118228995,249.25912978788983 184.83645320197684,249.15823159385764 184.7300492610957,248.99427172457217 184.65911330049857,248.93121013619384 184.50837438425515,248.64112611268501 184.27783251233632,248.31320362418774 183.97635467979126,247.7582544453544 182.51330049263197,245.31138165764423 182.39802955664345,244.9582178392011 182.0522167487943,244.4410819548939 181.5290640394087,243.4950919910043 181.29852216748986,243.17975921912148 180.5093596059305,241.80489206835773 180.33201970445225,241.43909726872516 180.07487684729858,241.0859143054622 179.9064039409277,240.77057089833397 179.75566502462607,240.59397798223654 179.59605911330436,240.30386010093207 179.60492610838264,240.2660185512941 179.43645320201176,240.03896883236303 179.33004926110152,239.77407658152515 179.0906403941044,239.4461133861114 178.27487684731022,238.13424554624362 177.6719211822783,237.03679913336964 177.61871921186685,237.0494135557601 177.60098522168119,236.99895585288323 177.60098522168119,237.06202797593141 177.56551724139717,237.11248563422123 177.53891625619144,237.09987122299935 177.6719211822783,237.0115702819312 177.65418719215086,236.94849811436143 177.48571428572177,236.72143784997024 177.49458128080005,236.69620888711506 177.49458128080005,236.7340523280218 177.33497536947834,236.77189574885415 177.34384236452752,236.74666680386144 177.29950738919433,236.74666680386144 176.33300492612761,237.30170153547078 175.61477832513629,237.74320335578523 175.46403940889286,237.86934623176057 175.34876847293344,237.88196050709666 174.77241379313637,238.31084454346274 174.54187192118843,238.39914387836325 174.11625615766388,238.70188362638874 173.9034482759016,238.790182477911 173.54876847294508,239.0046220913864 173.37142857146682,239.14337679232267 172.99014778327546,239.5091833483457 172.87487684731605,239.64793706918863 172.96354679804062,239.8371462541836 172.83940886703203,239.97589933795825 172.53793103451608,240.15249378205772 172.27192118228413,240.7579571330789 172.09458128080587,240.8967084281976 171.7221674876928,241.96886843945686 171.66896551725222,242.28420655667287 171.53596059116535,242.511249139141 171.03940886701457,243.722130724811 170.9418719212117,244.024847914181 170.85320197045803,244.06268747260037 170.7024630542146,244.01223472354468 170.22364532022038,243.74735720628814 169.94876847291016,243.5455451053058 169.67389162562904,243.41941225268238 169.46108374386677,243.24282588484493 169.37241379311308,243.2175992252014 169.31034482759424,243.28066585757915 168.97339901482337,243.06623908047914 168.89359605911886,243.10407914676034 168.796059113316,243.07885243812052 168.66305418720003,242.97794551460538 168.61871921183774,242.87703844852513 168.33497536947834,242.6121567219161 167.75862068968127,242.10761738254223 167.03152709361166,241.64091532084421 166.58817733990145,241.224664963549 165.68374384238268,240.84625344298547 165.13399014779134,240.58136418581853 164.69064039411023,240.44261227813695 164.32709359607543,240.30386010093207 164.0965517241857,240.25340469693037 163.404926108371,239.90021587112278 161.99507389165228,239.39565737626253 161.76453201973345,239.25690316536202 160.90443349754787,239.28213122372108 160.3635467980639,239.25690316536202 159.80492610839428,239.29474524960096 158.79408866996528,239.206447021832 158.49261083744932,239.14337679232267 158.07586206897395,238.94155168364523 157.35763546801172,238.72711188081303 156.94088669953635,238.63881295135798 156.73694581282325,238.5378997555017 156.40886699510156,238.50005727029202 156.3556650246319,238.4369864170294 156.00985221675364,238.22254509942286 155.7083743842377,238.08378860972152 155.4246305419074,237.88196050709666 155.0965517241566,237.75581765339302 154.9369458128058,237.629674576885 154.6088669950841,237.4530738955582 154.13891625616816,237.06202797593141 153.97931034484645,236.99895585288323 153.3497536946088,236.5700639393399 152.76453201970435,236.2547005952074 152.3034482758958,235.8762627442993 151.9310344827827,235.76273099800164 151.43448275863193,235.39690525473998 150.56551724139717,234.90492974920926 150.06009852216812,234.55171447592147 149.33300492612761,234.2237273009814 149.2532019704522,234.12280786720657 148.7300492611248,234.00927333378058 148.4108374384523,233.87050865896163 147.93201970445807,233.59297850055736 147.29359605911304,233.41636783824652 147.2315270936233,233.5551333954063 146.92118226602906,233.3659075688047 146.43349753695657,233.18929634504457 146.22955665024347,233.17668124094052 146.00788177343202,233.25237183226272 145.91034482762916,233.35329249589267 145.71527093596524,233.30283218192199 145.44039408868412,233.51728827018815 145.18325123153045,233.76958872613613 144.69556650248705,234.0723480968736 144.20788177341456,234.4760252615597 143.6226600985392,234.84185572132264 143.5428571428638,234.84185572132264 143.47192118229577,234.9553889313538 142.975369458145,235.32121693597583 142.7270935960987,235.4852081919089 142.59408866995363,235.53566696413327 142.31921182267251,235.5482816516087 142.26600985223195,235.57351101990207 141.86699507391313,235.04369241436507 141.6807881773566,234.70309266406548 141.41477832512464,234.40033596696594 140.6610837438493,233.41636783824652 140.22660098521737,232.6846904421982 140.22660098521737,232.70992082204612 139.26896551725804,231.70069867764687 139.02955665026093,231.5240833362186 138.65714285717695,231.14562041960744 138.4354679803073,230.98161919959966 138.0719211823016,230.62838452364667 137.14975369459717,229.8966785658995 137.00788177340291,229.7326744779857 136.4847290640464,229.24065995466663 136.3605911330087,229.13973347962747 135.997044335003,229.22804415307473 135.9172413793276,229.15234929683356 135.89950738920015,228.58463531760935 135.81083743844647,228.47109198027465 135.56256157637108,228.3701644177272 135.46502463056822,228.2061568244244 134.2591133005335,227.73936392043834 133.59408866995363,227.63843532385363 133.51428571430733,227.61320315241755 133.49655172415078,227.52489048220014 133.31034482762334,227.4870421615051 133.2039408867131,227.6762835643167 133.21280788179138,227.65105140621017 133.03546798031311,227.58797097209754 133.0,227.68889963998663 133.1241379310377,227.77721210740856 133.31034482762334,227.80244422090618 133.35467980295653,227.764596047331 136.7330049261218,229.13973347962747 136.165517241403,228.55940348049626" stroke="#4dd2ff" stroke-linecap="round" stroke-linejoin="round" stroke-width="0.5"><title>2016-08-20 14.7km</title></polyline></svg>