<?xml version="1.0" encoding="utf-8" ?>
<svg baseProfile="full" height="200mm" version="1.1" viewBox="0,0,200,200" width="200mm" xmlns="http://www.w3.org/2000/svg" xmlns:ev="http://www.w3.org/2001/xml-events" xmlns:xlink="http://www.w3.org/1999/xlink"><defs /><rect fill="#1a1a1a" height="200" width="200" x="0" y="0" /><text alignment-baseline="middle" fill="#e1ed5e" style="dominant-baseline: central; font-size:9.0px; font-family:Arial;" text-anchor="middle" x="100.0" y="100.0">2023</text><line stroke="#e1ed5e" stroke-width="0.3" x1="100.0" x2="100.0" y1="15.0" y2="10.0" /><path d="M 100.0 14.0 a86.0,86.0 0 0,1 42.46469731375804,11.215312516191453" fill="none" id="id85" stroke="none" /><text fill="#e1ed5e" style="font-size:6.75px; font-family:Arial;" text-anchor="middle"><textPath startOffset="22.20632615414155" xlink:href="#id85">January</textPath></text><path d="M 102.88285421437855 79.19881850522331 l 3.2977140494158874 -23.794594994655924 a45.022024663034124,45.022024663034124 0 0,0 0.7667272658765285,0.11299566828489484 l -3.706810295721072 23.73430484221006" fill="#ff0000" stroke="none" /><path d="M 105.01212808612495 79.60689891045804 l 11.811991849656819 -48.060053478228696 a70.49032119300259,70.49032119300259 0 0,0 1.175815854649829,0.29974164198234704 l -12.637516592991673 47.84960884007748" fill="#32ff4c" stroke="none" /><path d="M 109.73455568895987 81.39251694778311 l 17.810300655126518 -34.04416988142626 a59.421508459994264,59.421508459994264 0 0,0 0.902230586439478,0.4819403330520483 l -18.393676288094305 33.73255082187246" fill="#d1ff1c" stroke="none" /><path d="M 110.36928655335952 81.73862282372117 l 15.536533694009124 -27.361429384584223 a52.46476914252939,52.46476914252939 0 0,0 0.7814833913445433,0.45268562152938774 l -16.005213817818998 27.089939605664785" fill="#ffa40f" stroke="none" /><line stroke="#e1ed5e" stroke-width="0.3" x1="143.23703022742887" x2="145.7803849466894" y1="26.81831364943548" y2="22.513508569990506" /><path d="M 143.74570117128098 25.957352633546492 a86.0,86.0 0 0,1 28.547481713284135,27.462654790039103" fill="none" id="id86" stroke="none" /><text fill="#e1ed5e" style="font-size:6.75px; font-family:Arial;" text-anchor="middle"><textPath startOffset="19.985693538727396" xlink:href="#id86">February</textPath></text><path d="M 110.99172775467656 82.1063720568725 l 22.213093412114272 -36.16108748810667 a63.438729566963,63.438729566963 0 0,0 0.9255434160548995,0.5795752022240619 l -22.832255980541436 35.773367944559666" fill="#8aff24" stroke="none" /><path d="M 111.60114157652 82.49532879139004 l 19.249677403116134 -29.0453548550206 a55.84512474906796,55.84512474906796 0 0,0 0.796711295957229,0.5379430234729128 l -19.746793393479905 28.70969991924902" fill="#ffe815" stroke="none" /><path d="M 111.90073688211348 82.69761687909136 l 35.70221064634041 -51.90714936272591 a84.0,84.0 0 0,0 1.1842754416653962,0.8296606289442576 l -36.590417227589455 51.28490389101772" fill="#4dd2ff" stroke="none" /><path d="M 115.19652480421416 85.50635884689758 l 17.858640426999994 -17.032626154069604 a45.67876398049899,45.67876398049899 0 0,0 0.5377753879989488,0.5736612886127003 l -18.149183136969405 16.72269544857885" fill="#ff0f01" stroke="none" /><path d="M 116.15771136456269 86.58626213691792 l 22.492674109633494 -18.67286941441922 a50.2334815027244,50.2334815027244 0 0,0 0.5465917272202071,0.6700568278386548 l -22.81076432893011 18.282928416972467" fill="#ff750a" stroke="none" /><path d="M 116.38621287248628 86.86637796730983 l 19.61904772927635 -15.724753457235401 a46.14308861485518,46.14308861485518 0 0,0 0.4914149275001656,0.6240470539579919 l -19.886816737370477 15.38471400932437" fill="#ff1a02" stroke="none" /><line stroke="#e1ed5e" stroke-width="0.3" x1="172.23445277983987" x2="176.4835382374775" y1="55.19839476539836" y2="52.563006222186495" /><path d="M 173.08426987136738 54.67131705675599 a86.0,86.0 0 0,1 12.851231095245387,41.99856678651699" fill="none" id="id87" stroke="none" /><text fill="#e1ed5e" style="font-size:6.75px; font-family:Arial;" text-anchor="middle"><textPath startOffset="22.20632615414155" xlink:href="#id87">March</textPath></text><path d="M 118.73160827565052 90.50648371742162 l 54.76860113977484 -27.75771300803785 a82.40106108402638,82.40106108402638 0 0,0 0.630328827864925,1.2707044537892511 l -55.23828998059317 26.81084896574965" fill="#4ae9ff" stroke="none" /><path d="M 118.89224826269711 90.83032412892265 l 42.40922354490618 -20.58404211311872 a68.14069400630913,68.14069400630913 0 0,0 0.5030788700768756,1.059612401489401 l -42.757260608824815 19.850987295988777" fill="#3cff2e" stroke="none" /><path d="M 119.196687751892 91.48605970444005 l 53.18368847029765 -23.587545632144074 a79.17969601376541,79.17969601376541 0 0,0 0.5418503766195499,1.250665376149464 l -53.58182955675988 22.66858111140801" fill="#43ffe3" stroke="none" /><path d="M 119.7369772167798 92.82701384747503 l 46.18180981056154 -16.783800205639935 a70.13710926297676,70.13710926297676 0 0,0 0.4026101163122675,1.1382330148761124 l -46.46387300768361 15.98636956433721" fill="#32ff45" stroke="none" /><line stroke="#e1ed5e" stroke-width="0.3" x1="184.98032266829074" x2="189.97916517819016" y1="98.17113171792111" y2="98.06355123074" /><path d="M 185.9800911702706 98.14961562048488 a86.0,86.0 0 0,1 -9.607161424134198,41.387399972396054" fill="none" id="id88" stroke="none" /><text fill="#e1ed5e" style="font-size:6.75px; font-family:Arial;" text-anchor="middle"><textPath startOffset="21.466115282336823" xlink:href="#id88">April</textPath></text><line stroke="#e1ed5e" stroke-width="0.3" x1="174.80103733775053" x2="179.2010983576182" y1="140.37084112569926" y2="142.7455964860345" /><path d="M 175.68104954172406 140.8457921977663 a86.0,86.0 0 0,1 -30.038265399797805,32.042727171017184" fill="none" id="id89" stroke="none" /><text fill="#e1ed5e" style="font-size:6.75px; font-family:Arial;" text-anchor="middle"><textPath startOffset="22.206326154141568" xlink:href="#id89">May</textPath></text><line stroke="#e1ed5e" stroke-width="0.3" x1="143.8653032363475" x2="146.44561519142675" y1="172.8068346515853" y2="177.08958963109032" /><path d="M 144.38136562736335 173.6633856474863 a86.0,86.0 0 0,1 -40.68145358897372,12.25698825130547" fill="none" id="id90" stroke="none" /><text fill="#e1ed5e" style="font-size:6.75px; font-family:Arial;" text-anchor="middle"><textPath startOffset="21.466115282336833" xlink:href="#id90">June</textPath></text><line stroke="#e1ed5e" stroke-width="0.3" x1="102.19456741930631" x2="102.32365962044197" y1="184.97166512339345" y2="189.96999836594603" /><path d="M 102.22038585953345 185.97133177190398 a86.0,86.0 0 0,1 -42.740103519485714,-10.115201625700543" fill="none" id="id91" stroke="none" /><text fill="#e1ed5e" style="font-size:6.75px; font-family:Arial;" text-anchor="middle"><textPath startOffset="22.20632615414155" xlink:href="#id91">July</textPath></text><line stroke="#e1ed5e" stroke-width="0.3" x1="58.666819895761336" x2="56.23545636021788" y1="174.27360380694188" y2="178.64263932499728" /><path d="M 58.180547188652646 175.14741091055294 a86.0,86.0 0 0,1 -31.652253787137756,-30.449443065178592" fill="none" id="id92" stroke="none" /><text fill="#e1ed5e" style="font-size:6.75px; font-family:Arial;" text-anchor="middle"><textPath startOffset="22.20632615414155" xlink:href="#id92">August</textPath></text><line stroke="#e1ed5e" stroke-width="0.3" x1="26.63291911575756" x2="22.317208475507996" y1="142.92168965132927" y2="145.44649492493687" /><path d="M 25.769776987707644 143.4266507060508 a86.0,86.0 0 0,1 -11.730757126820373,-40.83630448921669" fill="none" id="id93" stroke="none" /><text fill="#e1ed5e" style="font-size:6.75px; font-family:Arial;" text-anchor="middle"><textPath startOffset="21.46611528233685" xlink:href="#id93">September</textPath></text><line stroke="#e1ed5e" stroke-width="0.3" x1="15.007084014347285" x2="10.007500721073583" y1="101.09737516637583" y2="101.16192664675087" /><path d="M 14.007167355692545 101.11028546245083 a86.0,86.0 0 0,1 10.666146001902534,-42.60595125391555" fill="none" id="id94" stroke="none" /><text fill="#e1ed5e" style="font-size:6.75px; font-family:Arial;" text-anchor="middle"><textPath startOffset="22.20632615414155" xlink:href="#id94">October</textPath></text><line stroke="#e1ed5e" stroke-width="0.3" x1="26.266209847984243" x2="21.928928074336255" y1="57.711370442889674" y2="55.22380399835377" /><path d="M 25.398753493254645 57.213857153982495 a86.0,86.0 0 0,1 29.58750427330803,-30.492523968695096" fill="none" id="id95" stroke="none" /><text fill="#e1ed5e" style="font-size:6.75px; font-family:Arial;" text-anchor="middle"><textPath startOffset="21.46611528233685" xlink:href="#id95">November</textPath></text><line stroke="#e1ed5e" stroke-width="0.3" x1="56.762969772571076" x2="54.21961505331055" y1="26.818313649435495" y2="22.513508569990535" /><path d="M 56.25429882871897 25.957352633546506 a86.0,86.0 0 0,1 42.265352541879196,-11.944610805530505" fill="none" id="id96" stroke="none" /><text fill="#e1ed5e" style="font-size:6.75px; font-family:Arial;" text-anchor="middle"><textPath startOffset="22.20632615414155" xlink:href="#id96">December</textPath></text></svg>