<?xml version="1.0" encoding="utf-8" ?>
<svg baseProfile="full" height="200mm" version="1.1" viewBox="0,0,200,200" width="200mm" xmlns="http://www.w3.org/2000/svg" xmlns:ev="http://www.w3.org/2001/xml-events" xmlns:xlink="http://www.w3.org/1999/xlink"><defs /><rect fill="#1a1a1a" height="200" width="200" x="0" y="0" /><text alignment-baseline="middle" fill="#e1ed5e" style="dominant-baseline: central; font-size:9.0px; font-family:Arial;" text-anchor="middle" x="100.0" y="100.0">2023</text><line stroke="#e1ed5e" stroke-width="0.3" x1="100.0" x2="100.0" y1="15.0" y2="10.0" /><path d="M 100.0 14.0 a86.0,86.0 0 0,1 42.46469731375804,11.215312516191453" fill="none" id="id85" stroke="none" /><text fill="#e1ed5e" style="font-size:6.75px; font-family:Arial;" text-anchor="middle"><textPath startOffset="22.20632615414155" xlink:href="#id85">January</textPath></text><path d="M 102.88285421437855 79.19881850522331 l 0.5708619372705867 -4.119043795693647 a25.158413777183153,25.158413777183153 0 0,0 0.42844900809198877,0.06314224646753445 l -0.6416799257912312 4.108607065065144" fill="#ff1802" stroke="none" /><path d="M 105.01212808612495 79.60689891045804 l 2.044754775361386 -8.319598007222368 a29.56718933449831,29.56718933449831 0 0,0 0.4931963624019851,0.12572673425135739 l -2.187660026448396 8.283168276802142" fill="#ff5708" stroke="none" /><path d="M 109.73455568895987 81.39251694778311 l 3.0831122962762674 -5.893331101501152 a27.651085092176366,27.651085092176366 0 0,0 0.4198421643098859,0.22426514411942097 l -3.1840995071144644 5.839387230879977" fill="#ff3c05" stroke="none" /><path d="M 110.36928655335952 81.73862282372117 l 2.689504180813605 -4.736492719173984 a26.44681521784997,26.44681521784997 0 0,0 0.3939357245728167,0.22819299846418983 l -2.77063663785175 4.689495563319744" fill="#ff2a04" stroke="none" /><line stroke="#e1ed5e" stroke-width="0.3" x1="143.23703022742887" x2="145.7803849466894" y1="26.81831364943548" y2="22.513508569990506" /><path d="M 143.74570117128098 25.957352633546492 a86.0,86.0 0 0,1 28.547481713284135,27.462654790039103" fill="none" id="id86" stroke="none" /><text fill="#e1ed5e" style="font-size:6.75px; font-family:Arial;" text-anchor="middle"><textPath startOffset="19.985693538727396" xlink:href="#id86">February</textPath></text><path d="M 110.99172775467656 82.1063720568725 l 3.845272618545606 -6.259787279290687 a28.346499730681685,28.346499730681685 0 0,0 0.41356307689360317,0.2589731608104247 l -3.952454847811472 6.192669777157318" fill="#ff4606" stroke="none" /><path d="M 111.60114157652 82.49532879139004 l 3.332280473536855 -5.027994329643474 a27.031983101206595,27.031983101206595 0 0,0 0.38565024942872317,0.26039276991989274 l -3.41833541737212 4.969889647424911" fill="#ff3304" stroke="none" /><path d="M 111.90073688211348 82.69761687909136 l 6.180351852527198 -8.985562544044104 a31.90582794903554,31.90582794903554 0 0,0 0.4498248629290977,0.31513106289504883 l -6.334107855039947 8.87784663838512" fill="#ff780b" stroke="none" /><path d="M 115.19652480421416 85.50635884689758 l 3.0914803158817885 -2.948490323119463 a25.272100856605995,25.272100856605995 0 0,0 0.29752805591482184,0.3173821855061576 l -3.141775693767073 2.89483872073525" fill="#ff1902" stroke="none" /><path d="M 116.15771136456269 86.58626213691792 l 3.8936703802125257 -3.2324301769597477 a26.06056062888929,26.06056062888929 0 0,0 0.283565590525494,0.347617884811417 l -3.9487344628144285 3.16492812254023" fill="#ff2503" stroke="none" /><path d="M 116.38621287248628 86.86637796730983 l 3.396221572371498 -2.722086599136685 a25.35247934192008,25.35247934192008 0 0,0 0.2699989786498214,0.3428712840597034 l -3.4425746316152837 2.6632229211239435" fill="#ff1a02" stroke="none" /><line stroke="#e1ed5e" stroke-width="0.3" x1="172.23445277983987" x2="176.4835382374775" y1="55.19839476539836" y2="52.563006222186495" /><path d="M 173.08426987136738 54.67131705675599 a86.0,86.0 0 0,1 12.851231095245387,41.99856678651699" fill="none" id="id87" stroke="none" /><text fill="#e1ed5e" style="font-size:6.75px; font-family:Arial;" text-anchor="middle"><textPath startOffset="22.20632615414155" xlink:href="#id87">March</textPath></text><path d="M 118.73160827565052 90.50648371742162 l 9.480903826027562 -4.805092735307408 a31.629038223343073,31.629038223343073 0 0,0 0.2419470614520948,0.4877505120776126 l -9.562210900433065 4.641182634730845" fill="#ff740a" stroke="none" /><path d="M 118.89224826269711 90.83032412892265 l 7.341391990998952 -3.5632701870059478 a29.160449178268863,29.160449178268863 0 0,0 0.21528993852307052,0.4534555163091557 l -7.401640123363778 3.4363722550562517" fill="#ff5207" stroke="none" /><path d="M 119.196687751892 91.48605970444005 l 9.206542161145578 -4.083201815939494 a31.071392934179595,31.071392934179595 0 0,0 0.21263084870333784,0.4907813150072932 l -9.275463719691597 3.9241213563455974" fill="#ff6d0a" stroke="none" /><path d="M 119.7369772167798 92.82701384747503 l 7.99445828839787 -2.905416466249151 a29.50604538944421,29.50604538944421 0 0,0 0.16937442234206776,0.47884430016603013 l -8.043285791549748 2.7673745396565064" fill="#ff5708" stroke="none" /><path d="M 120.67395015179393 96.31383870115 l 10.290199807600425 -1.8347406281677097 a31.45248703672906,31.45248703672906 0 0,0 0.09044557822416117,0.5338149225096246 l -10.32025724734481 1.6573399173422472" fill="#ff720a" stroke="none" /><line stroke="#e1ed5e" stroke-width="0.3" x1="184.98032266829074" x2="189.97916517819016" y1="98.17113171792111" y2="98.06355123074" /><path d="M 185.9800911702706 98.14961562048488 a86.0,86.0 0 0,1 -9.607161424134198,41.387399972396054" fill="none" id="id88" stroke="none" /><text fill="#e1ed5e" style="font-size:6.75px; font-family:Arial;" text-anchor="middle"><textPath startOffset="21.466115282336823" xlink:href="#id88">April</textPath></text><path d="M 120.99980553446 99.90962569577887 l 62.99941660337998 -0.27112291266339017 a84.0,84.0 0 0,0 -0.006222810841987947,1.4459620871852612 l -62.994749495248485 -0.8133486527255557" fill="#4dd2ff" stroke="none" /><line stroke="#e1ed5e" stroke-width="0.3" x1="174.80103733775053" x2="179.2010983576182" y1="140.37084112569926" y2="142.7455964860345" /><path d="M 175.68104954172406 140.8457921977663 a86.0,86.0 0 0,1 -30.038265399797805,32.042727171017184" fill="none" id="id89" stroke="none" /><text fill="#e1ed5e" style="font-size:6.75px; font-family:Arial;" text-anchor="middle"><textPath startOffset="22.206326154141568" xlink:href="#id89">May</textPath></text><path d="M 115.80600337817218 113.82643327865902 l 4.2936080753223225 3.7558694729964524 a26.704526781658554,26.704526781658554 0 0,0 -0.30562841363336074,0.34337676266164846 l -4.228320812040623 -3.829220405398967" fill="#ff2e04" stroke="none" /><path d="M 114.0293411484842 115.62618273729858 l 22.91325447780987 25.52127699989439 a55.29800009432346,55.29800009432346 0 0,0 -0.7137593235494576,0.6298096156588553 l -22.470552801353822 -25.911909757325535" fill="#67ff28" stroke="none" /><line stroke="#e1ed5e" stroke-width="0.3" x1="143.8653032363475" x2="146.44561519142675" y1="172.8068346515853" y2="177.08958963109032" /><path d="M 144.38136562736335 173.6633856474863 a86.0,86.0 0 0,1 -40.68145358897372,12.25698825130547" fill="none" id="id90" stroke="none" /><text fill="#e1ed5e" style="font-size:6.75px; font-family:Arial;" text-anchor="middle"><textPath startOffset="21.466115282336833" xlink:href="#id90">June</textPath></text><path d="M 110.5260780823613 118.17145234162733 l 2.3652185162068964 4.083140482950572 a25.718717498740286,25.718717498740286 0 0,0 -0.3849862170921116,0.218605221587973 l -2.2945835321935855 -4.123248870333174" fill="#ff2003" stroke="none" /><path d="M 101.62511606390274 120.93702456842531 l 0.42461995673694725 5.470549866509268 a26.487004460507013,26.487004460507013 0 0,0 -0.4548666744701622,0.031370269035111836 l -0.3303905214878547 -5.477048480060665" fill="#ff2b04" stroke="none" /><line stroke="#e1ed5e" stroke-width="0.3" x1="102.19456741930631" x2="102.32365962044197" y1="184.97166512339345" y2="189.96999836594603" /><path d="M 102.22038585953345 185.97133177190398 a86.0,86.0 0 0,1 -42.740103519485714,-10.115201625700543" fill="none" id="id91" stroke="none" /><text fill="#e1ed5e" style="font-size:6.75px; font-family:Arial;" text-anchor="middle"><textPath startOffset="22.20632615414155" xlink:href="#id91">July</textPath></text><path d="M 100.18074693466247 120.99922214144158 l 0.06429594534818395 7.469918323549322 a28.47019502617476,28.47019502617476 0 0,0 -0.49008576002127363,0.0 l 0.0642959453481788 -7.469918323549322" fill="#ff4806" stroke="none" /><path d="M 93.08242187328487 119.8279376855182 l -0.8491298003130462 2.433870996339371 a23.57774115159022,23.57774115159022 0 0,0 -0.38204971992484266,-0.13698943688709048 l 0.8908990808676155 -2.418894018412323" fill="#ff0000" stroke="none" /><line stroke="#e1ed5e" stroke-width="0.3" x1="58.666819895761336" x2="56.23545636021788" y1="174.27360380694188" y2="178.64263932499728" /><path d="M 58.180547188652646 175.14741091055294 a86.0,86.0 0 0,1 -31.652253787137756,-30.449443065178592" fill="none" id="id92" stroke="none" /><text fill="#e1ed5e" style="font-size:6.75px; font-family:Arial;" text-anchor="middle"><textPath startOffset="22.20632615414155" xlink:href="#id92">August</textPath></text><path d="M 88.54995079064634 117.60387380957326 l -2.0720812166166644 3.185720479760786 a24.800307295920014,24.800307295920014 0 0,0 -0.3558552412992677,-0.23584144973993526 l 2.1266111566558936 -3.1495810089295326" fill="#ff1202" stroke="none" /><path d="M 82.85270091963577 112.12312394758628 l -8.036355953579578 5.681695925146174 a30.84198585644465,30.84198585644465 0 0,0 -0.3027494755126571,-0.4361331995988483 l 8.132966336254368 -5.542521463360313" fill="#ff6909" stroke="none" /><path d="M 82.44556493220864 111.52570212397912 l -3.735604558297664 2.452683052781062 a25.468824853736574,25.468824853736574 0 0,0 -0.23746057342206894,-0.36854408325877736 l 3.7772699950967787 -2.388017369600836" fill="#ff1c02" stroke="none" /><line stroke="#e1ed5e" stroke-width="0.3" x1="26.63291911575756" x2="22.317208475507996" y1="142.92168965132927" y2="145.44649492493687" /><path d="M 25.769776987707644 143.4266507060508 a86.0,86.0 0 0,1 -11.730757126820373,-40.83630448921669" fill="none" id="id93" stroke="none" /><text fill="#e1ed5e" style="font-size:6.75px; font-family:Arial;" text-anchor="middle"><textPath startOffset="21.46611528233685" xlink:href="#id93">September</textPath></text><path d="M 81.69416730710424 110.29060199501025 l -3.709158864844603 2.085099227919464 a25.255055613611372,25.255055613611372 0 0,0 -0.20976559426798705,-0.3807854841319967 l 3.744500868564107 -2.020943225389644" fill="#ff1902" stroke="none" /><line stroke="#e1ed5e" stroke-width="0.3" x1="15.007084014347285" x2="10.007500721073583" y1="101.09737516637583" y2="101.16192664675087" /><path d="M 14.007167355692545 101.11028546245083 a86.0,86.0 0 0,1 10.666146001902534,-42.60595125391555" fill="none" id="id94" stroke="none" /><text fill="#e1ed5e" style="font-size:6.75px; font-family:Arial;" text-anchor="middle"><textPath startOffset="22.20632615414155" xlink:href="#id94">October</textPath></text><line stroke="#e1ed5e" stroke-width="0.3" x1="26.266209847984243" x2="21.928928074336255" y1="57.711370442889674" y2="55.22380399835377" /><path d="M 25.398753493254645 57.213857153982495 a86.0,86.0 0 0,1 29.58750427330803,-30.492523968695096" fill="none" id="id95" stroke="none" /><text fill="#e1ed5e" style="font-size:6.75px; font-family:Arial;" text-anchor="middle"><textPath startOffset="21.46611528233685" xlink:href="#id95">November</textPath></text><line stroke="#e1ed5e" stroke-width="0.3" x1="56.762969772571076" x2="54.21961505331055" y1="26.818313649435495" y2="22.513508569990535" /><path d="M 56.25429882871897 25.957352633546506 a86.0,86.0 0 0,1 42.265352541879196,-11.944610805530505" fill="none" id="id96" stroke="none" /><text fill="#e1ed5e" style="font-size:6.75px; font-family:Arial;" text-anchor="middle"><textPath startOffset="22.20632615414155" xlink:href="#id96">December</textPath></text></svg>