<?xml version="1.0" encoding="utf-8" ?>
<svg baseProfile="full" height="200mm" version="1.1" viewBox="0,0,200,200" width="200mm" xmlns="http://www.w3.org/2000/svg" xmlns:ev="http://www.w3.org/2001/xml-events" xmlns:xlink="http://www.w3.org/1999/xlink"><defs /><rect fill="#1a1a1a" height="200" width="200" x="0" y="0" /><text alignment-baseline="middle" fill="#e1ed5e" style="dominant-baseline: central; font-size:9.0px; font-family:Arial;" text-anchor="middle" x="100.0" y="100.0">2024</text><line stroke="#e1ed5e" stroke-width="0.3" x1="100.0" x2="100.0" y1="15.0" y2="10.0" /><path d="M 100.0 14.0 a86.0,86.0 0 0,1 42.35913384403234,11.155469271406648" fill="none" id="id97" stroke="none" /><text fill="#e1ed5e" style="font-size:6.75px; font-family:Arial;" text-anchor="middle"><textPath startOffset="22.145653131862478" xlink:href="#id97">January</textPath></text><path d="M 101.80034050326958 79.07731436759882 l 0.46247638661342433 -5.37467664141787 a26.394537367372468,26.394537367372468 0 0,0 0.45109576120955097,0.04271923758903907 l -0.5546717112079882 5.365945648323647" fill="#ff3505" stroke="none" /><path d="M 104.29559338865022 79.4440306129975 l 1.0323515223522528 -4.940175749913451 a26.046888755038687,26.046888755038687 0 0,0 0.4368901499840513,0.09521817475607416 l -1.117004088955438 4.921726117023658" fill="#ff3004" stroke="none" /><path d="M 106.04205211174951 79.88797359093562 l 1.007801862683511 -3.3546446310814892 a24.502756799332808,24.502756799332808 0 0,0 0.4017978011580289,0.12447798588079582 l -1.06524029671317 3.3368500573940465" fill="#ff1902" stroke="none" /><path d="M 107.74402155503746 80.48000691201159 l 2.424442424522351 -6.1111786728069335 a27.57452856414771,27.57452856414771 0 0,0 0.4384947999416151,0.17833201775378724 l -2.5289916856544057 6.068659398473853" fill="#ff4606" stroke="none" /><path d="M 109.3889696526874 81.21577127319529 l 2.08808109775747 -4.177560945589704 a25.67034239911041,25.67034239911041 0 0,0 0.39247848350695685,0.20040231019856472 l -2.1594868029780057 4.141100683718306" fill="#ff2a04" stroke="none" /><line stroke="#e1ed5e" stroke-width="0.3" x1="143.13028292997686" x2="145.6673583964461" y1="26.7553504044142" y2="22.446841604673864" /><path d="M 143.63769802327073 25.89364864446614 a86.0,86.0 0 0,1 29.32050498858742,28.57503671076993" fill="none" id="id98" stroke="none" /><text fill="#e1ed5e" style="font-size:6.75px; font-family:Arial;" text-anchor="middle"><textPath startOffset="20.669276256404974" xlink:href="#id98">February</textPath></text><path d="M 111.5731344415666 82.4767994020092 l 4.158349515560811 -6.296271168855979 a28.545521938562757,28.545521938562757 0 0,0 0.40657483666821964,0.27356169496882954 l -4.265820640326032 6.2239597998300304" fill="#ff5307" stroke="none" /><path d="M 112.7482090630111 83.31218511350987 l 4.403368325290637 -5.764150487827639 a28.25362553861836,28.25362553861836 0 0,0 0.38289051696623766,0.2977379818855338 l -4.5016687868921 5.687711454321314" fill="#ff4f07" stroke="none" /><path d="M 115.41159269507618 85.73525988315684 l 7.460159138294417 -6.905011924696237 a31.165292128063754,31.165292128063754 0 0,0 0.3600367392477525,0.3957434455868042 l -7.577593578384047 6.77593090355176" fill="#ff780b" stroke="none" /><path d="M 117.62189284568427 88.57770195909679 l 6.865214465257454 -4.449949073211816 a29.181272297641662,29.181272297641662 0 0,0 0.26885999644958,0.4226925708771755 l -6.940592153332924 4.331442827655969" fill="#ff5c08" stroke="none" /><line stroke="#e1ed5e" stroke-width="0.3" x1="172.87174338648825" x2="177.1583165268699" y1="56.24261187166439" y2="53.66864786411523" /><path d="M 173.72905801456457 55.72781907015455 a86.0,86.0 0 0,1 12.242430191666344,42.057860355516425" fill="none" id="id99" stroke="none" /><text fill="#e1ed5e" style="font-size:6.75px; font-family:Arial;" text-anchor="middle"><textPath startOffset="22.145653131862474" xlink:href="#id99">March</textPath></text><path d="M 118.18653347947321 89.5 l 6.235942655864128 -3.6003231710142254 a28.20064634202845,28.20064634202845 0 0,0 0.23845208929410638,0.4213219937447856 l -6.296828110179611 3.4927444071703215" fill="#ff4e07" stroke="none" /><path d="M 118.36410011445183 89.81374322990088 l 55.092300343355504 -30.558770310297362 a84.0,84.0 0 0,0 0.6886186015386349,1.2669806661015868 l -55.60876429450948 29.60853481072117" fill="#4dd2ff" stroke="none" /><path d="M 119.58574465831526 92.42381321644754 l 3.6594298248214874 -1.4155460697471909 a24.923671408052634,24.923671408052634 0 0,0 0.1509298214188396,0.4003592828549568 l -3.6831903300547673 1.3525185066980763" fill="#ff2003" stroke="none" /><path d="M 120.16314734710363 94.1308016681162 l 1.7041470246591803 -0.49605236237343414 a22.774876059861928,22.774876059861928 0 0,0 0.1060457963784667,0.3763191203268121 l -1.712411313112229 0.4667253181436089" fill="#ff0000" stroke="none" /><path d="M 120.77682067341334 96.94652285012252 l 29.077970600300784 -4.273460323332566 a50.390318769401844,50.390318769401844 0 0,0 0.11843040684765599,0.8569034279084796 l -29.147045523703653 3.7736685872240012" fill="#98ff23" stroke="none" /><path d="M 120.96210409425399 98.7389718711861 l 1.8636003028334607 -0.11210956649067015 a22.866969374044388,22.866969374044388 0 0,0 0.020208314548928342,0.39203590355459167 l -1.8652502068389616 0.08010186955934784" fill="#ff0100" stroke="none" /><line stroke="#e1ed5e" stroke-width="0.3" x1="184.99686870605535" x2="189.99668451229388" y1="99.2704041080226" y2="99.22748670261217" /><path d="M 185.99683186730306 99.26182062694052 a86.0,86.0 0 0,1 -10.086455211305974,41.156179273409016" fill="none" id="id100" stroke="none" /><text fill="#e1ed5e" style="font-size:6.75px; font-family:Arial;" text-anchor="middle"><textPath startOffset="21.40746469413373" xlink:href="#id100">April</textPath></text><line stroke="#e1ed5e" stroke-width="0.3" x1="174.33088141563837" x2="178.70328620479359" y1="141.23008692659167" y2="143.65538615756765" /><path d="M 175.20536237346943 141.71514677278685 a86.0,86.0 0 0,1 -30.301960400862466,31.631185727798858" fill="none" id="id101" stroke="none" /><text fill="#e1ed5e" style="font-size:6.75px; font-family:Arial;" text-anchor="middle"><textPath startOffset="22.145653131862474" xlink:href="#id101">May</textPath></text><line stroke="#e1ed5e" stroke-width="0.3" x1="143.1302829299769" x2="145.66735839644613" y1="173.24464959558577" y2="177.55315839532614" /><path d="M 143.63769802327073 174.10635135553383 a86.0,86.0 0 0,1 -40.68552437913181,11.842963189579606" fill="none" id="id102" stroke="none" /><text fill="#e1ed5e" style="font-size:6.75px; font-family:Arial;" text-anchor="middle"><textPath startOffset="21.407464694133747" xlink:href="#id102">June</textPath></text><line stroke="#e1ed5e" stroke-width="0.3" x1="101.45913802915013" x2="101.54496967792366" y1="184.9874750549273" y2="189.98673829345242" /><path d="M 101.47630435890484 185.9873277026323 a86.0,86.0 0 0,1 -42.54439059252881,-10.42667462771756" fill="none" id="id103" stroke="none" /><text fill="#e1ed5e" style="font-size:6.75px; font-family:Arial;" text-anchor="middle"><textPath startOffset="22.145653131862474" xlink:href="#id103">July</textPath></text><line stroke="#e1ed5e" stroke-width="0.3" x1="58.13341422392154" x2="55.67067388415222" y1="173.97424548756322" y2="178.32567169271397" /><path d="M 57.64086615596768 174.84453072859336 a86.0,86.0 0 0,1 -31.369924170532247,-30.572349798747897" fill="none" id="id104" stroke="none" /><text fill="#e1ed5e" style="font-size:6.75px; font-family:Arial;" text-anchor="middle"><textPath startOffset="22.145653131862474" xlink:href="#id104">August</textPath></text><line stroke="#e1ed5e" stroke-width="0.3" x1="26.387840678322732" x2="22.057713659400548" y1="142.50000000000003" y2="145.00000000000006" /><path d="M 25.521815274538298 143.00000000000003 a86.0,86.0 0 0,1 -11.493303480769221,-40.785679425670985" fill="none" id="id105" stroke="none" /><text fill="#e1ed5e" style="font-size:6.75px; font-family:Arial;" text-anchor="middle"><textPath startOffset="21.40746469413373" xlink:href="#id105">September</textPath></text><line stroke="#e1ed5e" stroke-width="0.3" x1="15.003131293944662" x2="10.003315487706104" y1="100.72959589197737" y2="100.7725132973878" /><path d="M 14.003168132696942 100.73817937305945 a86.0,86.0 0 0,1 10.791469493833604,-42.45332614584628" fill="none" id="id106" stroke="none" /><text fill="#e1ed5e" style="font-size:6.75px; font-family:Arial;" text-anchor="middle"><textPath startOffset="22.145653131862435" xlink:href="#id106">October</textPath></text><line stroke="#e1ed5e" stroke-width="0.3" x1="26.387840678322718" x2="22.05771365940052" y1="57.49999999999999" y2="54.99999999999999" /><path d="M 25.521815274538284 56.99999999999999 a86.0,86.0 0 0,1 29.574782752854787,-30.34633250058573" fill="none" id="id107" stroke="none" /><text fill="#e1ed5e" style="font-size:6.75px; font-family:Arial;" text-anchor="middle"><textPath startOffset="21.40746469413373" xlink:href="#id107">November</textPath></text><line stroke="#e1ed5e" stroke-width="0.3" x1="56.869717070023135" x2="54.33264160355391" y1="26.7553504044142" y2="22.446841604673864" /><path d="M 56.362301976729285 25.89364864446614 a86.0,86.0 0 0,1 42.16139366436587,-11.88097634709845" fill="none" id="id108" stroke="none" /><text fill="#e1ed5e" style="font-size:6.75px; font-family:Arial;" text-anchor="middle"><textPath startOffset="22.145653131862474" xlink:href="#id108">December</textPath></text></svg>