<?xml version="1.0" encoding="utf-8" ?>
<svg baseProfile="full" height="200mm" version="1.1" viewBox="0,0,200,200" width="200mm" xmlns="http://www.w3.org/2000/svg" xmlns:ev="http://www.w3.org/2001/xml-events" xmlns:xlink="http://www.w3.org/1999/xlink"><defs /><rect fill="#1a1a1a" height="200" width="200" x="0" y="0" /><text alignment-baseline="middle" fill="#e1ed5e" style="dominant-baseline: central; font-size:9.0px; font-family:Arial;" text-anchor="middle" x="100.0" y="100.0">2023</text><line stroke="#e1ed5e" stroke-width="0.3" x1="100.0" x2="100.0" y1="15.0" y2="10.0" /><path d="M 100.0 14.0 a86.0,86.0 0 0,1 42.46469731375804,11.215312516191453" fill="none" id="id85" stroke="none" /><text fill="#e1ed5e" style="font-size:6.75px; font-family:Arial;" text-anchor="middle"><textPath startOffset="22.20632615414155" xlink:href="#id85">January</textPath></text><path d="M 102.88285421437855 79.19881850522331 l 0.5398791466593362 -3.895488040600354 a24.932721267450567,24.932721267450567 0 0,0 0.4246054536936421,0.0625758064605601 l -0.6068535807816342 3.8856177499788247" fill="#ff1602" stroke="none" /><path d="M 105.01212808612495 79.60689891045804 l 1.9337783642184803 -7.8680626250247485 a29.102216254410322,29.102216254410322 0 0,0 0.48544036540410096,0.12374955792211975 l -2.0689276183076064 7.833610070933761" fill="#ff5307" stroke="none" /><path d="M 109.73455568895987 81.39251694778311 l 2.9157803785743828 -5.573478206082003 a27.290106082551425,27.290106082551425 0 0,0 0.414361214532828,0.22133741056582784 l -3.011286639635522 5.522462069014421" fill="#ff3905" stroke="none" /><path d="M 110.36928655335952 81.73862282372117 l 2.543534832636984 -4.479425725267327 a26.151196392395107,26.151196392395107 0 0,0 0.3895323657848623,0.22564228883706325 l -2.6202639308871745 4.434979279040214" fill="#ff2803" stroke="none" /><line stroke="#e1ed5e" stroke-width="0.3" x1="143.23703022742887" x2="145.7803849466894" y1="26.81831364943548" y2="22.513508569990506" /><path d="M 143.74570117128098 25.957352633546492 a86.0,86.0 0 0,1 28.547481713284135,27.462654790039103" fill="none" id="id86" stroke="none" /><text fill="#e1ed5e" style="font-size:6.75px; font-family:Arial;" text-anchor="middle"><textPath startOffset="19.985693538727396" xlink:href="#id86">February</textPath></text><path d="M 110.99172775467656 82.1063720568725 l 3.6365754387105045 -5.920045450517639 a27.947777994267454,27.947777994267454 0 0,0 0.4077459005331177,0.2553304455071575 l -3.7379404916158854 5.856570663687537" fill="#ff4206" stroke="none" /><path d="M 111.60114157652 82.49532879139004 l 3.151425276458592 -4.755106464225923 a26.704605048487167,26.704605048487167 0 0,0 0.3809797290597199,0.257239213717988 l -3.2328096999248537 4.700155338209265" fill="#ff3004" stroke="none" /><path d="M 111.90073688211348 82.69761687909136 l 5.844921278426862 -8.49788280109699 a31.313928293923084,31.313928293923084 0 0,0 0.4414799554829084,0.3092849219410906 l -5.9903323734934215 8.396013036391963" fill="#ff720a" stroke="none" /><path d="M 115.19652480421416 85.50635884689758 l 2.9236942347783157 -2.788464838258299 a25.04023812821458,25.04023812821458 0 0,0 0.29479833956837204,0.3144703144317332 l -2.9712598963171506 2.737725106948511" fill="#ff1802" stroke="none" /><path d="M 116.15771136456269 86.58626213691792 l 3.6823464746879377 -3.056994225112847 a25.785905269854386,25.785905269854386 0 0,0 0.2805770589207906,0.3439542984320052 l -3.734422025685137 2.993155757072741" fill="#ff2303" stroke="none" /><path d="M 116.38621287248628 86.86637796730983 l 3.211896055155725 -2.574348882500714 a25.116254175577303,25.116254175577303 0 0,0 0.2674832265301274,0.3396765343463197 l -3.2557333622798166 2.518679954201356" fill="#ff1902" stroke="none" /><line stroke="#e1ed5e" stroke-width="0.3" x1="172.23445277983987" x2="176.4835382374775" y1="55.19839476539836" y2="52.563006222186495" /><path d="M 173.08426987136738 54.67131705675599 a86.0,86.0 0 0,1 12.851231095245387,41.99856678651699" fill="none" id="id87" stroke="none" /><text fill="#e1ed5e" style="font-size:6.75px; font-family:Arial;" text-anchor="middle"><textPath startOffset="22.20632615414155" xlink:href="#id87">March</textPath></text><path d="M 118.73160827565052 90.50648371742162 l 8.966340078001773 -4.544302564574577 a31.052160971292686,31.052160971292686 0 0,0 0.23753422553319728,0.47885450414001296 l -9.043234316488379 4.389288471935615" fill="#ff6e0a" stroke="none" /><path d="M 118.89224826269711 90.83032412892265 l 6.942947470525666 -3.369878323076182 a28.717551392172098,28.717551392172098 0 0,0 0.21202004934688337,0.44656829577839796 l -6.999925713714306 3.249867611657244" fill="#ff4d07" stroke="none" /><path d="M 119.196687751892 91.48605970444005 l 8.70686903633323 -3.8615913377709923 a30.524781156320934,30.524781156320934 0 0,0 0.2088902205801141,0.4821474295646858 l -8.772049966756027 3.711144763619704" fill="#ff6709" stroke="none" /><path d="M 119.7369772167798 92.82701384747503 l 7.560569442376592 -2.7477287590555846 a29.044390817603272,29.044390817603272 0 0,0 0.16672437299133006,0.47135225379201123 l -7.606746896177732 2.6171788788369588" fill="#ff5207" stroke="none" /><path d="M 120.67395015179393 96.31383870115 l 9.731712570719377 -1.735162462245028 a30.885191871151605,30.885191871151605 0 0,0 0.08881424969950406,0.5241867292128853 l -9.760138681939104 1.5673899447163047" fill="#ff6c09" stroke="none" /><line stroke="#e1ed5e" stroke-width="0.3" x1="184.98032266829074" x2="189.97916517819016" y1="98.17113171792111" y2="98.06355123074" /><path d="M 185.9800911702706 98.14961562048488 a86.0,86.0 0 0,1 -9.607161424134198,41.387399972396054" fill="none" id="id88" stroke="none" /><text fill="#e1ed5e" style="font-size:6.75px; font-family:Arial;" text-anchor="middle"><textPath startOffset="21.466115282336823" xlink:href="#id88">April</textPath></text><path d="M 120.99980553446 99.90962569577887 l 59.580205046578875 -0.2564080685223969 a80.58075678010465,80.58075678010465 0 0,0 -0.005969509606509869,1.3871038007229524 l -59.575791239682864 -0.7692052104042402" fill="#49f2ff" stroke="none" /><line stroke="#e1ed5e" stroke-width="0.3" x1="174.80103733775053" x2="179.2010983576182" y1="140.37084112569926" y2="142.7455964860345" /><path d="M 175.68104954172406 140.8457921977663 a86.0,86.0 0 0,1 -30.038265399797805,32.042727171017184" fill="none" id="id89" stroke="none" /><text fill="#e1ed5e" style="font-size:6.75px; font-family:Arial;" text-anchor="middle"><textPath startOffset="22.206326154141568" xlink:href="#id89">May</textPath></text><path d="M 115.80600337817218 113.82643327865902 l 4.0605780705535315 3.552024532832086 a26.394920995612562,26.394920995612562 0 0,0 -0.3020850321679405,0.33939573602211986 l -3.9988341887372525 -3.6213944385950723" fill="#ff2c04" stroke="none" /><path d="M 114.0293411484842 115.62618273729858 l 21.66966733465133 24.136142819815664 a53.436520661331635,53.436520661331635 0 0,0 -0.6897322647294792,0.6086085298284513 l -21.25099271701526 -24.505574491416404" fill="#7aff26" stroke="none" /><line stroke="#e1ed5e" stroke-width="0.3" x1="143.8653032363475" x2="146.44561519142675" y1="172.8068346515853" y2="177.08958963109032" /><path d="M 144.38136562736335 173.6633856474863 a86.0,86.0 0 0,1 -40.68145358897372,12.25698825130547" fill="none" id="id90" stroke="none" /><text fill="#e1ed5e" style="font-size:6.75px; font-family:Arial;" text-anchor="middle"><textPath startOffset="21.466115282336833" xlink:href="#id90">June</textPath></text><path d="M 110.5260780823613 118.17145234162733 l 2.236849351522588 3.861533333550428 a25.46261523184871,25.46261523184871 0 0,0 -0.38115259502584287,0.21642839092735558 l -2.170047989575546 -3.8994648902724123" fill="#ff1e03" stroke="none" /><path d="M 101.62511606390274 120.93702456842531 l 0.4015742597828987 5.173642873808297 a26.18920441607647,26.18920441607647 0 0,0 -0.4497524941909554,0.031017565220439868 l -0.31245900481301286 -5.179788783545021" fill="#ff2903" stroke="none" /><line stroke="#e1ed5e" stroke-width="0.3" x1="102.19456741930631" x2="102.32365962044197" y1="184.97166512339345" y2="189.96999836594603" /><path d="M 102.22038585953345 185.97133177190398 a86.0,86.0 0 0,1 -42.740103519485714,-10.115201625700543" fill="none" id="id91" stroke="none" /><text fill="#e1ed5e" style="font-size:6.75px; font-family:Arial;" text-anchor="middle"><textPath startOffset="22.20632615414155" xlink:href="#id91">July</textPath></text><path d="M 100.18074693466247 120.99922214144158 l 0.06080636637677856 7.0644982032164965 a28.064759888166126,28.064759888166126 0 0,0 -0.4831066020784631,0.0 l 0.060806366376773696 -7.0644982032164965" fill="#ff4406" stroke="none" /><path d="M 93.08242187328487 119.8279376855182 l -0.8030443826538162 2.3017758074134447 a23.437837596745457,23.437837596745457 0 0,0 -0.37978274644331694,-0.13617658085166853 l 0.8425466897268598 -2.2876116855218185" fill="#ff0000" stroke="none" /><line stroke="#e1ed5e" stroke-width="0.3" x1="58.666819895761336" x2="56.23545636021788" y1="174.27360380694188" y2="178.64263932499728" /><path d="M 58.180547188652646 175.14741091055294 a86.0,86.0 0 0,1 -31.652253787137756,-30.449443065178592" fill="none" id="id92" stroke="none" /><text fill="#e1ed5e" style="font-size:6.75px; font-family:Arial;" text-anchor="middle"><textPath startOffset="22.20632615414155" xlink:href="#id92">August</textPath></text><path d="M 88.54995079064634 117.60387380957326 l -1.9596216983469967 3.012819636095646 a24.59405055060107,24.59405055060107 0 0,0 -0.3528956995887846,-0.233880026873104 l 2.0111920966757433 -2.9786415881312234" fill="#ff1101" stroke="none" /><path d="M 82.85270091963577 112.12312394758628 l -7.60019316616779 5.373329254200727 a30.30782484993744,30.30782484993744 0 0,0 -0.29750607240262095,-0.42857968634735794 l 7.691560145732545 -5.241708305666357" fill="#ff6409" stroke="none" /><path d="M 82.44556493220864 111.52570212397912 l -3.532859470072752 2.3195668639116356 a25.226285185767708,25.226285185767708 0 0,0 -0.2351992359255713,-0.3650344372464934 l 3.572263569375369 -2.258410826743694" fill="#ff1b02" stroke="none" /><line stroke="#e1ed5e" stroke-width="0.3" x1="26.63291911575756" x2="22.317208475507996" y1="142.92168965132927" y2="145.44649492493687" /><path d="M 25.769776987707644 143.4266507060508 a86.0,86.0 0 0,1 -11.730757126820373,-40.83630448921669" fill="none" id="id93" stroke="none" /><text fill="#e1ed5e" style="font-size:6.75px; font-family:Arial;" text-anchor="middle"><textPath startOffset="21.46611528233685" xlink:href="#id93">September</textPath></text><path d="M 81.69416730710424 110.29060199501025 l -3.507849082302785 1.971933173984978 a25.024117993657114,25.024117993657114 0 0,0 -0.20784745289345646,-0.3773035003753987 l 3.5412729446477575 -1.9112591552117566" fill="#ff1802" stroke="none" /><path d="M 79.67330655649465 105.27499134158121 l -5.442111683459497 1.4122853817790566 a26.62237757312982,26.62237757312982 0 0,0 -0.11129254940408459,-0.4445584125689454 l 5.46561554715864 -1.3183991298127193" fill="#ff2f04" stroke="none" /><path d="M 79.23777060512086 103.15116336523772 l -11.400512871825756 1.7302996621104205 a32.53107239858306,32.53107239858306 0 0,0 -0.07926110432005834,-0.5543519790079219 l 11.428608027162412 -1.533802211122098" fill="#ff820c" stroke="none" /><line stroke="#e1ed5e" stroke-width="0.3" x1="15.007084014347285" x2="10.007500721073583" y1="101.09737516637583" y2="101.16192664675087" /><path d="M 14.007167355692545 101.11028546245083 a86.0,86.0 0 0,1 10.666146001902534,-42.60595125391555" fill="none" id="id94" stroke="none" /><text fill="#e1ed5e" style="font-size:6.75px; font-family:Arial;" text-anchor="middle"><textPath startOffset="22.20632615414155" xlink:href="#id94">October</textPath></text><path d="M 79.00175016825051 100.2711162175752 l -8.76137628752148 0.11312138958525784 a29.762106533267293,29.762106533267293 0 0,0 -0.002204809038281143,-0.5123199724032664 l 8.762025393849264 0.03770806102168398" fill="#ff5c08" stroke="none" /><path d="M 79.01574976396665 99.18683210126434 l -10.664264451308892 -0.41325457988206954 a31.672268532755538,31.672268532755538 0 0,0 0.0257999158883402,-0.5445954473919804 l 10.655570927187053 0.5967611338970591" fill="#ff770a" stroke="none" /><path d="M 79.08570108090925 98.10471618934814 l -8.140585563886482 -0.7377115574444034 a29.173943458633907,29.173943458633907 0 0,0 0.049627481691740284,-0.4997419679960019 l 8.126680956512514 0.8777290561448355" fill="#ff5407" stroke="none" /><path d="M 79.12142395522702 97.74499172005258 l -15.348355195324027 -1.6577120956337739 a36.43761693377059,36.43761693377059 0 0,0 0.07271846014689412,-0.6230073581233515 l 15.317546382173543 1.921663192081987" fill="#ffb711" stroke="none" /><path d="M 79.21141760316559 97.0276538004421 l -12.109661936957236 -1.7314363696933395 a33.23281587083235,33.23281587083235 0 0,0 0.08584211454330849,-0.5655922804736024 l 12.078063928974625 1.939627762559034" fill="#ff8c0c" stroke="none" /><path d="M 80.2630227832202 92.82701384747504 l -59.210931650339425 -21.518958457574875 a84.0,84.0 0 0,0 0.5055816459934896,-1.3547074518826343 l 58.83174541584431 22.534989046486853" fill="#4dd2ff" stroke="none" /><path d="M 80.65960295795068 91.81776055985345 l -9.876796524118276 -4.178524044063765 a31.72432621499616,31.72432621499616 0 0,0 0.21709906671792062,-0.5010945782346666 l 9.803406747557675 4.347917766885032" fill="#ff770b" stroke="none" /><path d="M 81.26839172434947 90.50648371742162 l -23.343880244272388 -11.831098746904756 a47.170816617330495,47.170816617330495 0 0,0 0.37330213104449844,-0.7211008974961208 l 23.136768680067775 12.23117236666121" fill="#c1ff1e" stroke="none" /><line stroke="#e1ed5e" stroke-width="0.3" x1="26.266209847984243" x2="21.928928074336255" y1="57.711370442889674" y2="55.22380399835377" /><path d="M 25.398753493254645 57.213857153982495 a86.0,86.0 0 0,1 29.58750427330803,-30.492523968695096" fill="none" id="id95" stroke="none" /><text fill="#e1ed5e" style="font-size:6.75px; font-family:Arial;" text-anchor="middle"><textPath startOffset="21.46611528233685" xlink:href="#id95">November</textPath></text><path d="M 83.84228863543731 86.58626213691792 l -5.183914537479012 -4.303559405255277 a27.737476789306765,27.737476789306765 0 0,0 0.30813614017107177,-0.3647359988208185 l 5.109067783820816 4.3921543537052115" fill="#ff3f05" stroke="none" /><line stroke="#e1ed5e" stroke-width="0.3" x1="56.762969772571076" x2="54.21961505331055" y1="26.818313649435495" y2="22.513508569990535" /><path d="M 56.25429882871897 25.957352633546506 a86.0,86.0 0 0,1 42.265352541879196,-11.944610805530505" fill="none" id="id96" stroke="none" /><text fill="#e1ed5e" style="font-size:6.75px; font-family:Arial;" text-anchor="middle"><textPath startOffset="22.20632615414155" xlink:href="#id96">December</textPath></text></svg>